%TF.GenerationSoftware,KiCad,Pcbnew,7.0.7*%
%TF.CreationDate,2024-02-18T11:13:52+09:00*%
%TF.ProjectId,ALTAIR_MDD_V1-backups,414c5441-4952-45f4-9d44-445f56312d62,rev?*%
%TF.SameCoordinates,Original*%
%TF.FileFunction,Copper,L2,Bot*%
%TF.FilePolarity,Positive*%
%FSLAX46Y46*%
G04 Gerber Fmt 4.6, Leading zero omitted, Abs format (unit mm)*
G04 Created by KiCad (PCBNEW 7.0.7) date 2024-02-18 11:13:52*
%MOMM*%
%LPD*%
G01*
G04 APERTURE LIST*
G04 Aperture macros list*
%AMRoundRect*
0 Rectangle with rounded corners*
0 $1 Rounding radius*
0 $2 $3 $4 $5 $6 $7 $8 $9 X,Y pos of 4 corners*
0 Add a 4 corners polygon primitive as box body*
4,1,4,$2,$3,$4,$5,$6,$7,$8,$9,$2,$3,0*
0 Add four circle primitives for the rounded corners*
1,1,$1+$1,$2,$3*
1,1,$1+$1,$4,$5*
1,1,$1+$1,$6,$7*
1,1,$1+$1,$8,$9*
0 Add four rect primitives between the rounded corners*
20,1,$1+$1,$2,$3,$4,$5,0*
20,1,$1+$1,$4,$5,$6,$7,0*
20,1,$1+$1,$6,$7,$8,$9,0*
20,1,$1+$1,$8,$9,$2,$3,0*%
G04 Aperture macros list end*
%TA.AperFunction,ComponentPad*%
%ADD10RoundRect,0.250000X0.725000X-0.600000X0.725000X0.600000X-0.725000X0.600000X-0.725000X-0.600000X0*%
%TD*%
%TA.AperFunction,ComponentPad*%
%ADD11O,1.950000X1.700000*%
%TD*%
%TA.AperFunction,ComponentPad*%
%ADD12RoundRect,0.250000X-0.600000X-0.725000X0.600000X-0.725000X0.600000X0.725000X-0.600000X0.725000X0*%
%TD*%
%TA.AperFunction,ComponentPad*%
%ADD13O,1.700000X1.950000*%
%TD*%
%TA.AperFunction,ComponentPad*%
%ADD14R,1.500000X1.600000*%
%TD*%
%TA.AperFunction,ComponentPad*%
%ADD15C,1.600000*%
%TD*%
%TA.AperFunction,ComponentPad*%
%ADD16C,3.000000*%
%TD*%
%TA.AperFunction,ComponentPad*%
%ADD17R,1.600000X1.600000*%
%TD*%
%TA.AperFunction,ComponentPad*%
%ADD18C,4.000000*%
%TD*%
%TA.AperFunction,ComponentPad*%
%ADD19RoundRect,0.250000X0.600000X0.725000X-0.600000X0.725000X-0.600000X-0.725000X0.600000X-0.725000X0*%
%TD*%
%TA.AperFunction,ViaPad*%
%ADD20C,0.600000*%
%TD*%
%TA.AperFunction,Conductor*%
%ADD21C,0.250000*%
%TD*%
%TA.AperFunction,Conductor*%
%ADD22C,1.500000*%
%TD*%
%TA.AperFunction,Conductor*%
%ADD23C,1.800000*%
%TD*%
G04 APERTURE END LIST*
D10*
%TO.P,J4,1,Pin_1*%
%TO.N,GND*%
X191770000Y-83700000D03*
D11*
%TO.P,J4,2,Pin_2*%
%TO.N,+5V*%
X191770000Y-81200000D03*
%TO.P,J4,3,Pin_3*%
%TO.N,B8*%
X191770000Y-78700000D03*
%TO.P,J4,4,Pin_4*%
%TO.N,B9*%
X191770000Y-76200000D03*
%TD*%
D10*
%TO.P,J3,1,Pin_1*%
%TO.N,GND*%
X191770000Y-98250000D03*
D11*
%TO.P,J3,2,Pin_2*%
%TO.N,+5V*%
X191770000Y-95750000D03*
%TO.P,J3,3,Pin_3*%
%TO.N,A6*%
X191770000Y-93250000D03*
%TO.P,J3,4,Pin_4*%
%TO.N,A7*%
X191770000Y-90750000D03*
%TD*%
D10*
%TO.P,J2,1,Pin_1*%
%TO.N,GND*%
X191770000Y-112800000D03*
D11*
%TO.P,J2,2,Pin_2*%
%TO.N,+5V*%
X191770000Y-110300000D03*
%TO.P,J2,3,Pin_3*%
%TO.N,A8*%
X191770000Y-107800000D03*
%TO.P,J2,4,Pin_4*%
%TO.N,A11*%
X191770000Y-105300000D03*
%TD*%
D10*
%TO.P,J1,1,Pin_1*%
%TO.N,GND*%
X191770000Y-127350000D03*
D11*
%TO.P,J1,2,Pin_2*%
%TO.N,+5V*%
X191770000Y-124850000D03*
%TO.P,J1,3,Pin_3*%
%TO.N,B14*%
X191770000Y-122350000D03*
%TO.P,J1,4,Pin_4*%
%TO.N,B15*%
X191770000Y-119850000D03*
%TD*%
D12*
%TO.P,J5,1,Pin_1*%
%TO.N,A0*%
X120650000Y-132080000D03*
D13*
%TO.P,J5,2,Pin_2*%
%TO.N,+5V*%
X123150000Y-132080000D03*
%TO.P,J5,3,Pin_3*%
%TO.N,A1*%
X125650000Y-132080000D03*
%TO.P,J5,4,Pin_4*%
%TO.N,GND*%
X128150000Y-132080000D03*
%TD*%
D14*
%TO.P,J11,1,VBUS*%
%TO.N,+5V*%
X119550000Y-81175000D03*
D15*
%TO.P,J11,2,D-*%
%TO.N,A10*%
X119550000Y-83675000D03*
%TO.P,J11,3,D+*%
%TO.N,A9*%
X119550000Y-85675000D03*
%TO.P,J11,4,GND*%
%TO.N,GND*%
X119550000Y-88175000D03*
D16*
%TO.P,J11,5,Shield*%
X116840000Y-78105000D03*
X116840000Y-91245000D03*
%TD*%
D10*
%TO.P,J14,1,Pin_1*%
%TO.N,+5V*%
X129540000Y-70805000D03*
D11*
%TO.P,J14,2,Pin_2*%
%TO.N,GND*%
X129540000Y-68305000D03*
%TO.P,J14,3,Pin_3*%
%TO.N,C11*%
X129540000Y-65805000D03*
%TO.P,J14,4,Pin_4*%
%TO.N,C10*%
X129540000Y-63305000D03*
%TD*%
D12*
%TO.P,J8,1,Pin_1*%
%TO.N,C6*%
X173990000Y-132080000D03*
D13*
%TO.P,J8,2,Pin_2*%
%TO.N,+5V*%
X176490000Y-132080000D03*
%TO.P,J8,3,Pin_3*%
%TO.N,C7*%
X178990000Y-132080000D03*
%TO.P,J8,4,Pin_4*%
%TO.N,GND*%
X181490000Y-132080000D03*
%TD*%
D17*
%TO.P,J12,1,VBUS*%
%TO.N,+5V*%
X121787500Y-68595000D03*
D15*
%TO.P,J12,2,D-*%
%TO.N,C10*%
X121787500Y-66095000D03*
%TO.P,J12,3,D+*%
%TO.N,C11*%
X119787500Y-66095000D03*
%TO.P,J12,4,GND*%
%TO.N,GND*%
X119787500Y-68595000D03*
D18*
%TO.P,J12,5,Shield*%
X116927500Y-73345000D03*
X116927500Y-61345000D03*
%TD*%
D19*
%TO.P,J10,1,Pin_1*%
%TO.N,+3.3V*%
X162400000Y-55880000D03*
D13*
%TO.P,J10,2,Pin_2*%
%TO.N,swclk*%
X159900000Y-55880000D03*
%TO.P,J10,3,Pin_3*%
%TO.N,GND*%
X157400000Y-55880000D03*
%TO.P,J10,4,Pin_4*%
%TO.N,swdio*%
X154900000Y-55880000D03*
%TO.P,J10,5,Pin_5*%
%TO.N,nrst*%
X152400000Y-55880000D03*
%TD*%
D10*
%TO.P,J13,1,Pin_1*%
%TO.N,+5V*%
X129540000Y-88645000D03*
D11*
%TO.P,J13,2,Pin_2*%
%TO.N,GND*%
X129540000Y-86145000D03*
%TO.P,J13,3,Pin_3*%
%TO.N,A9*%
X129540000Y-83645000D03*
%TO.P,J13,4,Pin_4*%
%TO.N,A10*%
X129540000Y-81145000D03*
%TD*%
D12*
%TO.P,J6,1,Pin_1*%
%TO.N,B3*%
X138430000Y-132080000D03*
D13*
%TO.P,J6,2,Pin_2*%
%TO.N,+5V*%
X140930000Y-132080000D03*
%TO.P,J6,3,Pin_3*%
%TO.N,A5*%
X143430000Y-132080000D03*
%TO.P,J6,4,Pin_4*%
%TO.N,GND*%
X145930000Y-132080000D03*
%TD*%
D12*
%TO.P,J7,1,Pin_1*%
%TO.N,B6*%
X156210000Y-132080000D03*
D13*
%TO.P,J7,2,Pin_2*%
%TO.N,+5V*%
X158710000Y-132080000D03*
%TO.P,J7,3,Pin_3*%
%TO.N,B7*%
X161210000Y-132080000D03*
%TO.P,J7,4,Pin_4*%
%TO.N,GND*%
X163710000Y-132080000D03*
%TD*%
D20*
%TO.N,GND*%
X167513000Y-80264000D03*
X169926000Y-80264000D03*
X175260000Y-73406000D03*
X171196000Y-73406000D03*
X167513000Y-77343000D03*
%TO.N,nrst*%
X163195000Y-70485000D03*
X149352000Y-89156000D03*
X167640000Y-73660000D03*
X149352000Y-70485000D03*
%TO.N,swdio*%
X179578000Y-73406000D03*
%TO.N,B6*%
X170942000Y-69088000D03*
X166878000Y-89662000D03*
X167640000Y-75819000D03*
X168377100Y-73152000D03*
X166814500Y-101282500D03*
%TO.N,B7*%
X171704000Y-68521900D03*
X168910000Y-90043000D03*
%TO.N,B8*%
X177165000Y-67945000D03*
X169377100Y-68580000D03*
%TO.N,C6*%
X175768000Y-77978000D03*
X178562000Y-80899000D03*
%TO.N,C7*%
X178816000Y-77470000D03*
%TO.N,C10*%
X152654000Y-60198000D03*
X144780000Y-60198000D03*
X152654000Y-64262000D03*
%TO.N,C11*%
X173482000Y-65024000D03*
X129540000Y-56388000D03*
X153924000Y-58928000D03*
%TO.N,A10*%
X163068000Y-74930000D03*
X170434000Y-74930000D03*
%TO.N,A0*%
X163957000Y-80899000D03*
%TO.N,A1*%
X164846000Y-87561100D03*
%TO.N,A6*%
X170434000Y-85725000D03*
%TO.N,A7*%
X171069000Y-84963000D03*
%TO.N,B3*%
X172466000Y-69088000D03*
%TO.N,A5*%
X169799000Y-84963000D03*
%TD*%
D21*
%TO.N,C7*%
X195580000Y-91440000D02*
X181610000Y-77470000D01*
X184408400Y-108961600D02*
X195580000Y-97790000D01*
X184408400Y-115692600D02*
X184408400Y-108961600D01*
X178990000Y-121111000D02*
X184408400Y-115692600D01*
X195580000Y-97790000D02*
X195580000Y-91440000D01*
X181610000Y-77470000D02*
X178816000Y-77470000D01*
X178990000Y-132080000D02*
X178990000Y-121111000D01*
%TO.N,A7*%
X170836400Y-88286400D02*
X173300000Y-90750000D01*
X170836400Y-88243600D02*
X170836400Y-88286400D01*
X171069000Y-88011000D02*
X170836400Y-88243600D01*
X171069000Y-84963000D02*
X171069000Y-88011000D01*
X173300000Y-90750000D02*
X191770000Y-90750000D01*
%TO.N,A6*%
X174403000Y-93250000D02*
X191770000Y-93250000D01*
X170434000Y-89281000D02*
X174403000Y-93250000D01*
X170434000Y-85725000D02*
X170434000Y-89281000D01*
%TO.N,nrst*%
X150114000Y-55880000D02*
X149352000Y-56642000D01*
X149352000Y-70485000D02*
X149352000Y-89156000D01*
X167640000Y-72390000D02*
X165735000Y-70485000D01*
X152400000Y-55880000D02*
X150114000Y-55880000D01*
X165735000Y-70485000D02*
X163195000Y-70485000D01*
X167640000Y-73660000D02*
X167640000Y-72390000D01*
X149352000Y-56642000D02*
X149352000Y-70485000D01*
%TO.N,swdio*%
X154900000Y-55880000D02*
X154900000Y-52872000D01*
X155448000Y-52324000D02*
X167386000Y-52324000D01*
X154900000Y-52872000D02*
X155448000Y-52324000D01*
X167386000Y-52324000D02*
X179578000Y-64516000D01*
X179578000Y-64516000D02*
X179578000Y-73406000D01*
%TO.N,B6*%
X166878000Y-89662000D02*
X166878000Y-76581000D01*
X170942000Y-69088000D02*
X170942000Y-72136000D01*
X166814500Y-101282500D02*
X156210000Y-111887000D01*
X166878000Y-76581000D02*
X167640000Y-75819000D01*
X170942000Y-72136000D02*
X169926000Y-73152000D01*
X169926000Y-73152000D02*
X168377100Y-73152000D01*
X156210000Y-111887000D02*
X156210000Y-132080000D01*
%TO.N,B7*%
X168910000Y-90043000D02*
X168910000Y-79756000D01*
X173158600Y-68510600D02*
X171715300Y-68510600D01*
X173482000Y-75184000D02*
X173482000Y-68834000D01*
X171715300Y-68510600D02*
X171704000Y-68521900D01*
X173482000Y-68834000D02*
X173158600Y-68510600D01*
X171958000Y-76708000D02*
X173482000Y-75184000D01*
X168910000Y-79756000D02*
X171958000Y-76708000D01*
%TO.N,B8*%
X170012100Y-67945000D02*
X177165000Y-67945000D01*
X169377100Y-68580000D02*
X170012100Y-67945000D01*
%TO.N,C6*%
X175768000Y-77978000D02*
X175768000Y-78105000D01*
X175768000Y-78105000D02*
X178562000Y-80899000D01*
%TO.N,C10*%
X152654000Y-60198000D02*
X152654000Y-64262000D01*
X141673000Y-63305000D02*
X129540000Y-63305000D01*
X144780000Y-60198000D02*
X141673000Y-63305000D01*
D22*
X121787500Y-66095000D02*
X124577500Y-63305000D01*
X124577500Y-63305000D02*
X129540000Y-63305000D01*
%TO.N,C11*%
X117348000Y-69088000D02*
X119380000Y-71120000D01*
D21*
X126492000Y-59436000D02*
X124437250Y-59436000D01*
D22*
X117348000Y-67056000D02*
X117348000Y-69088000D01*
X129436732Y-65805000D02*
X129540000Y-65805000D01*
X124121732Y-71120000D02*
X129436732Y-65805000D01*
D21*
X153924000Y-58928000D02*
X153924000Y-65024000D01*
D22*
X119787500Y-66095000D02*
X118309000Y-66095000D01*
X118309000Y-66095000D02*
X117348000Y-67056000D01*
D21*
X153924000Y-65024000D02*
X173482000Y-65024000D01*
X129540000Y-56388000D02*
X126492000Y-59436000D01*
D22*
X119380000Y-71120000D02*
X124121732Y-71120000D01*
D21*
X124437250Y-59436000D02*
X119787500Y-64085750D01*
X119787500Y-64085750D02*
X119787500Y-66095000D01*
D23*
%TO.N,A9*%
X122605000Y-85675000D02*
X119550000Y-85675000D01*
X124635000Y-83645000D02*
X122605000Y-85675000D01*
X129540000Y-83645000D02*
X124635000Y-83645000D01*
%TO.N,A10*%
X119550000Y-83675000D02*
X120795000Y-83675000D01*
X123325000Y-81145000D02*
X129540000Y-81145000D01*
D21*
X162814000Y-74930000D02*
X163068000Y-74930000D01*
D23*
X120795000Y-83675000D02*
X123325000Y-81145000D01*
D21*
X170434000Y-74930000D02*
X163068000Y-74930000D01*
%TO.N,A0*%
X154686000Y-92075000D02*
X135001000Y-92075000D01*
X120650000Y-106426000D02*
X120650000Y-132080000D01*
X163957000Y-80899000D02*
X163957000Y-82804000D01*
X135001000Y-92075000D02*
X120650000Y-106426000D01*
X163957000Y-82804000D02*
X154686000Y-92075000D01*
%TO.N,A1*%
X164846000Y-89408000D02*
X154051000Y-100203000D01*
X125650000Y-109681000D02*
X125650000Y-132080000D01*
X135128000Y-100203000D02*
X125650000Y-109681000D01*
X154051000Y-100203000D02*
X135128000Y-100203000D01*
X164846000Y-87561100D02*
X164846000Y-89408000D01*
%TO.N,B3*%
X172466000Y-74295000D02*
X170434000Y-76327000D01*
X138430000Y-107061000D02*
X138430000Y-132080000D01*
X153670000Y-104902000D02*
X140589000Y-104902000D01*
X172466000Y-69088000D02*
X172466000Y-74295000D01*
X168148000Y-76327000D02*
X168148000Y-90424000D01*
X168148000Y-90424000D02*
X153670000Y-104902000D01*
X140589000Y-104902000D02*
X138430000Y-107061000D01*
X170434000Y-76327000D02*
X168148000Y-76327000D01*
%TO.N,A5*%
X143430000Y-111713000D02*
X143430000Y-132080000D01*
X145034000Y-110109000D02*
X143430000Y-111713000D01*
X153162000Y-110109000D02*
X145034000Y-110109000D01*
X169799000Y-84963000D02*
X169799000Y-93472000D01*
X169799000Y-93472000D02*
X153162000Y-110109000D01*
%TD*%
%TA.AperFunction,Conductor*%
%TO.N,GND*%
G36*
X199971603Y-46025491D02*
G01*
X199971657Y-46025500D01*
X199991715Y-46025500D01*
X199998560Y-46025500D01*
X200001424Y-46025566D01*
X200363859Y-46042323D01*
X200369551Y-46042849D01*
X200727480Y-46092778D01*
X200733099Y-46093828D01*
X201084891Y-46176569D01*
X201090383Y-46178132D01*
X201368362Y-46271301D01*
X201433040Y-46292979D01*
X201438357Y-46295038D01*
X201768978Y-46441021D01*
X201774078Y-46443560D01*
X201838559Y-46479476D01*
X202089795Y-46619414D01*
X202094667Y-46622430D01*
X202392803Y-46826659D01*
X202397375Y-46830112D01*
X202675402Y-47060982D01*
X202679636Y-47064842D01*
X202935157Y-47320363D01*
X202939017Y-47324597D01*
X203169887Y-47602624D01*
X203173340Y-47607196D01*
X203377569Y-47905332D01*
X203380585Y-47910204D01*
X203502733Y-48129500D01*
X203544511Y-48204507D01*
X203556433Y-48225910D01*
X203558982Y-48231029D01*
X203704956Y-48561630D01*
X203707020Y-48566959D01*
X203821865Y-48909609D01*
X203823433Y-48915120D01*
X203906169Y-49266892D01*
X203907222Y-49272524D01*
X203957148Y-49630435D01*
X203957676Y-49636140D01*
X203974434Y-49998574D01*
X203974500Y-50001438D01*
X203974500Y-139998560D01*
X203974434Y-140001424D01*
X203957676Y-140363859D01*
X203957148Y-140369564D01*
X203907222Y-140727475D01*
X203906169Y-140733107D01*
X203823433Y-141084879D01*
X203821865Y-141090390D01*
X203707020Y-141433040D01*
X203704953Y-141438376D01*
X203625624Y-141618042D01*
X203558987Y-141768960D01*
X203556433Y-141774089D01*
X203380585Y-142089795D01*
X203377569Y-142094667D01*
X203173340Y-142392803D01*
X203169887Y-142397375D01*
X202939017Y-142675402D01*
X202935157Y-142679636D01*
X202679636Y-142935157D01*
X202675402Y-142939017D01*
X202397375Y-143169887D01*
X202392803Y-143173340D01*
X202094667Y-143377569D01*
X202089795Y-143380585D01*
X201774089Y-143556433D01*
X201768961Y-143558986D01*
X201438376Y-143704953D01*
X201433040Y-143707020D01*
X201090390Y-143821865D01*
X201084879Y-143823433D01*
X200733107Y-143906169D01*
X200727475Y-143907222D01*
X200369564Y-143957148D01*
X200363859Y-143957676D01*
X200001424Y-143974434D01*
X199998560Y-143974500D01*
X110001440Y-143974500D01*
X109998576Y-143974434D01*
X109636140Y-143957676D01*
X109630435Y-143957148D01*
X109272524Y-143907222D01*
X109266892Y-143906169D01*
X108915120Y-143823433D01*
X108909609Y-143821865D01*
X108566959Y-143707020D01*
X108561630Y-143704956D01*
X108231029Y-143558982D01*
X108225910Y-143556433D01*
X107910204Y-143380585D01*
X107905332Y-143377569D01*
X107607196Y-143173340D01*
X107602624Y-143169887D01*
X107324597Y-142939017D01*
X107320363Y-142935157D01*
X107064842Y-142679636D01*
X107060982Y-142675402D01*
X106830112Y-142397375D01*
X106826659Y-142392803D01*
X106622430Y-142094667D01*
X106619414Y-142089795D01*
X106486127Y-141850500D01*
X106443560Y-141774078D01*
X106441021Y-141768978D01*
X106295038Y-141438357D01*
X106292979Y-141433040D01*
X106275834Y-141381887D01*
X106178132Y-141090383D01*
X106176569Y-141084891D01*
X106093828Y-140733099D01*
X106092777Y-140727475D01*
X106092526Y-140725675D01*
X106042849Y-140369551D01*
X106042323Y-140363859D01*
X106028633Y-140067763D01*
X108145787Y-140067763D01*
X108175413Y-140337013D01*
X108175415Y-140337024D01*
X108232857Y-140556742D01*
X108243928Y-140599088D01*
X108349870Y-140848390D01*
X108421998Y-140966575D01*
X108490979Y-141079605D01*
X108490986Y-141079615D01*
X108664253Y-141287819D01*
X108664259Y-141287824D01*
X108865998Y-141468582D01*
X109091910Y-141618044D01*
X109337176Y-141733020D01*
X109337183Y-141733022D01*
X109337185Y-141733023D01*
X109596557Y-141811057D01*
X109596564Y-141811058D01*
X109596569Y-141811060D01*
X109864561Y-141850500D01*
X109864566Y-141850500D01*
X110067636Y-141850500D01*
X110119133Y-141846730D01*
X110270156Y-141835677D01*
X110382758Y-141810593D01*
X110534546Y-141776782D01*
X110534548Y-141776781D01*
X110534553Y-141776780D01*
X110787558Y-141680014D01*
X111023777Y-141547441D01*
X111238177Y-141381888D01*
X111426186Y-141186881D01*
X111583799Y-140966579D01*
X111657787Y-140822669D01*
X111707649Y-140725690D01*
X111707651Y-140725684D01*
X111707656Y-140725675D01*
X111795118Y-140469305D01*
X111844319Y-140202933D01*
X111849259Y-140067763D01*
X198145787Y-140067763D01*
X198175413Y-140337013D01*
X198175415Y-140337024D01*
X198232857Y-140556742D01*
X198243928Y-140599088D01*
X198349870Y-140848390D01*
X198421998Y-140966575D01*
X198490979Y-141079605D01*
X198490986Y-141079615D01*
X198664253Y-141287819D01*
X198664259Y-141287824D01*
X198865998Y-141468582D01*
X199091910Y-141618044D01*
X199337176Y-141733020D01*
X199337183Y-141733022D01*
X199337185Y-141733023D01*
X199596557Y-141811057D01*
X199596564Y-141811058D01*
X199596569Y-141811060D01*
X199864561Y-141850500D01*
X199864566Y-141850500D01*
X200067636Y-141850500D01*
X200119133Y-141846730D01*
X200270156Y-141835677D01*
X200382758Y-141810593D01*
X200534546Y-141776782D01*
X200534548Y-141776781D01*
X200534553Y-141776780D01*
X200787558Y-141680014D01*
X201023777Y-141547441D01*
X201238177Y-141381888D01*
X201426186Y-141186881D01*
X201583799Y-140966579D01*
X201657787Y-140822669D01*
X201707649Y-140725690D01*
X201707651Y-140725684D01*
X201707656Y-140725675D01*
X201795118Y-140469305D01*
X201844319Y-140202933D01*
X201854212Y-139932235D01*
X201824586Y-139662982D01*
X201756072Y-139400912D01*
X201650130Y-139151610D01*
X201509018Y-138920390D01*
X201419747Y-138813119D01*
X201335746Y-138712180D01*
X201335740Y-138712175D01*
X201134002Y-138531418D01*
X200908092Y-138381957D01*
X200908090Y-138381956D01*
X200662824Y-138266980D01*
X200662819Y-138266978D01*
X200662814Y-138266976D01*
X200403442Y-138188942D01*
X200403428Y-138188939D01*
X200287791Y-138171921D01*
X200135439Y-138149500D01*
X199932369Y-138149500D01*
X199932364Y-138149500D01*
X199729844Y-138164323D01*
X199729831Y-138164325D01*
X199465453Y-138223217D01*
X199465446Y-138223220D01*
X199212439Y-138319987D01*
X198976226Y-138452557D01*
X198761822Y-138618112D01*
X198573822Y-138813109D01*
X198573816Y-138813116D01*
X198416202Y-139033419D01*
X198416199Y-139033424D01*
X198292350Y-139274309D01*
X198292343Y-139274327D01*
X198204884Y-139530685D01*
X198204881Y-139530699D01*
X198181399Y-139657829D01*
X198163360Y-139755496D01*
X198155681Y-139797068D01*
X198155680Y-139797075D01*
X198145787Y-140067763D01*
X111849259Y-140067763D01*
X111854212Y-139932235D01*
X111824586Y-139662982D01*
X111756072Y-139400912D01*
X111650130Y-139151610D01*
X111509018Y-138920390D01*
X111419747Y-138813119D01*
X111335746Y-138712180D01*
X111335740Y-138712175D01*
X111251091Y-138636330D01*
X122745710Y-138636330D01*
X122775925Y-138859387D01*
X122775926Y-138859390D01*
X122845483Y-139073465D01*
X122952146Y-139271678D01*
X122952148Y-139271681D01*
X123092489Y-139447663D01*
X123092491Y-139447664D01*
X123092492Y-139447666D01*
X123262004Y-139595765D01*
X123455236Y-139711215D01*
X123665976Y-139790307D01*
X123887450Y-139830500D01*
X123887453Y-139830500D01*
X124856148Y-139830500D01*
X124856155Y-139830500D01*
X125024188Y-139815377D01*
X125090503Y-139797075D01*
X125241160Y-139755496D01*
X125241162Y-139755495D01*
X125241170Y-139755493D01*
X125443973Y-139657829D01*
X125626078Y-139525522D01*
X125781632Y-139362825D01*
X125905635Y-139174968D01*
X125994103Y-138967988D01*
X126044191Y-138748537D01*
X126049230Y-138636330D01*
X140525710Y-138636330D01*
X140555925Y-138859387D01*
X140555926Y-138859390D01*
X140625483Y-139073465D01*
X140732146Y-139271678D01*
X140732148Y-139271681D01*
X140872489Y-139447663D01*
X140872491Y-139447664D01*
X140872492Y-139447666D01*
X141042004Y-139595765D01*
X141235236Y-139711215D01*
X141445976Y-139790307D01*
X141667450Y-139830500D01*
X141667453Y-139830500D01*
X142636148Y-139830500D01*
X142636155Y-139830500D01*
X142804188Y-139815377D01*
X142870503Y-139797075D01*
X143021160Y-139755496D01*
X143021162Y-139755495D01*
X143021170Y-139755493D01*
X143223973Y-139657829D01*
X143406078Y-139525522D01*
X143561632Y-139362825D01*
X143685635Y-139174968D01*
X143774103Y-138967988D01*
X143824191Y-138748537D01*
X143829230Y-138636330D01*
X158305710Y-138636330D01*
X158335925Y-138859387D01*
X158335926Y-138859390D01*
X158405483Y-139073465D01*
X158512146Y-139271678D01*
X158512148Y-139271681D01*
X158652489Y-139447663D01*
X158652491Y-139447664D01*
X158652492Y-139447666D01*
X158822004Y-139595765D01*
X159015236Y-139711215D01*
X159225976Y-139790307D01*
X159447450Y-139830500D01*
X159447453Y-139830500D01*
X160416148Y-139830500D01*
X160416155Y-139830500D01*
X160584188Y-139815377D01*
X160650503Y-139797075D01*
X160801160Y-139755496D01*
X160801162Y-139755495D01*
X160801170Y-139755493D01*
X161003973Y-139657829D01*
X161186078Y-139525522D01*
X161341632Y-139362825D01*
X161465635Y-139174968D01*
X161554103Y-138967988D01*
X161604191Y-138748537D01*
X161609230Y-138636330D01*
X176085710Y-138636330D01*
X176115925Y-138859387D01*
X176115926Y-138859390D01*
X176185483Y-139073465D01*
X176292146Y-139271678D01*
X176292148Y-139271681D01*
X176432489Y-139447663D01*
X176432491Y-139447664D01*
X176432492Y-139447666D01*
X176602004Y-139595765D01*
X176795236Y-139711215D01*
X177005976Y-139790307D01*
X177227450Y-139830500D01*
X177227453Y-139830500D01*
X178196148Y-139830500D01*
X178196155Y-139830500D01*
X178364188Y-139815377D01*
X178430503Y-139797075D01*
X178581160Y-139755496D01*
X178581162Y-139755495D01*
X178581170Y-139755493D01*
X178783973Y-139657829D01*
X178966078Y-139525522D01*
X179121632Y-139362825D01*
X179245635Y-139174968D01*
X179334103Y-138967988D01*
X179384191Y-138748537D01*
X179394290Y-138523670D01*
X179364075Y-138300613D01*
X179294517Y-138086536D01*
X179187852Y-137888319D01*
X179047508Y-137712334D01*
X178877996Y-137564235D01*
X178684764Y-137448785D01*
X178566775Y-137404503D01*
X178474023Y-137369692D01*
X178252550Y-137329500D01*
X178252547Y-137329500D01*
X177283845Y-137329500D01*
X177245399Y-137332960D01*
X177115813Y-137344622D01*
X177115807Y-137344623D01*
X176898839Y-137404503D01*
X176898826Y-137404508D01*
X176696033Y-137502167D01*
X176696025Y-137502171D01*
X176513927Y-137634473D01*
X176513925Y-137634474D01*
X176358366Y-137797176D01*
X176234363Y-137985033D01*
X176145899Y-138192004D01*
X176145895Y-138192017D01*
X176095810Y-138411457D01*
X176095808Y-138411468D01*
X176086528Y-138618112D01*
X176085710Y-138636330D01*
X161609230Y-138636330D01*
X161614290Y-138523670D01*
X161584075Y-138300613D01*
X161514517Y-138086536D01*
X161407852Y-137888319D01*
X161267508Y-137712334D01*
X161097996Y-137564235D01*
X160904764Y-137448785D01*
X160786775Y-137404503D01*
X160694023Y-137369692D01*
X160472550Y-137329500D01*
X160472547Y-137329500D01*
X159503845Y-137329500D01*
X159465399Y-137332960D01*
X159335813Y-137344622D01*
X159335807Y-137344623D01*
X159118839Y-137404503D01*
X159118826Y-137404508D01*
X158916033Y-137502167D01*
X158916025Y-137502171D01*
X158733927Y-137634473D01*
X158733925Y-137634474D01*
X158578366Y-137797176D01*
X158454363Y-137985033D01*
X158365899Y-138192004D01*
X158365895Y-138192017D01*
X158315810Y-138411457D01*
X158315808Y-138411468D01*
X158306528Y-138618112D01*
X158305710Y-138636330D01*
X143829230Y-138636330D01*
X143834290Y-138523670D01*
X143804075Y-138300613D01*
X143734517Y-138086536D01*
X143627852Y-137888319D01*
X143487508Y-137712334D01*
X143317996Y-137564235D01*
X143124764Y-137448785D01*
X143006775Y-137404503D01*
X142914023Y-137369692D01*
X142692550Y-137329500D01*
X142692547Y-137329500D01*
X141723845Y-137329500D01*
X141685399Y-137332960D01*
X141555813Y-137344622D01*
X141555807Y-137344623D01*
X141338839Y-137404503D01*
X141338826Y-137404508D01*
X141136033Y-137502167D01*
X141136025Y-137502171D01*
X140953927Y-137634473D01*
X140953925Y-137634474D01*
X140798366Y-137797176D01*
X140674363Y-137985033D01*
X140585899Y-138192004D01*
X140585895Y-138192017D01*
X140535810Y-138411457D01*
X140535808Y-138411468D01*
X140526528Y-138618112D01*
X140525710Y-138636330D01*
X126049230Y-138636330D01*
X126054290Y-138523670D01*
X126024075Y-138300613D01*
X125954517Y-138086536D01*
X125847852Y-137888319D01*
X125707508Y-137712334D01*
X125537996Y-137564235D01*
X125344764Y-137448785D01*
X125226775Y-137404503D01*
X125134023Y-137369692D01*
X124912550Y-137329500D01*
X124912547Y-137329500D01*
X123943845Y-137329500D01*
X123905399Y-137332960D01*
X123775813Y-137344622D01*
X123775807Y-137344623D01*
X123558839Y-137404503D01*
X123558826Y-137404508D01*
X123356033Y-137502167D01*
X123356025Y-137502171D01*
X123173927Y-137634473D01*
X123173925Y-137634474D01*
X123018366Y-137797176D01*
X122894363Y-137985033D01*
X122805899Y-138192004D01*
X122805895Y-138192017D01*
X122755810Y-138411457D01*
X122755808Y-138411468D01*
X122746528Y-138618112D01*
X122745710Y-138636330D01*
X111251091Y-138636330D01*
X111134002Y-138531418D01*
X110908092Y-138381957D01*
X110908090Y-138381956D01*
X110662824Y-138266980D01*
X110662819Y-138266978D01*
X110662814Y-138266976D01*
X110403442Y-138188942D01*
X110403428Y-138188939D01*
X110287791Y-138171921D01*
X110135439Y-138149500D01*
X109932369Y-138149500D01*
X109932364Y-138149500D01*
X109729844Y-138164323D01*
X109729831Y-138164325D01*
X109465453Y-138223217D01*
X109465446Y-138223220D01*
X109212439Y-138319987D01*
X108976226Y-138452557D01*
X108761822Y-138618112D01*
X108573822Y-138813109D01*
X108573816Y-138813116D01*
X108416202Y-139033419D01*
X108416199Y-139033424D01*
X108292350Y-139274309D01*
X108292343Y-139274327D01*
X108204884Y-139530685D01*
X108204881Y-139530699D01*
X108181399Y-139657829D01*
X108163360Y-139755496D01*
X108155681Y-139797068D01*
X108155680Y-139797075D01*
X108145787Y-140067763D01*
X106028633Y-140067763D01*
X106025566Y-140001424D01*
X106025500Y-139998560D01*
X106025500Y-139970792D01*
X106025472Y-139970636D01*
X106018969Y-132836713D01*
X119647100Y-132836713D01*
X119662041Y-132931050D01*
X119662042Y-132931053D01*
X119662043Y-132931055D01*
X119719984Y-133044771D01*
X119719985Y-133044772D01*
X119719988Y-133044776D01*
X119810223Y-133135011D01*
X119810227Y-133135014D01*
X119810229Y-133135016D01*
X119923945Y-133192957D01*
X119923947Y-133192957D01*
X119923949Y-133192958D01*
X120018287Y-133207900D01*
X120018292Y-133207900D01*
X121281713Y-133207900D01*
X121376050Y-133192958D01*
X121376050Y-133192957D01*
X121376055Y-133192957D01*
X121489771Y-133135016D01*
X121580016Y-133044771D01*
X121637957Y-132931055D01*
X121637958Y-132931050D01*
X121652900Y-132836713D01*
X121652900Y-132255862D01*
X122147100Y-132255862D01*
X122162562Y-132407924D01*
X122223620Y-132602530D01*
X122223623Y-132602536D01*
X122223624Y-132602539D01*
X122274511Y-132694218D01*
X122322612Y-132780880D01*
X122322612Y-132780881D01*
X122391936Y-132861633D01*
X122455472Y-132935643D01*
X122616766Y-133060495D01*
X122799891Y-133150322D01*
X122997350Y-133201447D01*
X123201058Y-133211778D01*
X123402676Y-133180891D01*
X123593949Y-133110052D01*
X123767047Y-133002159D01*
X123914883Y-132861630D01*
X124031404Y-132694219D01*
X124111841Y-132506780D01*
X124152900Y-132306985D01*
X124152900Y-132255862D01*
X124647100Y-132255862D01*
X124662562Y-132407924D01*
X124723620Y-132602530D01*
X124723623Y-132602536D01*
X124723624Y-132602539D01*
X124774511Y-132694218D01*
X124822612Y-132780880D01*
X124822612Y-132780881D01*
X124891936Y-132861633D01*
X124955472Y-132935643D01*
X125116766Y-133060495D01*
X125299891Y-133150322D01*
X125497350Y-133201447D01*
X125701058Y-133211778D01*
X125902676Y-133180891D01*
X126093949Y-133110052D01*
X126267047Y-133002159D01*
X126414883Y-132861630D01*
X126432226Y-132836713D01*
X137427100Y-132836713D01*
X137442041Y-132931050D01*
X137442042Y-132931053D01*
X137442043Y-132931055D01*
X137499984Y-133044771D01*
X137499985Y-133044772D01*
X137499988Y-133044776D01*
X137590223Y-133135011D01*
X137590227Y-133135014D01*
X137590229Y-133135016D01*
X137703945Y-133192957D01*
X137703947Y-133192957D01*
X137703949Y-133192958D01*
X137798287Y-133207900D01*
X137798292Y-133207900D01*
X139061713Y-133207900D01*
X139156050Y-133192958D01*
X139156050Y-133192957D01*
X139156055Y-133192957D01*
X139269771Y-133135016D01*
X139360016Y-133044771D01*
X139417957Y-132931055D01*
X139417958Y-132931050D01*
X139432900Y-132836713D01*
X139432900Y-132255862D01*
X139927100Y-132255862D01*
X139942562Y-132407924D01*
X140003620Y-132602530D01*
X140003623Y-132602536D01*
X140003624Y-132602539D01*
X140054511Y-132694218D01*
X140102612Y-132780880D01*
X140102612Y-132780881D01*
X140171936Y-132861633D01*
X140235472Y-132935643D01*
X140396766Y-133060495D01*
X140579891Y-133150322D01*
X140777350Y-133201447D01*
X140981058Y-133211778D01*
X141182676Y-133180891D01*
X141373949Y-133110052D01*
X141547047Y-133002159D01*
X141694883Y-132861630D01*
X141811404Y-132694219D01*
X141891841Y-132506780D01*
X141932900Y-132306985D01*
X141932900Y-131904139D01*
X141917437Y-131752077D01*
X141917437Y-131752075D01*
X141856379Y-131557469D01*
X141856377Y-131557466D01*
X141856376Y-131557461D01*
X141757389Y-131379121D01*
X141757387Y-131379118D01*
X141624530Y-131224359D01*
X141624529Y-131224358D01*
X141624528Y-131224357D01*
X141463234Y-131099505D01*
X141280109Y-131009678D01*
X141082650Y-130958553D01*
X141082652Y-130958553D01*
X140946844Y-130951665D01*
X140878942Y-130948222D01*
X140878941Y-130948222D01*
X140878939Y-130948222D01*
X140677328Y-130979108D01*
X140677322Y-130979109D01*
X140486058Y-131049945D01*
X140486051Y-131049948D01*
X140312948Y-131157844D01*
X140165119Y-131298366D01*
X140165118Y-131298368D01*
X140048595Y-131465781D01*
X139968159Y-131653219D01*
X139927100Y-131853014D01*
X139927100Y-132255862D01*
X139432900Y-132255862D01*
X139432900Y-131323286D01*
X139417958Y-131228949D01*
X139417957Y-131228947D01*
X139417957Y-131228945D01*
X139360016Y-131115229D01*
X139360014Y-131115227D01*
X139360011Y-131115223D01*
X139269776Y-131024988D01*
X139269772Y-131024985D01*
X139269772Y-131024984D01*
X139269771Y-131024984D01*
X139156055Y-130967043D01*
X139156053Y-130967042D01*
X139156050Y-130967041D01*
X139061713Y-130952100D01*
X139061708Y-130952100D01*
X138831900Y-130952100D01*
X138764861Y-130932415D01*
X138719106Y-130879611D01*
X138707900Y-130828100D01*
X138707900Y-107227471D01*
X138727585Y-107160432D01*
X138744219Y-107139790D01*
X140667791Y-105216219D01*
X140729114Y-105182734D01*
X140755472Y-105179900D01*
X153611557Y-105179900D01*
X153620133Y-105180495D01*
X153630936Y-105182001D01*
X153630941Y-105182003D01*
X153670392Y-105180179D01*
X153675006Y-105179966D01*
X153677869Y-105179900D01*
X153695745Y-105179900D01*
X153695753Y-105179900D01*
X153697864Y-105179505D01*
X153706389Y-105178514D01*
X153734727Y-105177205D01*
X153739587Y-105175058D01*
X153766903Y-105166599D01*
X153772128Y-105165623D01*
X153796236Y-105150694D01*
X153803828Y-105146692D01*
X153829771Y-105135238D01*
X153833531Y-105131477D01*
X153855939Y-105113728D01*
X153860463Y-105110928D01*
X153877560Y-105088286D01*
X153883189Y-105081818D01*
X168303184Y-90661824D01*
X168309666Y-90656184D01*
X168318369Y-90649612D01*
X168318373Y-90649611D01*
X168348115Y-90616984D01*
X168350022Y-90614986D01*
X168362715Y-90602295D01*
X168363927Y-90600524D01*
X168369271Y-90593777D01*
X168388368Y-90572830D01*
X168390290Y-90567867D01*
X168403616Y-90542585D01*
X168406625Y-90538194D01*
X168413118Y-90510583D01*
X168415654Y-90502395D01*
X168425900Y-90475949D01*
X168425900Y-90475940D01*
X168426357Y-90473499D01*
X168428424Y-90469432D01*
X168430052Y-90465232D01*
X168430476Y-90465396D01*
X168458022Y-90411217D01*
X168518333Y-90375940D01*
X168588141Y-90378871D01*
X168615285Y-90391962D01*
X168648899Y-90413564D01*
X168719924Y-90459208D01*
X168821765Y-90489112D01*
X168844882Y-90495900D01*
X168844883Y-90495900D01*
X168975118Y-90495900D01*
X168994625Y-90490171D01*
X169100076Y-90459208D01*
X169209636Y-90388799D01*
X169294921Y-90290374D01*
X169294921Y-90290373D01*
X169300729Y-90283671D01*
X169302542Y-90285242D01*
X169345588Y-90247944D01*
X169414746Y-90238000D01*
X169478302Y-90267024D01*
X169516077Y-90325802D01*
X169521100Y-90360738D01*
X169521100Y-93305528D01*
X169501415Y-93372567D01*
X169484781Y-93393209D01*
X153083209Y-109794781D01*
X153021886Y-109828266D01*
X152995528Y-109831100D01*
X145092446Y-109831100D01*
X145083871Y-109830505D01*
X145073061Y-109828997D01*
X145073059Y-109828997D01*
X145054092Y-109829873D01*
X145028994Y-109831034D01*
X145026131Y-109831100D01*
X145008237Y-109831100D01*
X145006118Y-109831496D01*
X144997595Y-109832484D01*
X144969277Y-109833794D01*
X144969272Y-109833795D01*
X144964396Y-109835948D01*
X144937112Y-109844397D01*
X144931872Y-109845376D01*
X144931871Y-109845377D01*
X144907762Y-109860303D01*
X144900164Y-109864308D01*
X144874229Y-109875760D01*
X144870463Y-109879527D01*
X144848066Y-109897267D01*
X144843536Y-109900071D01*
X144826445Y-109922702D01*
X144820804Y-109929185D01*
X143274821Y-111475168D01*
X143268341Y-111480807D01*
X143259628Y-111487387D01*
X143229904Y-111519991D01*
X143227930Y-111522058D01*
X143215282Y-111534708D01*
X143215279Y-111534710D01*
X143214055Y-111536498D01*
X143208729Y-111543219D01*
X143189631Y-111564170D01*
X143187705Y-111569142D01*
X143174391Y-111594402D01*
X143171376Y-111598804D01*
X143171374Y-111598808D01*
X143164882Y-111626406D01*
X143162341Y-111634613D01*
X143152100Y-111661050D01*
X143152100Y-111666372D01*
X143148807Y-111694757D01*
X143147588Y-111699937D01*
X143147588Y-111699943D01*
X143151505Y-111728021D01*
X143152100Y-111736597D01*
X143152100Y-130902143D01*
X143132415Y-130969182D01*
X143079611Y-131014937D01*
X143071167Y-131018424D01*
X142986052Y-131049947D01*
X142986051Y-131049948D01*
X142812948Y-131157844D01*
X142665119Y-131298366D01*
X142665118Y-131298368D01*
X142548595Y-131465781D01*
X142468159Y-131653219D01*
X142427100Y-131853014D01*
X142427100Y-132255862D01*
X142442562Y-132407924D01*
X142503620Y-132602530D01*
X142503623Y-132602536D01*
X142503624Y-132602539D01*
X142554511Y-132694218D01*
X142602612Y-132780880D01*
X142602612Y-132780881D01*
X142671936Y-132861633D01*
X142735472Y-132935643D01*
X142896766Y-133060495D01*
X143079891Y-133150322D01*
X143277350Y-133201447D01*
X143481058Y-133211778D01*
X143682676Y-133180891D01*
X143873949Y-133110052D01*
X144047047Y-133002159D01*
X144194883Y-132861630D01*
X144212226Y-132836713D01*
X155207100Y-132836713D01*
X155222041Y-132931050D01*
X155222042Y-132931053D01*
X155222043Y-132931055D01*
X155279984Y-133044771D01*
X155279985Y-133044772D01*
X155279988Y-133044776D01*
X155370223Y-133135011D01*
X155370227Y-133135014D01*
X155370229Y-133135016D01*
X155483945Y-133192957D01*
X155483947Y-133192957D01*
X155483949Y-133192958D01*
X155578287Y-133207900D01*
X155578292Y-133207900D01*
X156841713Y-133207900D01*
X156936050Y-133192958D01*
X156936050Y-133192957D01*
X156936055Y-133192957D01*
X157049771Y-133135016D01*
X157140016Y-133044771D01*
X157197957Y-132931055D01*
X157197958Y-132931050D01*
X157212900Y-132836713D01*
X157212900Y-132255862D01*
X157707100Y-132255862D01*
X157722562Y-132407924D01*
X157783620Y-132602530D01*
X157783623Y-132602536D01*
X157783624Y-132602539D01*
X157834511Y-132694218D01*
X157882612Y-132780880D01*
X157882612Y-132780881D01*
X157951936Y-132861633D01*
X158015472Y-132935643D01*
X158176766Y-133060495D01*
X158359891Y-133150322D01*
X158557350Y-133201447D01*
X158761058Y-133211778D01*
X158962676Y-133180891D01*
X159153949Y-133110052D01*
X159327047Y-133002159D01*
X159474883Y-132861630D01*
X159591404Y-132694219D01*
X159671841Y-132506780D01*
X159712900Y-132306985D01*
X159712900Y-132255862D01*
X160207100Y-132255862D01*
X160222562Y-132407924D01*
X160283620Y-132602530D01*
X160283623Y-132602536D01*
X160283624Y-132602539D01*
X160334511Y-132694218D01*
X160382612Y-132780880D01*
X160382612Y-132780881D01*
X160451936Y-132861633D01*
X160515472Y-132935643D01*
X160676766Y-133060495D01*
X160859891Y-133150322D01*
X161057350Y-133201447D01*
X161261058Y-133211778D01*
X161462676Y-133180891D01*
X161653949Y-133110052D01*
X161827047Y-133002159D01*
X161974883Y-132861630D01*
X161992226Y-132836713D01*
X172987100Y-132836713D01*
X173002041Y-132931050D01*
X173002042Y-132931053D01*
X173002043Y-132931055D01*
X173059984Y-133044771D01*
X173059985Y-133044772D01*
X173059988Y-133044776D01*
X173150223Y-133135011D01*
X173150227Y-133135014D01*
X173150229Y-133135016D01*
X173263945Y-133192957D01*
X173263947Y-133192957D01*
X173263949Y-133192958D01*
X173358287Y-133207900D01*
X173358292Y-133207900D01*
X174621713Y-133207900D01*
X174716050Y-133192958D01*
X174716050Y-133192957D01*
X174716055Y-133192957D01*
X174829771Y-133135016D01*
X174920016Y-133044771D01*
X174977957Y-132931055D01*
X174977958Y-132931050D01*
X174992900Y-132836713D01*
X174992900Y-132255862D01*
X175487100Y-132255862D01*
X175502562Y-132407924D01*
X175563620Y-132602530D01*
X175563623Y-132602536D01*
X175563624Y-132602539D01*
X175614511Y-132694218D01*
X175662612Y-132780880D01*
X175662612Y-132780881D01*
X175731936Y-132861633D01*
X175795472Y-132935643D01*
X175956766Y-133060495D01*
X176139891Y-133150322D01*
X176337350Y-133201447D01*
X176541058Y-133211778D01*
X176742676Y-133180891D01*
X176933949Y-133110052D01*
X177107047Y-133002159D01*
X177254883Y-132861630D01*
X177371404Y-132694219D01*
X177451841Y-132506780D01*
X177492900Y-132306985D01*
X177492900Y-132255862D01*
X177987100Y-132255862D01*
X178002562Y-132407924D01*
X178063620Y-132602530D01*
X178063623Y-132602536D01*
X178063624Y-132602539D01*
X178114511Y-132694218D01*
X178162612Y-132780880D01*
X178162612Y-132780881D01*
X178231936Y-132861633D01*
X178295472Y-132935643D01*
X178456766Y-133060495D01*
X178639891Y-133150322D01*
X178837350Y-133201447D01*
X179041058Y-133211778D01*
X179242676Y-133180891D01*
X179433949Y-133110052D01*
X179607047Y-133002159D01*
X179754883Y-132861630D01*
X179871404Y-132694219D01*
X179951841Y-132506780D01*
X179992900Y-132306985D01*
X179992900Y-131904139D01*
X179977437Y-131752077D01*
X179977437Y-131752075D01*
X179916379Y-131557469D01*
X179916377Y-131557466D01*
X179916376Y-131557461D01*
X179817389Y-131379121D01*
X179817387Y-131379118D01*
X179684530Y-131224359D01*
X179684529Y-131224358D01*
X179684528Y-131224357D01*
X179523234Y-131099505D01*
X179340109Y-131009678D01*
X179340107Y-131009677D01*
X179337291Y-131008296D01*
X179285772Y-130961099D01*
X179267900Y-130896968D01*
X179267900Y-124901059D01*
X190638222Y-124901059D01*
X190669108Y-125102671D01*
X190669109Y-125102677D01*
X190714069Y-125224073D01*
X190739948Y-125293949D01*
X190847841Y-125467047D01*
X190847842Y-125467048D01*
X190847844Y-125467051D01*
X190988366Y-125614880D01*
X190988368Y-125614881D01*
X190988370Y-125614883D01*
X191155781Y-125731404D01*
X191343220Y-125811841D01*
X191543015Y-125852900D01*
X191945862Y-125852900D01*
X192097924Y-125837437D01*
X192292530Y-125776379D01*
X192292530Y-125776378D01*
X192292539Y-125776376D01*
X192470879Y-125677389D01*
X192625643Y-125544528D01*
X192750495Y-125383234D01*
X192840322Y-125200109D01*
X192891447Y-125002650D01*
X192901778Y-124798942D01*
X192870891Y-124597324D01*
X192800052Y-124406051D01*
X192692159Y-124232953D01*
X192692156Y-124232950D01*
X192692155Y-124232948D01*
X192551633Y-124085119D01*
X192551631Y-124085118D01*
X192510013Y-124056151D01*
X197019500Y-124056151D01*
X197034622Y-124224186D01*
X197034623Y-124224192D01*
X197094503Y-124441160D01*
X197094508Y-124441173D01*
X197192167Y-124643966D01*
X197192171Y-124643974D01*
X197324473Y-124826072D01*
X197324474Y-124826074D01*
X197487176Y-124981633D01*
X197675033Y-125105636D01*
X197882004Y-125194100D01*
X197882007Y-125194101D01*
X197882012Y-125194103D01*
X198101463Y-125244191D01*
X198326330Y-125254290D01*
X198549387Y-125224075D01*
X198763464Y-125154517D01*
X198961681Y-125047852D01*
X199137666Y-124907508D01*
X199285765Y-124737996D01*
X199401215Y-124544764D01*
X199480307Y-124334024D01*
X199520500Y-124112547D01*
X199520500Y-123143845D01*
X199505377Y-122975812D01*
X199475064Y-122865976D01*
X199445496Y-122758839D01*
X199445491Y-122758826D01*
X199347832Y-122556033D01*
X199347828Y-122556025D01*
X199215526Y-122373927D01*
X199215525Y-122373925D01*
X199052823Y-122218366D01*
X198864966Y-122094363D01*
X198657995Y-122005899D01*
X198657982Y-122005895D01*
X198438542Y-121955810D01*
X198438538Y-121955809D01*
X198438537Y-121955809D01*
X198438536Y-121955808D01*
X198438531Y-121955808D01*
X198213674Y-121945710D01*
X198213673Y-121945710D01*
X198213670Y-121945710D01*
X197990613Y-121975925D01*
X197990610Y-121975925D01*
X197990609Y-121975926D01*
X197776534Y-122045483D01*
X197578321Y-122152146D01*
X197578318Y-122152148D01*
X197402336Y-122292489D01*
X197331186Y-122373927D01*
X197254235Y-122462004D01*
X197229950Y-122502651D01*
X197138787Y-122655232D01*
X197138786Y-122655234D01*
X197059692Y-122865976D01*
X197019500Y-123087450D01*
X197019500Y-124056151D01*
X192510013Y-124056151D01*
X192384218Y-123968595D01*
X192196780Y-123888159D01*
X191996985Y-123847100D01*
X191594139Y-123847100D01*
X191594138Y-123847100D01*
X191442075Y-123862562D01*
X191247469Y-123923620D01*
X191247459Y-123923625D01*
X191069119Y-124022612D01*
X191069118Y-124022612D01*
X190914359Y-124155469D01*
X190789505Y-124316765D01*
X190699679Y-124499888D01*
X190699678Y-124499891D01*
X190688059Y-124544767D01*
X190648553Y-124697348D01*
X190638222Y-124901059D01*
X179267900Y-124901059D01*
X179267900Y-122401059D01*
X190638222Y-122401059D01*
X190669108Y-122602671D01*
X190669109Y-122602677D01*
X190726940Y-122758826D01*
X190739948Y-122793949D01*
X190847841Y-122967047D01*
X190847842Y-122967048D01*
X190847844Y-122967051D01*
X190988366Y-123114880D01*
X190988368Y-123114881D01*
X190988370Y-123114883D01*
X191155781Y-123231404D01*
X191343220Y-123311841D01*
X191543015Y-123352900D01*
X191945862Y-123352900D01*
X192097924Y-123337437D01*
X192292530Y-123276379D01*
X192292530Y-123276378D01*
X192292539Y-123276376D01*
X192470879Y-123177389D01*
X192625643Y-123044528D01*
X192750495Y-122883234D01*
X192840322Y-122700109D01*
X192891447Y-122502650D01*
X192901778Y-122298942D01*
X192870891Y-122097324D01*
X192800052Y-121906051D01*
X192692159Y-121732953D01*
X192692156Y-121732950D01*
X192692155Y-121732948D01*
X192551633Y-121585119D01*
X192551631Y-121585118D01*
X192384218Y-121468595D01*
X192196780Y-121388159D01*
X191996985Y-121347100D01*
X191594139Y-121347100D01*
X191594138Y-121347100D01*
X191442075Y-121362562D01*
X191247469Y-121423620D01*
X191247459Y-121423625D01*
X191069119Y-121522612D01*
X191069118Y-121522612D01*
X190914359Y-121655469D01*
X190789505Y-121816765D01*
X190711433Y-121975926D01*
X190699678Y-121999891D01*
X190687874Y-122045483D01*
X190648553Y-122197348D01*
X190638222Y-122401059D01*
X179267900Y-122401059D01*
X179267900Y-121277471D01*
X179287585Y-121210432D01*
X179304219Y-121189790D01*
X180592950Y-119901059D01*
X190638222Y-119901059D01*
X190669108Y-120102671D01*
X190669109Y-120102677D01*
X190739945Y-120293941D01*
X190739948Y-120293949D01*
X190847841Y-120467047D01*
X190847842Y-120467048D01*
X190847844Y-120467051D01*
X190988366Y-120614880D01*
X190988368Y-120614881D01*
X190988370Y-120614883D01*
X191155781Y-120731404D01*
X191343220Y-120811841D01*
X191543015Y-120852900D01*
X191945862Y-120852900D01*
X192097924Y-120837437D01*
X192292530Y-120776379D01*
X192292530Y-120776378D01*
X192292539Y-120776376D01*
X192470879Y-120677389D01*
X192625643Y-120544528D01*
X192750495Y-120383234D01*
X192840322Y-120200109D01*
X192891447Y-120002650D01*
X192901778Y-119798942D01*
X192870891Y-119597324D01*
X192800052Y-119406051D01*
X192692159Y-119232953D01*
X192692156Y-119232950D01*
X192692155Y-119232948D01*
X192551633Y-119085119D01*
X192551631Y-119085118D01*
X192384218Y-118968595D01*
X192196780Y-118888159D01*
X191996985Y-118847100D01*
X191594139Y-118847100D01*
X191594138Y-118847100D01*
X191442075Y-118862562D01*
X191247469Y-118923620D01*
X191247459Y-118923625D01*
X191069119Y-119022612D01*
X191069118Y-119022612D01*
X190914359Y-119155469D01*
X190789505Y-119316765D01*
X190699679Y-119499888D01*
X190648553Y-119697348D01*
X190638222Y-119901059D01*
X180592950Y-119901059D01*
X181646909Y-118847100D01*
X184563584Y-115930424D01*
X184570066Y-115924784D01*
X184578769Y-115918212D01*
X184578773Y-115918211D01*
X184608515Y-115885584D01*
X184610422Y-115883586D01*
X184623115Y-115870895D01*
X184624327Y-115869124D01*
X184629671Y-115862377D01*
X184648768Y-115841430D01*
X184650690Y-115836467D01*
X184664016Y-115811185D01*
X184667025Y-115806794D01*
X184673518Y-115779183D01*
X184676054Y-115770995D01*
X184686300Y-115744549D01*
X184686300Y-115739226D01*
X184689594Y-115710835D01*
X184690812Y-115705657D01*
X184686894Y-115677575D01*
X184686300Y-115669002D01*
X184686300Y-110351059D01*
X190638222Y-110351059D01*
X190669108Y-110552671D01*
X190669109Y-110552677D01*
X190714069Y-110674073D01*
X190739948Y-110743949D01*
X190847841Y-110917047D01*
X190847842Y-110917048D01*
X190847844Y-110917051D01*
X190988366Y-111064880D01*
X190988368Y-111064881D01*
X190988370Y-111064883D01*
X191155781Y-111181404D01*
X191343220Y-111261841D01*
X191543015Y-111302900D01*
X191945862Y-111302900D01*
X192097924Y-111287437D01*
X192292530Y-111226379D01*
X192292530Y-111226378D01*
X192292539Y-111226376D01*
X192470879Y-111127389D01*
X192625643Y-110994528D01*
X192750495Y-110833234D01*
X192840322Y-110650109D01*
X192891447Y-110452650D01*
X192901778Y-110248942D01*
X192870891Y-110047324D01*
X192800052Y-109856051D01*
X192692159Y-109682953D01*
X192692156Y-109682950D01*
X192692155Y-109682948D01*
X192551633Y-109535119D01*
X192551631Y-109535118D01*
X192547395Y-109532170D01*
X192510018Y-109506155D01*
X197019500Y-109506155D01*
X197022107Y-109535117D01*
X197034622Y-109674186D01*
X197034623Y-109674192D01*
X197094503Y-109891160D01*
X197094508Y-109891173D01*
X197192167Y-110093966D01*
X197192171Y-110093974D01*
X197324473Y-110276072D01*
X197324474Y-110276074D01*
X197324477Y-110276077D01*
X197324478Y-110276078D01*
X197443353Y-110389734D01*
X197487176Y-110431633D01*
X197675033Y-110555636D01*
X197882004Y-110644100D01*
X197882007Y-110644101D01*
X197882012Y-110644103D01*
X198101463Y-110694191D01*
X198326330Y-110704290D01*
X198549387Y-110674075D01*
X198763464Y-110604517D01*
X198961681Y-110497852D01*
X199137666Y-110357508D01*
X199285765Y-110187996D01*
X199401215Y-109994764D01*
X199480307Y-109784024D01*
X199504855Y-109648758D01*
X199520500Y-109562549D01*
X199520500Y-108593851D01*
X199520500Y-108593845D01*
X199505377Y-108425812D01*
X199475064Y-108315976D01*
X199445496Y-108208839D01*
X199445491Y-108208826D01*
X199347832Y-108006033D01*
X199347828Y-108006025D01*
X199215526Y-107823927D01*
X199215525Y-107823925D01*
X199052823Y-107668366D01*
X198864966Y-107544363D01*
X198657995Y-107455899D01*
X198657982Y-107455895D01*
X198438542Y-107405810D01*
X198438538Y-107405809D01*
X198438537Y-107405809D01*
X198438536Y-107405808D01*
X198438531Y-107405808D01*
X198213674Y-107395710D01*
X198213673Y-107395710D01*
X198213670Y-107395710D01*
X197990613Y-107425925D01*
X197990610Y-107425925D01*
X197990609Y-107425926D01*
X197776534Y-107495483D01*
X197578321Y-107602146D01*
X197578318Y-107602148D01*
X197402336Y-107742489D01*
X197331186Y-107823927D01*
X197254235Y-107912004D01*
X197229950Y-107952651D01*
X197138787Y-108105232D01*
X197138786Y-108105234D01*
X197059692Y-108315976D01*
X197019500Y-108537450D01*
X197019500Y-108537452D01*
X197019500Y-108537453D01*
X197019500Y-109506155D01*
X192510018Y-109506155D01*
X192384219Y-109418596D01*
X192384220Y-109418596D01*
X192384218Y-109418595D01*
X192196780Y-109338159D01*
X191996985Y-109297100D01*
X191594139Y-109297100D01*
X191594138Y-109297100D01*
X191442075Y-109312562D01*
X191247469Y-109373620D01*
X191247459Y-109373625D01*
X191069119Y-109472612D01*
X191069118Y-109472612D01*
X190914359Y-109605469D01*
X190789505Y-109766765D01*
X190699679Y-109949888D01*
X190699678Y-109949891D01*
X190688059Y-109994767D01*
X190648553Y-110147348D01*
X190638222Y-110351059D01*
X184686300Y-110351059D01*
X184686300Y-109128070D01*
X184705985Y-109061031D01*
X184722614Y-109040394D01*
X185911949Y-107851059D01*
X190638222Y-107851059D01*
X190669108Y-108052671D01*
X190669109Y-108052677D01*
X190726940Y-108208826D01*
X190739948Y-108243949D01*
X190847841Y-108417047D01*
X190847842Y-108417048D01*
X190847844Y-108417051D01*
X190988366Y-108564880D01*
X190988368Y-108564881D01*
X190988370Y-108564883D01*
X191155781Y-108681404D01*
X191343220Y-108761841D01*
X191543015Y-108802900D01*
X191945862Y-108802900D01*
X192097924Y-108787437D01*
X192292530Y-108726379D01*
X192292530Y-108726378D01*
X192292539Y-108726376D01*
X192470879Y-108627389D01*
X192625643Y-108494528D01*
X192750495Y-108333234D01*
X192840322Y-108150109D01*
X192891447Y-107952650D01*
X192901778Y-107748942D01*
X192870891Y-107547324D01*
X192800052Y-107356051D01*
X192692159Y-107182953D01*
X192692156Y-107182950D01*
X192692155Y-107182948D01*
X192551633Y-107035119D01*
X192551631Y-107035118D01*
X192542493Y-107028758D01*
X192461825Y-106972611D01*
X192384218Y-106918595D01*
X192196780Y-106838159D01*
X191996985Y-106797100D01*
X191594139Y-106797100D01*
X191594138Y-106797100D01*
X191442075Y-106812562D01*
X191247469Y-106873620D01*
X191247459Y-106873625D01*
X191069119Y-106972612D01*
X191069118Y-106972612D01*
X190914359Y-107105469D01*
X190789505Y-107266765D01*
X190711433Y-107425926D01*
X190699678Y-107449891D01*
X190687874Y-107495483D01*
X190648553Y-107647348D01*
X190638222Y-107851059D01*
X185911949Y-107851059D01*
X188411949Y-105351059D01*
X190638222Y-105351059D01*
X190669108Y-105552671D01*
X190669109Y-105552677D01*
X190739945Y-105743941D01*
X190739948Y-105743949D01*
X190847841Y-105917047D01*
X190847842Y-105917048D01*
X190847844Y-105917051D01*
X190988366Y-106064880D01*
X190988368Y-106064881D01*
X190988370Y-106064883D01*
X191155781Y-106181404D01*
X191343220Y-106261841D01*
X191543015Y-106302900D01*
X191945862Y-106302900D01*
X192097924Y-106287437D01*
X192292530Y-106226379D01*
X192292530Y-106226378D01*
X192292539Y-106226376D01*
X192470879Y-106127389D01*
X192625643Y-105994528D01*
X192750495Y-105833234D01*
X192840322Y-105650109D01*
X192891447Y-105452650D01*
X192901778Y-105248942D01*
X192870891Y-105047324D01*
X192800052Y-104856051D01*
X192692159Y-104682953D01*
X192692156Y-104682950D01*
X192692155Y-104682948D01*
X192551633Y-104535119D01*
X192551631Y-104535118D01*
X192384218Y-104418595D01*
X192196780Y-104338159D01*
X191996985Y-104297100D01*
X191594139Y-104297100D01*
X191594138Y-104297100D01*
X191442075Y-104312562D01*
X191247469Y-104373620D01*
X191247459Y-104373625D01*
X191069119Y-104472612D01*
X191069118Y-104472612D01*
X190914359Y-104605469D01*
X190789505Y-104766765D01*
X190699679Y-104949888D01*
X190648553Y-105147348D01*
X190638222Y-105351059D01*
X188411949Y-105351059D01*
X195735184Y-98027824D01*
X195741666Y-98022184D01*
X195750369Y-98015612D01*
X195750373Y-98015611D01*
X195780115Y-97982984D01*
X195782022Y-97980986D01*
X195794715Y-97968295D01*
X195795927Y-97966524D01*
X195801271Y-97959777D01*
X195820368Y-97938830D01*
X195822290Y-97933867D01*
X195835616Y-97908585D01*
X195838625Y-97904194D01*
X195845118Y-97876583D01*
X195847654Y-97868395D01*
X195857900Y-97841949D01*
X195857900Y-97836626D01*
X195861194Y-97808235D01*
X195862412Y-97803057D01*
X195858494Y-97774975D01*
X195857900Y-97766402D01*
X195857900Y-94956151D01*
X197019500Y-94956151D01*
X197034622Y-95124186D01*
X197034623Y-95124192D01*
X197094503Y-95341160D01*
X197094508Y-95341173D01*
X197192167Y-95543966D01*
X197192171Y-95543974D01*
X197324473Y-95726072D01*
X197324474Y-95726074D01*
X197487176Y-95881633D01*
X197675033Y-96005636D01*
X197882004Y-96094100D01*
X197882007Y-96094101D01*
X197882012Y-96094103D01*
X198101463Y-96144191D01*
X198326330Y-96154290D01*
X198549387Y-96124075D01*
X198763464Y-96054517D01*
X198961681Y-95947852D01*
X199137666Y-95807508D01*
X199285765Y-95637996D01*
X199401215Y-95444764D01*
X199480307Y-95234024D01*
X199520500Y-95012547D01*
X199520500Y-94043845D01*
X199505377Y-93875812D01*
X199459569Y-93709831D01*
X199445496Y-93658839D01*
X199445491Y-93658826D01*
X199438815Y-93644964D01*
X199384027Y-93531194D01*
X199347832Y-93456033D01*
X199347828Y-93456025D01*
X199215526Y-93273927D01*
X199215525Y-93273925D01*
X199052823Y-93118366D01*
X198864966Y-92994363D01*
X198657995Y-92905899D01*
X198657982Y-92905895D01*
X198438542Y-92855810D01*
X198438538Y-92855809D01*
X198438537Y-92855809D01*
X198438536Y-92855808D01*
X198438531Y-92855808D01*
X198213674Y-92845710D01*
X198213673Y-92845710D01*
X198213670Y-92845710D01*
X197990613Y-92875925D01*
X197990610Y-92875925D01*
X197990609Y-92875926D01*
X197776534Y-92945483D01*
X197578321Y-93052146D01*
X197578318Y-93052148D01*
X197402336Y-93192489D01*
X197331186Y-93273927D01*
X197254235Y-93362004D01*
X197202615Y-93448402D01*
X197152422Y-93532412D01*
X197138785Y-93555236D01*
X197127167Y-93586193D01*
X197059692Y-93765976D01*
X197019500Y-93987450D01*
X197019500Y-94956151D01*
X195857900Y-94956151D01*
X195857900Y-91498442D01*
X195858495Y-91489866D01*
X195860001Y-91479064D01*
X195860003Y-91479059D01*
X195857966Y-91435000D01*
X195857900Y-91432137D01*
X195857900Y-91414249D01*
X195857900Y-91414247D01*
X195857503Y-91412128D01*
X195856513Y-91403590D01*
X195855204Y-91375273D01*
X195853052Y-91370401D01*
X195844600Y-91343104D01*
X195843623Y-91337872D01*
X195828688Y-91313752D01*
X195824694Y-91306176D01*
X195813238Y-91280228D01*
X195809474Y-91276464D01*
X195791728Y-91254060D01*
X195788928Y-91249537D01*
X195766298Y-91232448D01*
X195759816Y-91226806D01*
X185784069Y-81251059D01*
X190638222Y-81251059D01*
X190669108Y-81452671D01*
X190669109Y-81452677D01*
X190714069Y-81574073D01*
X190739948Y-81643949D01*
X190847841Y-81817047D01*
X190847842Y-81817048D01*
X190847844Y-81817051D01*
X190988366Y-81964880D01*
X190988368Y-81964881D01*
X190988370Y-81964883D01*
X191155781Y-82081404D01*
X191343220Y-82161841D01*
X191543015Y-82202900D01*
X191945862Y-82202900D01*
X192097924Y-82187437D01*
X192292530Y-82126379D01*
X192292530Y-82126378D01*
X192292539Y-82126376D01*
X192470879Y-82027389D01*
X192625643Y-81894528D01*
X192750495Y-81733234D01*
X192840322Y-81550109D01*
X192891447Y-81352650D01*
X192901778Y-81148942D01*
X192870891Y-80947324D01*
X192800052Y-80756051D01*
X192692159Y-80582953D01*
X192692156Y-80582950D01*
X192692155Y-80582948D01*
X192551633Y-80435119D01*
X192551631Y-80435118D01*
X192551046Y-80434711D01*
X192510018Y-80406155D01*
X197019500Y-80406155D01*
X197022476Y-80439220D01*
X197034622Y-80574186D01*
X197034623Y-80574192D01*
X197094503Y-80791160D01*
X197094508Y-80791173D01*
X197192167Y-80993966D01*
X197192171Y-80993974D01*
X197324473Y-81176072D01*
X197324474Y-81176074D01*
X197324477Y-81176077D01*
X197324478Y-81176078D01*
X197396355Y-81244799D01*
X197487176Y-81331633D01*
X197675033Y-81455636D01*
X197882004Y-81544100D01*
X197882007Y-81544101D01*
X197882012Y-81544103D01*
X198101463Y-81594191D01*
X198326330Y-81604290D01*
X198549387Y-81574075D01*
X198763464Y-81504517D01*
X198961681Y-81397852D01*
X199137666Y-81257508D01*
X199285765Y-81087996D01*
X199401215Y-80894764D01*
X199480307Y-80684024D01*
X199500240Y-80574186D01*
X199520500Y-80462549D01*
X199520500Y-79493851D01*
X199520500Y-79493845D01*
X199505377Y-79325812D01*
X199475064Y-79215976D01*
X199445496Y-79108839D01*
X199445491Y-79108826D01*
X199347832Y-78906033D01*
X199347828Y-78906025D01*
X199215526Y-78723927D01*
X199215525Y-78723925D01*
X199052823Y-78568366D01*
X198864966Y-78444363D01*
X198657995Y-78355899D01*
X198657982Y-78355895D01*
X198438542Y-78305810D01*
X198438538Y-78305809D01*
X198438537Y-78305809D01*
X198438536Y-78305808D01*
X198438531Y-78305808D01*
X198213674Y-78295710D01*
X198213673Y-78295710D01*
X198213670Y-78295710D01*
X197990613Y-78325925D01*
X197990610Y-78325925D01*
X197990609Y-78325926D01*
X197776534Y-78395483D01*
X197578321Y-78502146D01*
X197578318Y-78502148D01*
X197402336Y-78642489D01*
X197331186Y-78723927D01*
X197254235Y-78812004D01*
X197229950Y-78852651D01*
X197138787Y-79005232D01*
X197138786Y-79005234D01*
X197059692Y-79215976D01*
X197019500Y-79437450D01*
X197019500Y-79437452D01*
X197019500Y-79437453D01*
X197019500Y-80406155D01*
X192510018Y-80406155D01*
X192384219Y-80318596D01*
X192384220Y-80318596D01*
X192384218Y-80318595D01*
X192196780Y-80238159D01*
X191996985Y-80197100D01*
X191594139Y-80197100D01*
X191594138Y-80197100D01*
X191442075Y-80212562D01*
X191247469Y-80273620D01*
X191247459Y-80273625D01*
X191069119Y-80372612D01*
X191069118Y-80372612D01*
X190914359Y-80505469D01*
X190789505Y-80666765D01*
X190724800Y-80798676D01*
X190699678Y-80849891D01*
X190688059Y-80894767D01*
X190648553Y-81047348D01*
X190638222Y-81251059D01*
X185784069Y-81251059D01*
X183284069Y-78751059D01*
X190638222Y-78751059D01*
X190669108Y-78952671D01*
X190669109Y-78952677D01*
X190726940Y-79108826D01*
X190739948Y-79143949D01*
X190847841Y-79317047D01*
X190847842Y-79317048D01*
X190847844Y-79317051D01*
X190988366Y-79464880D01*
X190988368Y-79464881D01*
X190988370Y-79464883D01*
X191155781Y-79581404D01*
X191343220Y-79661841D01*
X191543015Y-79702900D01*
X191945862Y-79702900D01*
X192097924Y-79687437D01*
X192292530Y-79626379D01*
X192292530Y-79626378D01*
X192292539Y-79626376D01*
X192470879Y-79527389D01*
X192625643Y-79394528D01*
X192750495Y-79233234D01*
X192840322Y-79050109D01*
X192891447Y-78852650D01*
X192901778Y-78648942D01*
X192870891Y-78447324D01*
X192800052Y-78256051D01*
X192692159Y-78082953D01*
X192692156Y-78082950D01*
X192692155Y-78082948D01*
X192551633Y-77935119D01*
X192551631Y-77935118D01*
X192384218Y-77818595D01*
X192196780Y-77738159D01*
X191996985Y-77697100D01*
X191594139Y-77697100D01*
X191594138Y-77697100D01*
X191442075Y-77712562D01*
X191247469Y-77773620D01*
X191247459Y-77773625D01*
X191069119Y-77872612D01*
X191069118Y-77872612D01*
X190914359Y-78005469D01*
X190789505Y-78166765D01*
X190711433Y-78325926D01*
X190699678Y-78349891D01*
X190688204Y-78394208D01*
X190648553Y-78547348D01*
X190638222Y-78751059D01*
X183284069Y-78751059D01*
X181847831Y-77314821D01*
X181842187Y-77308335D01*
X181835610Y-77299626D01*
X181803018Y-77269914D01*
X181800946Y-77267936D01*
X181788293Y-77255283D01*
X181786512Y-77254063D01*
X181779777Y-77248727D01*
X181758830Y-77229632D01*
X181753862Y-77227707D01*
X181728588Y-77214385D01*
X181724194Y-77211375D01*
X181724193Y-77211374D01*
X181724192Y-77211374D01*
X181696591Y-77204881D01*
X181688383Y-77202339D01*
X181661950Y-77192100D01*
X181661949Y-77192100D01*
X181656626Y-77192100D01*
X181628236Y-77188806D01*
X181623057Y-77187588D01*
X181594975Y-77191505D01*
X181586402Y-77192100D01*
X179231100Y-77192100D01*
X179164061Y-77172415D01*
X179137387Y-77149302D01*
X179115637Y-77124201D01*
X179063764Y-77090865D01*
X179006076Y-77053792D01*
X178922770Y-77029330D01*
X178881118Y-77017100D01*
X178881117Y-77017100D01*
X178750883Y-77017100D01*
X178750882Y-77017100D01*
X178688403Y-77035446D01*
X178625924Y-77053792D01*
X178625920Y-77053794D01*
X178625921Y-77053794D01*
X178516366Y-77124198D01*
X178516366Y-77124199D01*
X178516364Y-77124200D01*
X178516364Y-77124201D01*
X178514477Y-77126379D01*
X178431079Y-77222625D01*
X178431078Y-77222627D01*
X178376976Y-77341091D01*
X178358443Y-77469999D01*
X178376976Y-77598908D01*
X178392180Y-77632199D01*
X178431079Y-77717374D01*
X178516364Y-77815799D01*
X178516366Y-77815800D01*
X178516366Y-77815801D01*
X178560188Y-77843962D01*
X178625924Y-77886208D01*
X178727765Y-77916112D01*
X178750882Y-77922900D01*
X178750883Y-77922900D01*
X178881118Y-77922900D01*
X178900625Y-77917171D01*
X179006076Y-77886208D01*
X179115636Y-77815799D01*
X179115637Y-77815798D01*
X179137387Y-77790698D01*
X179196164Y-77752923D01*
X179231100Y-77747900D01*
X181443529Y-77747900D01*
X181510568Y-77767585D01*
X181531210Y-77784219D01*
X195265781Y-91518790D01*
X195299266Y-91580113D01*
X195302100Y-91606471D01*
X195302100Y-97623527D01*
X195282415Y-97690566D01*
X195265781Y-97711208D01*
X184253221Y-108723768D01*
X184246741Y-108729407D01*
X184238028Y-108735987D01*
X184208304Y-108768591D01*
X184206330Y-108770658D01*
X184193682Y-108783308D01*
X184193679Y-108783310D01*
X184192455Y-108785098D01*
X184187129Y-108791819D01*
X184168031Y-108812770D01*
X184166105Y-108817742D01*
X184152791Y-108843002D01*
X184149776Y-108847404D01*
X184149774Y-108847408D01*
X184143282Y-108875006D01*
X184140741Y-108883213D01*
X184130500Y-108909650D01*
X184130500Y-108914972D01*
X184127207Y-108943357D01*
X184125988Y-108948537D01*
X184125988Y-108948543D01*
X184129905Y-108976621D01*
X184130500Y-108985197D01*
X184130500Y-115526127D01*
X184110815Y-115593166D01*
X184094181Y-115613808D01*
X178834821Y-120873168D01*
X178828341Y-120878807D01*
X178819628Y-120885387D01*
X178789904Y-120917991D01*
X178787930Y-120920058D01*
X178775282Y-120932708D01*
X178775279Y-120932710D01*
X178774055Y-120934498D01*
X178768729Y-120941219D01*
X178749631Y-120962170D01*
X178747705Y-120967142D01*
X178734391Y-120992402D01*
X178731376Y-120996804D01*
X178731374Y-120996808D01*
X178724882Y-121024406D01*
X178722341Y-121032613D01*
X178712100Y-121059050D01*
X178712100Y-121064372D01*
X178708807Y-121092757D01*
X178707588Y-121097937D01*
X178707588Y-121097943D01*
X178711505Y-121126021D01*
X178712100Y-121134597D01*
X178712100Y-130902143D01*
X178692415Y-130969182D01*
X178639611Y-131014937D01*
X178631167Y-131018424D01*
X178546052Y-131049947D01*
X178546051Y-131049948D01*
X178372948Y-131157844D01*
X178225119Y-131298366D01*
X178225118Y-131298368D01*
X178108595Y-131465781D01*
X178028159Y-131653219D01*
X177987100Y-131853014D01*
X177987100Y-132255862D01*
X177492900Y-132255862D01*
X177492900Y-131904139D01*
X177477437Y-131752077D01*
X177477437Y-131752075D01*
X177416379Y-131557469D01*
X177416377Y-131557466D01*
X177416376Y-131557461D01*
X177317389Y-131379121D01*
X177317387Y-131379118D01*
X177184530Y-131224359D01*
X177184529Y-131224358D01*
X177184528Y-131224357D01*
X177023234Y-131099505D01*
X176840109Y-131009678D01*
X176642650Y-130958553D01*
X176642652Y-130958553D01*
X176506844Y-130951665D01*
X176438942Y-130948222D01*
X176438941Y-130948222D01*
X176438939Y-130948222D01*
X176237328Y-130979108D01*
X176237322Y-130979109D01*
X176046058Y-131049945D01*
X176046051Y-131049948D01*
X175872948Y-131157844D01*
X175725119Y-131298366D01*
X175725118Y-131298368D01*
X175608595Y-131465781D01*
X175528159Y-131653219D01*
X175487100Y-131853014D01*
X175487100Y-132255862D01*
X174992900Y-132255862D01*
X174992900Y-131323286D01*
X174977958Y-131228949D01*
X174977957Y-131228947D01*
X174977957Y-131228945D01*
X174920016Y-131115229D01*
X174920014Y-131115227D01*
X174920011Y-131115223D01*
X174829776Y-131024988D01*
X174829772Y-131024985D01*
X174829771Y-131024984D01*
X174716055Y-130967043D01*
X174716053Y-130967042D01*
X174716050Y-130967041D01*
X174621713Y-130952100D01*
X174621708Y-130952100D01*
X173358292Y-130952100D01*
X173358287Y-130952100D01*
X173263949Y-130967041D01*
X173150227Y-131024985D01*
X173150223Y-131024988D01*
X173059988Y-131115223D01*
X173059985Y-131115227D01*
X173002041Y-131228949D01*
X172987100Y-131323286D01*
X172987100Y-132836713D01*
X161992226Y-132836713D01*
X162091404Y-132694219D01*
X162171841Y-132506780D01*
X162212900Y-132306985D01*
X162212900Y-131904139D01*
X162197437Y-131752077D01*
X162197437Y-131752075D01*
X162136379Y-131557469D01*
X162136377Y-131557466D01*
X162136376Y-131557461D01*
X162037389Y-131379121D01*
X162037387Y-131379118D01*
X161904530Y-131224359D01*
X161904529Y-131224358D01*
X161904528Y-131224357D01*
X161743234Y-131099505D01*
X161560109Y-131009678D01*
X161362650Y-130958553D01*
X161362652Y-130958553D01*
X161226844Y-130951665D01*
X161158942Y-130948222D01*
X161158941Y-130948222D01*
X161158939Y-130948222D01*
X160957328Y-130979108D01*
X160957322Y-130979109D01*
X160766058Y-131049945D01*
X160766051Y-131049948D01*
X160592948Y-131157844D01*
X160445119Y-131298366D01*
X160445118Y-131298368D01*
X160328595Y-131465781D01*
X160248159Y-131653219D01*
X160207100Y-131853014D01*
X160207100Y-132255862D01*
X159712900Y-132255862D01*
X159712900Y-131904139D01*
X159697437Y-131752077D01*
X159697437Y-131752075D01*
X159636379Y-131557469D01*
X159636377Y-131557466D01*
X159636376Y-131557461D01*
X159537389Y-131379121D01*
X159537387Y-131379118D01*
X159404530Y-131224359D01*
X159404529Y-131224358D01*
X159404528Y-131224357D01*
X159243234Y-131099505D01*
X159060109Y-131009678D01*
X158862650Y-130958553D01*
X158862652Y-130958553D01*
X158726844Y-130951665D01*
X158658942Y-130948222D01*
X158658941Y-130948222D01*
X158658939Y-130948222D01*
X158457328Y-130979108D01*
X158457322Y-130979109D01*
X158266058Y-131049945D01*
X158266051Y-131049948D01*
X158092948Y-131157844D01*
X157945119Y-131298366D01*
X157945118Y-131298368D01*
X157828595Y-131465781D01*
X157748159Y-131653219D01*
X157707100Y-131853014D01*
X157707100Y-132255862D01*
X157212900Y-132255862D01*
X157212900Y-131323286D01*
X157197958Y-131228949D01*
X157197957Y-131228947D01*
X157197957Y-131228945D01*
X157140016Y-131115229D01*
X157140014Y-131115227D01*
X157140011Y-131115223D01*
X157049776Y-131024988D01*
X157049772Y-131024985D01*
X157049771Y-131024984D01*
X156936055Y-130967043D01*
X156936053Y-130967042D01*
X156936050Y-130967041D01*
X156841713Y-130952100D01*
X156841708Y-130952100D01*
X156611900Y-130952100D01*
X156544861Y-130932415D01*
X156499106Y-130879611D01*
X156487900Y-130828100D01*
X156487900Y-112053471D01*
X156507585Y-111986432D01*
X156524219Y-111965790D01*
X166718291Y-101771719D01*
X166779614Y-101738234D01*
X166805972Y-101735400D01*
X166879618Y-101735400D01*
X166899125Y-101729671D01*
X167004576Y-101698708D01*
X167114136Y-101628299D01*
X167199421Y-101529874D01*
X167253523Y-101411409D01*
X167272057Y-101282500D01*
X167253523Y-101153591D01*
X167199421Y-101035126D01*
X167114136Y-100936701D01*
X167114133Y-100936699D01*
X167114133Y-100936698D01*
X167048400Y-100894455D01*
X167004576Y-100866292D01*
X166921270Y-100841830D01*
X166879618Y-100829600D01*
X166879617Y-100829600D01*
X166749383Y-100829600D01*
X166749382Y-100829600D01*
X166686903Y-100847945D01*
X166624424Y-100866292D01*
X166624420Y-100866294D01*
X166624421Y-100866294D01*
X166514866Y-100936698D01*
X166514866Y-100936699D01*
X166429579Y-101035125D01*
X166429578Y-101035127D01*
X166375476Y-101153591D01*
X166356943Y-101282500D01*
X166356943Y-101291367D01*
X166354232Y-101291367D01*
X166346271Y-101346671D01*
X166321166Y-101382822D01*
X156054821Y-111649168D01*
X156048341Y-111654807D01*
X156039628Y-111661387D01*
X156009904Y-111693991D01*
X156007930Y-111696058D01*
X155995282Y-111708708D01*
X155995279Y-111708710D01*
X155994055Y-111710498D01*
X155988729Y-111717219D01*
X155969631Y-111738170D01*
X155967705Y-111743142D01*
X155954391Y-111768402D01*
X155951376Y-111772804D01*
X155951374Y-111772808D01*
X155944882Y-111800406D01*
X155942341Y-111808613D01*
X155932100Y-111835050D01*
X155932100Y-111840372D01*
X155928807Y-111868757D01*
X155927588Y-111873937D01*
X155927588Y-111873943D01*
X155931505Y-111902021D01*
X155932100Y-111910597D01*
X155932100Y-130828100D01*
X155912415Y-130895139D01*
X155859611Y-130940894D01*
X155808100Y-130952100D01*
X155578287Y-130952100D01*
X155483949Y-130967041D01*
X155370227Y-131024985D01*
X155370223Y-131024988D01*
X155279988Y-131115223D01*
X155279985Y-131115227D01*
X155222041Y-131228949D01*
X155207100Y-131323286D01*
X155207100Y-132836713D01*
X144212226Y-132836713D01*
X144311404Y-132694219D01*
X144391841Y-132506780D01*
X144432900Y-132306985D01*
X144432900Y-131904139D01*
X144417437Y-131752077D01*
X144417437Y-131752075D01*
X144356379Y-131557469D01*
X144356377Y-131557466D01*
X144356376Y-131557461D01*
X144257389Y-131379121D01*
X144257387Y-131379118D01*
X144124530Y-131224359D01*
X144124529Y-131224358D01*
X144124528Y-131224357D01*
X143963234Y-131099505D01*
X143780109Y-131009678D01*
X143780107Y-131009677D01*
X143777291Y-131008296D01*
X143725772Y-130961099D01*
X143707900Y-130896968D01*
X143707900Y-111879471D01*
X143727585Y-111812432D01*
X143744219Y-111791790D01*
X145112791Y-110423219D01*
X145174114Y-110389734D01*
X145200472Y-110386900D01*
X153103557Y-110386900D01*
X153112133Y-110387495D01*
X153122936Y-110389001D01*
X153122941Y-110389003D01*
X153162392Y-110387179D01*
X153167006Y-110386966D01*
X153169869Y-110386900D01*
X153187745Y-110386900D01*
X153187753Y-110386900D01*
X153189864Y-110386505D01*
X153198389Y-110385514D01*
X153226727Y-110384205D01*
X153231587Y-110382058D01*
X153258903Y-110373599D01*
X153264128Y-110372623D01*
X153288236Y-110357694D01*
X153295828Y-110353692D01*
X153321771Y-110342238D01*
X153325531Y-110338477D01*
X153347939Y-110320728D01*
X153352463Y-110317928D01*
X153369560Y-110295286D01*
X153375189Y-110288818D01*
X167862949Y-95801059D01*
X190638222Y-95801059D01*
X190669108Y-96002671D01*
X190669109Y-96002677D01*
X190714069Y-96124073D01*
X190739948Y-96193949D01*
X190847841Y-96367047D01*
X190847842Y-96367048D01*
X190847844Y-96367051D01*
X190988366Y-96514880D01*
X190988368Y-96514881D01*
X190988370Y-96514883D01*
X191155781Y-96631404D01*
X191343220Y-96711841D01*
X191543015Y-96752900D01*
X191945862Y-96752900D01*
X192097924Y-96737437D01*
X192292530Y-96676379D01*
X192292530Y-96676378D01*
X192292539Y-96676376D01*
X192470879Y-96577389D01*
X192625643Y-96444528D01*
X192750495Y-96283234D01*
X192840322Y-96100109D01*
X192891447Y-95902650D01*
X192901778Y-95698942D01*
X192870891Y-95497324D01*
X192800052Y-95306051D01*
X192692159Y-95132953D01*
X192692156Y-95132950D01*
X192692155Y-95132948D01*
X192551633Y-94985119D01*
X192551631Y-94985118D01*
X192384218Y-94868595D01*
X192196780Y-94788159D01*
X191996985Y-94747100D01*
X191594139Y-94747100D01*
X191594138Y-94747100D01*
X191442075Y-94762562D01*
X191247469Y-94823620D01*
X191247459Y-94823625D01*
X191069119Y-94922612D01*
X191069118Y-94922612D01*
X190914359Y-95055469D01*
X190789505Y-95216765D01*
X190699679Y-95399888D01*
X190699678Y-95399891D01*
X190688059Y-95444767D01*
X190648553Y-95597348D01*
X190638222Y-95801059D01*
X167862949Y-95801059D01*
X169954184Y-93709824D01*
X169960666Y-93704184D01*
X169969369Y-93697612D01*
X169969373Y-93697611D01*
X169999115Y-93664984D01*
X170001022Y-93662986D01*
X170013715Y-93650295D01*
X170014927Y-93648524D01*
X170020271Y-93641777D01*
X170039368Y-93620830D01*
X170041290Y-93615867D01*
X170054616Y-93590585D01*
X170057625Y-93586194D01*
X170064118Y-93558583D01*
X170066654Y-93550395D01*
X170076900Y-93523949D01*
X170076900Y-93518624D01*
X170080194Y-93490234D01*
X170081412Y-93485057D01*
X170077494Y-93456975D01*
X170076900Y-93448402D01*
X170076900Y-89616271D01*
X170096585Y-89549232D01*
X170149389Y-89503477D01*
X170218547Y-89493533D01*
X170282103Y-89522558D01*
X170288580Y-89528589D01*
X174165175Y-93405185D01*
X174170812Y-93411664D01*
X174177389Y-93420373D01*
X174209991Y-93450094D01*
X174212052Y-93452062D01*
X174224705Y-93464715D01*
X174224708Y-93464717D01*
X174226483Y-93465933D01*
X174233221Y-93471271D01*
X174248342Y-93485055D01*
X174254170Y-93490368D01*
X174254174Y-93490369D01*
X174254173Y-93490369D01*
X174259130Y-93492290D01*
X174284411Y-93505614D01*
X174288806Y-93508625D01*
X174316416Y-93515118D01*
X174324603Y-93517654D01*
X174351051Y-93527900D01*
X174356375Y-93527900D01*
X174384764Y-93531193D01*
X174389944Y-93532412D01*
X174418025Y-93528494D01*
X174426599Y-93527900D01*
X190592144Y-93527900D01*
X190659183Y-93547585D01*
X190704938Y-93600389D01*
X190708425Y-93608834D01*
X190726945Y-93658839D01*
X190739948Y-93693949D01*
X190847841Y-93867047D01*
X190847842Y-93867048D01*
X190847844Y-93867051D01*
X190988366Y-94014880D01*
X190988368Y-94014881D01*
X190988370Y-94014883D01*
X191155781Y-94131404D01*
X191343220Y-94211841D01*
X191543015Y-94252900D01*
X191945862Y-94252900D01*
X192097924Y-94237437D01*
X192292530Y-94176379D01*
X192292530Y-94176378D01*
X192292539Y-94176376D01*
X192470879Y-94077389D01*
X192625643Y-93944528D01*
X192750495Y-93783234D01*
X192840322Y-93600109D01*
X192891447Y-93402650D01*
X192901778Y-93198942D01*
X192870891Y-92997324D01*
X192800052Y-92806051D01*
X192692159Y-92632953D01*
X192692156Y-92632950D01*
X192692155Y-92632948D01*
X192551633Y-92485119D01*
X192551631Y-92485118D01*
X192384218Y-92368595D01*
X192196780Y-92288159D01*
X191996985Y-92247100D01*
X191594139Y-92247100D01*
X191594138Y-92247100D01*
X191442075Y-92262562D01*
X191247469Y-92323620D01*
X191247459Y-92323625D01*
X191069119Y-92422612D01*
X191069118Y-92422612D01*
X190914359Y-92555469D01*
X190789505Y-92716765D01*
X190789505Y-92716766D01*
X190711434Y-92875926D01*
X190698296Y-92902709D01*
X190651099Y-92954228D01*
X190586968Y-92972100D01*
X174569472Y-92972100D01*
X174502433Y-92952415D01*
X174481791Y-92935781D01*
X170748219Y-89202209D01*
X170714734Y-89140886D01*
X170711900Y-89114528D01*
X170711900Y-88854271D01*
X170731585Y-88787232D01*
X170784389Y-88741477D01*
X170853547Y-88731533D01*
X170917103Y-88760558D01*
X170923579Y-88766588D01*
X173062175Y-90905185D01*
X173067812Y-90911664D01*
X173074389Y-90920373D01*
X173106991Y-90950094D01*
X173109052Y-90952062D01*
X173121705Y-90964715D01*
X173121708Y-90964717D01*
X173123483Y-90965933D01*
X173130221Y-90971271D01*
X173148365Y-90987811D01*
X173151170Y-90990368D01*
X173151174Y-90990369D01*
X173151173Y-90990369D01*
X173156130Y-90992290D01*
X173181411Y-91005614D01*
X173185806Y-91008625D01*
X173213416Y-91015118D01*
X173221603Y-91017654D01*
X173248051Y-91027900D01*
X173253375Y-91027900D01*
X173281764Y-91031193D01*
X173286944Y-91032412D01*
X173315025Y-91028494D01*
X173323599Y-91027900D01*
X190592144Y-91027900D01*
X190659183Y-91047585D01*
X190704938Y-91100389D01*
X190708425Y-91108834D01*
X190739948Y-91193949D01*
X190847841Y-91367047D01*
X190847842Y-91367048D01*
X190847844Y-91367051D01*
X190988366Y-91514880D01*
X190988368Y-91514881D01*
X190988370Y-91514883D01*
X191155781Y-91631404D01*
X191343220Y-91711841D01*
X191543015Y-91752900D01*
X191945862Y-91752900D01*
X192097924Y-91737437D01*
X192292530Y-91676379D01*
X192292530Y-91676378D01*
X192292539Y-91676376D01*
X192470879Y-91577389D01*
X192625643Y-91444528D01*
X192750495Y-91283234D01*
X192840322Y-91100109D01*
X192891447Y-90902650D01*
X192901778Y-90698942D01*
X192870891Y-90497324D01*
X192800052Y-90306051D01*
X192692159Y-90132953D01*
X192692156Y-90132950D01*
X192692155Y-90132948D01*
X192551633Y-89985119D01*
X192551631Y-89985118D01*
X192384218Y-89868595D01*
X192196780Y-89788159D01*
X191996985Y-89747100D01*
X191594139Y-89747100D01*
X191594138Y-89747100D01*
X191442075Y-89762562D01*
X191247469Y-89823620D01*
X191247459Y-89823625D01*
X191069119Y-89922612D01*
X191069118Y-89922612D01*
X190914359Y-90055469D01*
X190789505Y-90216765D01*
X190745709Y-90306051D01*
X190703568Y-90391962D01*
X190698296Y-90402709D01*
X190651099Y-90454228D01*
X190586968Y-90472100D01*
X173466472Y-90472100D01*
X173399433Y-90452415D01*
X173378791Y-90435781D01*
X171294957Y-88351947D01*
X171261472Y-88290624D01*
X171266456Y-88220932D01*
X171281587Y-88194809D01*
X171280465Y-88194041D01*
X171284924Y-88187529D01*
X171290271Y-88180777D01*
X171309368Y-88159830D01*
X171311290Y-88154867D01*
X171324616Y-88129585D01*
X171327625Y-88125194D01*
X171334118Y-88097583D01*
X171336654Y-88089395D01*
X171346900Y-88062949D01*
X171346900Y-88057624D01*
X171350194Y-88029234D01*
X171351412Y-88024057D01*
X171347494Y-87995975D01*
X171346900Y-87987402D01*
X171346900Y-85380133D01*
X171366585Y-85313094D01*
X171377187Y-85298930D01*
X171453921Y-85210374D01*
X171508023Y-85091909D01*
X171526557Y-84963000D01*
X171508023Y-84834091D01*
X171453921Y-84715626D01*
X171368636Y-84617201D01*
X171368633Y-84617199D01*
X171368633Y-84617198D01*
X171302900Y-84574955D01*
X171259076Y-84546792D01*
X171175770Y-84522330D01*
X171134118Y-84510100D01*
X171134117Y-84510100D01*
X171003883Y-84510100D01*
X171003882Y-84510100D01*
X170941403Y-84528445D01*
X170878924Y-84546792D01*
X170878920Y-84546794D01*
X170878921Y-84546794D01*
X170769366Y-84617198D01*
X170769366Y-84617199D01*
X170684079Y-84715625D01*
X170684078Y-84715627D01*
X170629976Y-84834091D01*
X170611443Y-84962999D01*
X170629976Y-85091908D01*
X170632910Y-85098331D01*
X170642854Y-85167489D01*
X170613829Y-85231045D01*
X170555051Y-85268820D01*
X170502479Y-85272582D01*
X170499125Y-85272100D01*
X170499117Y-85272100D01*
X170368883Y-85272100D01*
X170368880Y-85272100D01*
X170365518Y-85272583D01*
X170362161Y-85272100D01*
X170360014Y-85272100D01*
X170360014Y-85271791D01*
X170296361Y-85262632D01*
X170243561Y-85216873D01*
X170223883Y-85149831D01*
X170235090Y-85098329D01*
X170238023Y-85091909D01*
X170256557Y-84963000D01*
X170238023Y-84834091D01*
X170183921Y-84715626D01*
X170098636Y-84617201D01*
X170098633Y-84617199D01*
X170098633Y-84617198D01*
X170032899Y-84574955D01*
X169989076Y-84546792D01*
X169905770Y-84522330D01*
X169864118Y-84510100D01*
X169864117Y-84510100D01*
X169733883Y-84510100D01*
X169733882Y-84510100D01*
X169671403Y-84528445D01*
X169608924Y-84546792D01*
X169608920Y-84546794D01*
X169608921Y-84546794D01*
X169499366Y-84617198D01*
X169499366Y-84617199D01*
X169499364Y-84617200D01*
X169499364Y-84617201D01*
X169429439Y-84697900D01*
X169408271Y-84722329D01*
X169406458Y-84720758D01*
X169363400Y-84758061D01*
X169294240Y-84767997D01*
X169230688Y-84738966D01*
X169192919Y-84680184D01*
X169187900Y-84645261D01*
X169187900Y-82585781D01*
X169187900Y-79922467D01*
X169207584Y-79855432D01*
X169224213Y-79834795D01*
X171081010Y-77977999D01*
X175310443Y-77977999D01*
X175328976Y-78106908D01*
X175356313Y-78166766D01*
X175383079Y-78225374D01*
X175468364Y-78323799D01*
X175468366Y-78323800D01*
X175468366Y-78323801D01*
X175577926Y-78394209D01*
X175669694Y-78421154D01*
X175722441Y-78452450D01*
X178068666Y-80798676D01*
X178102151Y-80859999D01*
X178103231Y-80890133D01*
X178104443Y-80890133D01*
X178104443Y-80898999D01*
X178122976Y-81027908D01*
X178177078Y-81146372D01*
X178177079Y-81146374D01*
X178262364Y-81244799D01*
X178262366Y-81244800D01*
X178262366Y-81244801D01*
X178306187Y-81272962D01*
X178371924Y-81315208D01*
X178473765Y-81345112D01*
X178496882Y-81351900D01*
X178496883Y-81351900D01*
X178627118Y-81351900D01*
X178646625Y-81346171D01*
X178752076Y-81315208D01*
X178861636Y-81244799D01*
X178946921Y-81146374D01*
X179001023Y-81027909D01*
X179019557Y-80899000D01*
X179001023Y-80770091D01*
X178946921Y-80651626D01*
X178861636Y-80553201D01*
X178861633Y-80553199D01*
X178861633Y-80553198D01*
X178787367Y-80505472D01*
X178752076Y-80482792D01*
X178668770Y-80458330D01*
X178627118Y-80446100D01*
X178627117Y-80446100D01*
X178553472Y-80446100D01*
X178486433Y-80426415D01*
X178465791Y-80409781D01*
X176245369Y-78189359D01*
X176211884Y-78128036D01*
X176210312Y-78084031D01*
X176210468Y-78082948D01*
X176225557Y-77978000D01*
X176207023Y-77849091D01*
X176152921Y-77730626D01*
X176067636Y-77632201D01*
X176067633Y-77632199D01*
X176067633Y-77632198D01*
X176001899Y-77589955D01*
X175958076Y-77561792D01*
X175874770Y-77537330D01*
X175833118Y-77525100D01*
X175833117Y-77525100D01*
X175702883Y-77525100D01*
X175702882Y-77525100D01*
X175640403Y-77543445D01*
X175577924Y-77561792D01*
X175577920Y-77561794D01*
X175577921Y-77561794D01*
X175468366Y-77632198D01*
X175468366Y-77632199D01*
X175383079Y-77730625D01*
X175383078Y-77730627D01*
X175328976Y-77849091D01*
X175310443Y-77977999D01*
X171081010Y-77977999D01*
X172172715Y-76886295D01*
X172172716Y-76886292D01*
X172179776Y-76879233D01*
X172179781Y-76879226D01*
X172807948Y-76251059D01*
X190638222Y-76251059D01*
X190669108Y-76452671D01*
X190669109Y-76452677D01*
X190724488Y-76602205D01*
X190739948Y-76643949D01*
X190847841Y-76817047D01*
X190847842Y-76817048D01*
X190847844Y-76817051D01*
X190988366Y-76964880D01*
X190988368Y-76964881D01*
X190988370Y-76964883D01*
X191155781Y-77081404D01*
X191343220Y-77161841D01*
X191543015Y-77202900D01*
X191945862Y-77202900D01*
X192097924Y-77187437D01*
X192292530Y-77126379D01*
X192292530Y-77126378D01*
X192292539Y-77126376D01*
X192470879Y-77027389D01*
X192625643Y-76894528D01*
X192750495Y-76733234D01*
X192840322Y-76550109D01*
X192891447Y-76352650D01*
X192901778Y-76148942D01*
X192870891Y-75947324D01*
X192800052Y-75756051D01*
X192692159Y-75582953D01*
X192692156Y-75582950D01*
X192692155Y-75582948D01*
X192551633Y-75435119D01*
X192551631Y-75435118D01*
X192384218Y-75318595D01*
X192196780Y-75238159D01*
X191996985Y-75197100D01*
X191594139Y-75197100D01*
X191594138Y-75197100D01*
X191442075Y-75212562D01*
X191247469Y-75273620D01*
X191247459Y-75273625D01*
X191069119Y-75372612D01*
X191069118Y-75372612D01*
X190914359Y-75505469D01*
X190789505Y-75666765D01*
X190699679Y-75849888D01*
X190648553Y-76047348D01*
X190648552Y-76047350D01*
X190648553Y-76047350D01*
X190640762Y-76200984D01*
X190638222Y-76251059D01*
X172807948Y-76251059D01*
X173637184Y-75421824D01*
X173643666Y-75416184D01*
X173652369Y-75409612D01*
X173652373Y-75409611D01*
X173682115Y-75376984D01*
X173684022Y-75374986D01*
X173696715Y-75362295D01*
X173697932Y-75360517D01*
X173703271Y-75353777D01*
X173722368Y-75332830D01*
X173724290Y-75327866D01*
X173737617Y-75302585D01*
X173740625Y-75298195D01*
X173747117Y-75270585D01*
X173749655Y-75262390D01*
X173759900Y-75235949D01*
X173759900Y-75230625D01*
X173763194Y-75202234D01*
X173764412Y-75197057D01*
X173760495Y-75168977D01*
X173759900Y-75160402D01*
X173759900Y-68892443D01*
X173760495Y-68883867D01*
X173762001Y-68873064D01*
X173762003Y-68873059D01*
X173759966Y-68828993D01*
X173759900Y-68826130D01*
X173759900Y-68808249D01*
X173759900Y-68808247D01*
X173759504Y-68806133D01*
X173758514Y-68797595D01*
X173757205Y-68769273D01*
X173755054Y-68764403D01*
X173746601Y-68737103D01*
X173746368Y-68735860D01*
X173745623Y-68731872D01*
X173745620Y-68731867D01*
X173730696Y-68707763D01*
X173726688Y-68700159D01*
X173721762Y-68689003D01*
X173715239Y-68674229D01*
X173711475Y-68670465D01*
X173693729Y-68648060D01*
X173690929Y-68643538D01*
X173679755Y-68635100D01*
X173668298Y-68626448D01*
X173661816Y-68620806D01*
X173475591Y-68434581D01*
X173442106Y-68373258D01*
X173447090Y-68303566D01*
X173488962Y-68247633D01*
X173554426Y-68223216D01*
X173563272Y-68222900D01*
X176749900Y-68222900D01*
X176816939Y-68242585D01*
X176843613Y-68265698D01*
X176865362Y-68290798D01*
X176865367Y-68290801D01*
X176974924Y-68361208D01*
X177076765Y-68391112D01*
X177099882Y-68397900D01*
X177099883Y-68397900D01*
X177230118Y-68397900D01*
X177249625Y-68392171D01*
X177355076Y-68361208D01*
X177464636Y-68290799D01*
X177549921Y-68192374D01*
X177604023Y-68073909D01*
X177622557Y-67945000D01*
X177604023Y-67816091D01*
X177549921Y-67697626D01*
X177464636Y-67599201D01*
X177464633Y-67599199D01*
X177464633Y-67599198D01*
X177398900Y-67556955D01*
X177355076Y-67528792D01*
X177271770Y-67504330D01*
X177230118Y-67492100D01*
X177230117Y-67492100D01*
X177099883Y-67492100D01*
X177099882Y-67492100D01*
X177037403Y-67510446D01*
X176974924Y-67528792D01*
X176974920Y-67528794D01*
X176974921Y-67528794D01*
X176865362Y-67599201D01*
X176843613Y-67624302D01*
X176784836Y-67662077D01*
X176749900Y-67667100D01*
X170070546Y-67667100D01*
X170061971Y-67666505D01*
X170051161Y-67664997D01*
X170051159Y-67664997D01*
X170032192Y-67665873D01*
X170007094Y-67667034D01*
X170004231Y-67667100D01*
X169986337Y-67667100D01*
X169984218Y-67667496D01*
X169975695Y-67668484D01*
X169947377Y-67669794D01*
X169947372Y-67669795D01*
X169942496Y-67671948D01*
X169915212Y-67680397D01*
X169909972Y-67681376D01*
X169909971Y-67681377D01*
X169885862Y-67696303D01*
X169878264Y-67700308D01*
X169852329Y-67711760D01*
X169848563Y-67715527D01*
X169826166Y-67733267D01*
X169821636Y-67736071D01*
X169804545Y-67758702D01*
X169798903Y-67765185D01*
X169473307Y-68090782D01*
X169411986Y-68124266D01*
X169385628Y-68127100D01*
X169311982Y-68127100D01*
X169249503Y-68145446D01*
X169187024Y-68163792D01*
X169187020Y-68163794D01*
X169187021Y-68163794D01*
X169077466Y-68234198D01*
X169077466Y-68234199D01*
X168992179Y-68332625D01*
X168992178Y-68332627D01*
X168938076Y-68451091D01*
X168919543Y-68579999D01*
X168938076Y-68708908D01*
X168978579Y-68797595D01*
X168992179Y-68827374D01*
X169077464Y-68925799D01*
X169077466Y-68925800D01*
X169077466Y-68925801D01*
X169116364Y-68950798D01*
X169187024Y-68996208D01*
X169288865Y-69026112D01*
X169311982Y-69032900D01*
X169311983Y-69032900D01*
X169442218Y-69032900D01*
X169463730Y-69026583D01*
X169567176Y-68996208D01*
X169676736Y-68925799D01*
X169762021Y-68827374D01*
X169816123Y-68708909D01*
X169834657Y-68580000D01*
X169834657Y-68579998D01*
X169834657Y-68571131D01*
X169837372Y-68571131D01*
X169845316Y-68515851D01*
X169870428Y-68479681D01*
X170090892Y-68259216D01*
X170152214Y-68225734D01*
X170178572Y-68222900D01*
X171149707Y-68222900D01*
X171216746Y-68242585D01*
X171262501Y-68295389D01*
X171272445Y-68364547D01*
X171266662Y-68384245D01*
X171267475Y-68384484D01*
X171264977Y-68392990D01*
X171246443Y-68521900D01*
X171246527Y-68522488D01*
X171246443Y-68523071D01*
X171246443Y-68530769D01*
X171245335Y-68530769D01*
X171236576Y-68591645D01*
X171190817Y-68644445D01*
X171123775Y-68664123D01*
X171088852Y-68659100D01*
X171035854Y-68643538D01*
X171007118Y-68635100D01*
X171007117Y-68635100D01*
X170876883Y-68635100D01*
X170876882Y-68635100D01*
X170848146Y-68643538D01*
X170751924Y-68671792D01*
X170751920Y-68671794D01*
X170751921Y-68671794D01*
X170642366Y-68742198D01*
X170642366Y-68742199D01*
X170557079Y-68840625D01*
X170557078Y-68840627D01*
X170502976Y-68959091D01*
X170484443Y-69088000D01*
X170502976Y-69216908D01*
X170530309Y-69276757D01*
X170557079Y-69335374D01*
X170624644Y-69413349D01*
X170633813Y-69423930D01*
X170662838Y-69487486D01*
X170664100Y-69505133D01*
X170664100Y-71969528D01*
X170644415Y-72036567D01*
X170627781Y-72057209D01*
X169847209Y-72837781D01*
X169785886Y-72871266D01*
X169759528Y-72874100D01*
X168792200Y-72874100D01*
X168725161Y-72854415D01*
X168698487Y-72831302D01*
X168676737Y-72806201D01*
X168624864Y-72772865D01*
X168567176Y-72735792D01*
X168483869Y-72711330D01*
X168442218Y-72699100D01*
X168442217Y-72699100D01*
X168311983Y-72699100D01*
X168311982Y-72699100D01*
X168187025Y-72735791D01*
X168108938Y-72785974D01*
X168041898Y-72805657D01*
X167974859Y-72785971D01*
X167929105Y-72733167D01*
X167917900Y-72681657D01*
X167917900Y-72448443D01*
X167918495Y-72439867D01*
X167920001Y-72429064D01*
X167920003Y-72429059D01*
X167917966Y-72384993D01*
X167917900Y-72382130D01*
X167917900Y-72364249D01*
X167917900Y-72364247D01*
X167917504Y-72362133D01*
X167916514Y-72353595D01*
X167915205Y-72325273D01*
X167913054Y-72320403D01*
X167904601Y-72293103D01*
X167904368Y-72291860D01*
X167903623Y-72287872D01*
X167901740Y-72284831D01*
X167888696Y-72263763D01*
X167884688Y-72256159D01*
X167882054Y-72250193D01*
X167873239Y-72230229D01*
X167869475Y-72226465D01*
X167851729Y-72204060D01*
X167848929Y-72199538D01*
X167833581Y-72187948D01*
X167826298Y-72182448D01*
X167819816Y-72176806D01*
X165972831Y-70329821D01*
X165967187Y-70323335D01*
X165960610Y-70314626D01*
X165928018Y-70284914D01*
X165925946Y-70282936D01*
X165913293Y-70270283D01*
X165911512Y-70269063D01*
X165904777Y-70263727D01*
X165883830Y-70244632D01*
X165878862Y-70242707D01*
X165853588Y-70229385D01*
X165849194Y-70226375D01*
X165849193Y-70226374D01*
X165849192Y-70226374D01*
X165821591Y-70219881D01*
X165813383Y-70217339D01*
X165786950Y-70207100D01*
X165786949Y-70207100D01*
X165781626Y-70207100D01*
X165753236Y-70203806D01*
X165748057Y-70202588D01*
X165719975Y-70206505D01*
X165711402Y-70207100D01*
X163610100Y-70207100D01*
X163543061Y-70187415D01*
X163516387Y-70164302D01*
X163494637Y-70139201D01*
X163411093Y-70085512D01*
X163385076Y-70068792D01*
X163301769Y-70044330D01*
X163260118Y-70032100D01*
X163260117Y-70032100D01*
X163129883Y-70032100D01*
X163129882Y-70032100D01*
X163067403Y-70050446D01*
X163004924Y-70068792D01*
X163004920Y-70068794D01*
X163004921Y-70068794D01*
X162895366Y-70139198D01*
X162895366Y-70139199D01*
X162810079Y-70237625D01*
X162810078Y-70237627D01*
X162755976Y-70356091D01*
X162737443Y-70485000D01*
X162755976Y-70613908D01*
X162810078Y-70732372D01*
X162810079Y-70732374D01*
X162895364Y-70830799D01*
X162895366Y-70830800D01*
X162895366Y-70830801D01*
X162939188Y-70858962D01*
X163004924Y-70901208D01*
X163106765Y-70931112D01*
X163129882Y-70937900D01*
X163129883Y-70937900D01*
X163260118Y-70937900D01*
X163279625Y-70932171D01*
X163385076Y-70901208D01*
X163494636Y-70830799D01*
X163494637Y-70830798D01*
X163516387Y-70805698D01*
X163575164Y-70767923D01*
X163610100Y-70762900D01*
X165568529Y-70762900D01*
X165635568Y-70782585D01*
X165656210Y-70799219D01*
X167325781Y-72468790D01*
X167359266Y-72530113D01*
X167362100Y-72556471D01*
X167362100Y-73242866D01*
X167342415Y-73309905D01*
X167331814Y-73324068D01*
X167255079Y-73412626D01*
X167255078Y-73412627D01*
X167200976Y-73531091D01*
X167182443Y-73660000D01*
X167200976Y-73788908D01*
X167216183Y-73822205D01*
X167255079Y-73907374D01*
X167340364Y-74005799D01*
X167340366Y-74005800D01*
X167340366Y-74005801D01*
X167384188Y-74033962D01*
X167449924Y-74076208D01*
X167551765Y-74106112D01*
X167574882Y-74112900D01*
X167574883Y-74112900D01*
X167705118Y-74112900D01*
X167724625Y-74107171D01*
X167830076Y-74076208D01*
X167939636Y-74005799D01*
X168024921Y-73907374D01*
X168079023Y-73788909D01*
X168093478Y-73688368D01*
X168122503Y-73624813D01*
X168181280Y-73587038D01*
X168251152Y-73587038D01*
X168311982Y-73604900D01*
X168311983Y-73604900D01*
X168442218Y-73604900D01*
X168461725Y-73599171D01*
X168567176Y-73568208D01*
X168676736Y-73497799D01*
X168676737Y-73497798D01*
X168698487Y-73472698D01*
X168757264Y-73434923D01*
X168792200Y-73429900D01*
X169867557Y-73429900D01*
X169876133Y-73430495D01*
X169886936Y-73432001D01*
X169886941Y-73432003D01*
X169926392Y-73430179D01*
X169931006Y-73429966D01*
X169933869Y-73429900D01*
X169951745Y-73429900D01*
X169951753Y-73429900D01*
X169953864Y-73429505D01*
X169962389Y-73428514D01*
X169990727Y-73427205D01*
X169995587Y-73425058D01*
X170022903Y-73416599D01*
X170028128Y-73415623D01*
X170052236Y-73400694D01*
X170059828Y-73396692D01*
X170085771Y-73385238D01*
X170089531Y-73381477D01*
X170111939Y-73363728D01*
X170116463Y-73360928D01*
X170133560Y-73338286D01*
X170139182Y-73331825D01*
X171097184Y-72373824D01*
X171103666Y-72368184D01*
X171112369Y-72361612D01*
X171112373Y-72361611D01*
X171142115Y-72328984D01*
X171144022Y-72326986D01*
X171156715Y-72314295D01*
X171157927Y-72312524D01*
X171163271Y-72305777D01*
X171182368Y-72284830D01*
X171184290Y-72279867D01*
X171197616Y-72254585D01*
X171200625Y-72250194D01*
X171207118Y-72222583D01*
X171209654Y-72214395D01*
X171219900Y-72187949D01*
X171219900Y-72182626D01*
X171223194Y-72154235D01*
X171224412Y-72149057D01*
X171220494Y-72120975D01*
X171219900Y-72112402D01*
X171219900Y-69505133D01*
X171239585Y-69438094D01*
X171250187Y-69423930D01*
X171259354Y-69413351D01*
X171326921Y-69335374D01*
X171381023Y-69216909D01*
X171399557Y-69088000D01*
X171399473Y-69087422D01*
X171399557Y-69086844D01*
X171399557Y-69079131D01*
X171400666Y-69079131D01*
X171409418Y-69018264D01*
X171455173Y-68965460D01*
X171522213Y-68945776D01*
X171557140Y-68950797D01*
X171638883Y-68974800D01*
X171638884Y-68974800D01*
X171769119Y-68974800D01*
X171769119Y-68974799D01*
X171850851Y-68950799D01*
X171920719Y-68950798D01*
X171979498Y-68988571D01*
X172008525Y-69052126D01*
X172008527Y-69087410D01*
X172008443Y-69087994D01*
X172008443Y-69087999D01*
X172026976Y-69216908D01*
X172054309Y-69276757D01*
X172081079Y-69335374D01*
X172148644Y-69413349D01*
X172157813Y-69423930D01*
X172186838Y-69487486D01*
X172188100Y-69505133D01*
X172188100Y-74128527D01*
X172168415Y-74195566D01*
X172151781Y-74216208D01*
X170355209Y-76012781D01*
X170293886Y-76046266D01*
X170267528Y-76049100D01*
X168207578Y-76049100D01*
X168140539Y-76029415D01*
X168094784Y-75976611D01*
X168084840Y-75907454D01*
X168097557Y-75819000D01*
X168079023Y-75690091D01*
X168030094Y-75582953D01*
X168024921Y-75571626D01*
X167939636Y-75473201D01*
X167882084Y-75436215D01*
X167836330Y-75383412D01*
X167826386Y-75314254D01*
X167855410Y-75250698D01*
X167914188Y-75212923D01*
X167949124Y-75207900D01*
X170018900Y-75207900D01*
X170085939Y-75227585D01*
X170112613Y-75250698D01*
X170134362Y-75275798D01*
X170134367Y-75275801D01*
X170243924Y-75346208D01*
X170333843Y-75372611D01*
X170368882Y-75382900D01*
X170368883Y-75382900D01*
X170499118Y-75382900D01*
X170519149Y-75377018D01*
X170624076Y-75346208D01*
X170733636Y-75275799D01*
X170818921Y-75177374D01*
X170873023Y-75058909D01*
X170891557Y-74930000D01*
X170873023Y-74801091D01*
X170818921Y-74682626D01*
X170733636Y-74584201D01*
X170733633Y-74584199D01*
X170733633Y-74584198D01*
X170667899Y-74541955D01*
X170624076Y-74513792D01*
X170529226Y-74485941D01*
X170499118Y-74477100D01*
X170499117Y-74477100D01*
X170368883Y-74477100D01*
X170368882Y-74477100D01*
X170335300Y-74486961D01*
X170243924Y-74513792D01*
X170243920Y-74513794D01*
X170243921Y-74513794D01*
X170134362Y-74584201D01*
X170112613Y-74609302D01*
X170053836Y-74647077D01*
X170018900Y-74652100D01*
X163483100Y-74652100D01*
X163416061Y-74632415D01*
X163389387Y-74609302D01*
X163367637Y-74584201D01*
X163315764Y-74550865D01*
X163258076Y-74513792D01*
X163163226Y-74485941D01*
X163133118Y-74477100D01*
X163133117Y-74477100D01*
X163002883Y-74477100D01*
X163002882Y-74477100D01*
X162969300Y-74486961D01*
X162877924Y-74513792D01*
X162877920Y-74513794D01*
X162877921Y-74513794D01*
X162768366Y-74584198D01*
X162768366Y-74584199D01*
X162692501Y-74671752D01*
X162664069Y-74695974D01*
X162623536Y-74721072D01*
X162560926Y-74803982D01*
X162560923Y-74803986D01*
X162532491Y-74903912D01*
X162542077Y-75007364D01*
X162542080Y-75007373D01*
X162588386Y-75100370D01*
X162588388Y-75100372D01*
X162588389Y-75100373D01*
X162665170Y-75170368D01*
X162665172Y-75170369D01*
X162674647Y-75176235D01*
X162703082Y-75200459D01*
X162768364Y-75275799D01*
X162768366Y-75275800D01*
X162768366Y-75275801D01*
X162803210Y-75298193D01*
X162877924Y-75346208D01*
X162967843Y-75372611D01*
X163002882Y-75382900D01*
X163002883Y-75382900D01*
X163133118Y-75382900D01*
X163153149Y-75377018D01*
X163258076Y-75346208D01*
X163367636Y-75275799D01*
X163369524Y-75273620D01*
X163389387Y-75250698D01*
X163448164Y-75212923D01*
X163483100Y-75207900D01*
X167330876Y-75207900D01*
X167397915Y-75227585D01*
X167443670Y-75280389D01*
X167453614Y-75349547D01*
X167424589Y-75413103D01*
X167397915Y-75436216D01*
X167340365Y-75473200D01*
X167255079Y-75571625D01*
X167255078Y-75571627D01*
X167200976Y-75690091D01*
X167182443Y-75819000D01*
X167182443Y-75827867D01*
X167179732Y-75827867D01*
X167171771Y-75883171D01*
X167146666Y-75919322D01*
X166722821Y-76343168D01*
X166716341Y-76348807D01*
X166707628Y-76355387D01*
X166677904Y-76387991D01*
X166675930Y-76390058D01*
X166663282Y-76402708D01*
X166663279Y-76402710D01*
X166662055Y-76404498D01*
X166656729Y-76411219D01*
X166637631Y-76432170D01*
X166635705Y-76437142D01*
X166622391Y-76462402D01*
X166619376Y-76466804D01*
X166619374Y-76466808D01*
X166612882Y-76494406D01*
X166610341Y-76502613D01*
X166600100Y-76529050D01*
X166600100Y-76534372D01*
X166596807Y-76562757D01*
X166595588Y-76567937D01*
X166595588Y-76567943D01*
X166599505Y-76596021D01*
X166600100Y-76604597D01*
X166600100Y-89244866D01*
X166580415Y-89311905D01*
X166569814Y-89326068D01*
X166493079Y-89414626D01*
X166493078Y-89414627D01*
X166438976Y-89533091D01*
X166420443Y-89661999D01*
X166438976Y-89790908D01*
X166474456Y-89868596D01*
X166493079Y-89909374D01*
X166578364Y-90007799D01*
X166578366Y-90007800D01*
X166578366Y-90007801D01*
X166622187Y-90035962D01*
X166687924Y-90078208D01*
X166789765Y-90108112D01*
X166812882Y-90114900D01*
X166812883Y-90114900D01*
X166943118Y-90114900D01*
X166962625Y-90109171D01*
X167068076Y-90078208D01*
X167177636Y-90007799D01*
X167262921Y-89909374D01*
X167317023Y-89790909D01*
X167335557Y-89662000D01*
X167317023Y-89533091D01*
X167262921Y-89414626D01*
X167202538Y-89344940D01*
X167186186Y-89326068D01*
X167157162Y-89262512D01*
X167155900Y-89244866D01*
X167155900Y-76747471D01*
X167175585Y-76680432D01*
X167192219Y-76659790D01*
X167543791Y-76308219D01*
X167605114Y-76274734D01*
X167631472Y-76271900D01*
X167705116Y-76271900D01*
X167705117Y-76271900D01*
X167711161Y-76270124D01*
X167781030Y-76270122D01*
X167839809Y-76307894D01*
X167868837Y-76371449D01*
X167870100Y-76389101D01*
X167870100Y-90257528D01*
X167850415Y-90324567D01*
X167833781Y-90345209D01*
X153591209Y-104587781D01*
X153529886Y-104621266D01*
X153503528Y-104624100D01*
X140647443Y-104624100D01*
X140638868Y-104623505D01*
X140628060Y-104621997D01*
X140628059Y-104621997D01*
X140619845Y-104622376D01*
X140584001Y-104624034D01*
X140581138Y-104624100D01*
X140563247Y-104624100D01*
X140561120Y-104624497D01*
X140552597Y-104625485D01*
X140524277Y-104626794D01*
X140524270Y-104626796D01*
X140519400Y-104628947D01*
X140492106Y-104637398D01*
X140486873Y-104638376D01*
X140486871Y-104638376D01*
X140462761Y-104653304D01*
X140455161Y-104657310D01*
X140429229Y-104668761D01*
X140429227Y-104668762D01*
X140425463Y-104672527D01*
X140403066Y-104690267D01*
X140398536Y-104693071D01*
X140381445Y-104715702D01*
X140375804Y-104722185D01*
X138274821Y-106823168D01*
X138268341Y-106828807D01*
X138259628Y-106835387D01*
X138229904Y-106867991D01*
X138227930Y-106870058D01*
X138215282Y-106882708D01*
X138215279Y-106882710D01*
X138214055Y-106884498D01*
X138208729Y-106891219D01*
X138189631Y-106912170D01*
X138187705Y-106917142D01*
X138174391Y-106942402D01*
X138171376Y-106946804D01*
X138171374Y-106946808D01*
X138164882Y-106974406D01*
X138162341Y-106982613D01*
X138152100Y-107009050D01*
X138152100Y-107014372D01*
X138148807Y-107042757D01*
X138147588Y-107047937D01*
X138147588Y-107047943D01*
X138151505Y-107076021D01*
X138152100Y-107084597D01*
X138152100Y-130828100D01*
X138132415Y-130895139D01*
X138079611Y-130940894D01*
X138028100Y-130952100D01*
X137798287Y-130952100D01*
X137703949Y-130967041D01*
X137590227Y-131024985D01*
X137590223Y-131024988D01*
X137499988Y-131115223D01*
X137499985Y-131115227D01*
X137442041Y-131228949D01*
X137427100Y-131323286D01*
X137427100Y-132836713D01*
X126432226Y-132836713D01*
X126531404Y-132694219D01*
X126611841Y-132506780D01*
X126652900Y-132306985D01*
X126652900Y-131904139D01*
X126637437Y-131752077D01*
X126637437Y-131752075D01*
X126576379Y-131557469D01*
X126576377Y-131557466D01*
X126576376Y-131557461D01*
X126477389Y-131379121D01*
X126477387Y-131379118D01*
X126344530Y-131224359D01*
X126344529Y-131224358D01*
X126344528Y-131224357D01*
X126183234Y-131099505D01*
X126000109Y-131009678D01*
X126000105Y-131009677D01*
X125997290Y-131008296D01*
X125945771Y-130961099D01*
X125927900Y-130896971D01*
X125927900Y-109847470D01*
X125947585Y-109780432D01*
X125964219Y-109759790D01*
X135206791Y-100517219D01*
X135268114Y-100483734D01*
X135294472Y-100480900D01*
X153992557Y-100480900D01*
X154001133Y-100481495D01*
X154011936Y-100483001D01*
X154011941Y-100483003D01*
X154051392Y-100481179D01*
X154056006Y-100480966D01*
X154058869Y-100480900D01*
X154076745Y-100480900D01*
X154076753Y-100480900D01*
X154078864Y-100480505D01*
X154087389Y-100479514D01*
X154115727Y-100478205D01*
X154120587Y-100476058D01*
X154147903Y-100467599D01*
X154153128Y-100466623D01*
X154177236Y-100451694D01*
X154184828Y-100447692D01*
X154210771Y-100436238D01*
X154214531Y-100432477D01*
X154236939Y-100414728D01*
X154241463Y-100411928D01*
X154258560Y-100389286D01*
X154264189Y-100382818D01*
X165001184Y-89645824D01*
X165007666Y-89640184D01*
X165016369Y-89633612D01*
X165016373Y-89633611D01*
X165046115Y-89600984D01*
X165048022Y-89598986D01*
X165060715Y-89586295D01*
X165061927Y-89584524D01*
X165067271Y-89577777D01*
X165086368Y-89556830D01*
X165088290Y-89551867D01*
X165101616Y-89526585D01*
X165104625Y-89522194D01*
X165111118Y-89494583D01*
X165113654Y-89486395D01*
X165123900Y-89459949D01*
X165123900Y-89454626D01*
X165127194Y-89426235D01*
X165128412Y-89421057D01*
X165124494Y-89392975D01*
X165123900Y-89384402D01*
X165123900Y-87978233D01*
X165143585Y-87911194D01*
X165154187Y-87897030D01*
X165155175Y-87895890D01*
X165230921Y-87808474D01*
X165285023Y-87690009D01*
X165303557Y-87561100D01*
X165285023Y-87432191D01*
X165230921Y-87313726D01*
X165145636Y-87215301D01*
X165145633Y-87215299D01*
X165145633Y-87215298D01*
X165079900Y-87173055D01*
X165036076Y-87144892D01*
X164952770Y-87120430D01*
X164911118Y-87108200D01*
X164911117Y-87108200D01*
X164780883Y-87108200D01*
X164780882Y-87108200D01*
X164718403Y-87126545D01*
X164655924Y-87144892D01*
X164655920Y-87144894D01*
X164655921Y-87144894D01*
X164546366Y-87215298D01*
X164546366Y-87215299D01*
X164461079Y-87313725D01*
X164461078Y-87313727D01*
X164406976Y-87432191D01*
X164388443Y-87561099D01*
X164406976Y-87690008D01*
X164461078Y-87808472D01*
X164461079Y-87808474D01*
X164537813Y-87897030D01*
X164566838Y-87960586D01*
X164568100Y-87978233D01*
X164568100Y-89241528D01*
X164548415Y-89308567D01*
X164531781Y-89329209D01*
X153972209Y-99888781D01*
X153910886Y-99922266D01*
X153884528Y-99925100D01*
X135186443Y-99925100D01*
X135177868Y-99924505D01*
X135167060Y-99922997D01*
X135167059Y-99922997D01*
X135158845Y-99923376D01*
X135123001Y-99925034D01*
X135120138Y-99925100D01*
X135102247Y-99925100D01*
X135100120Y-99925497D01*
X135091597Y-99926485D01*
X135063277Y-99927794D01*
X135063270Y-99927796D01*
X135058400Y-99929947D01*
X135031106Y-99938398D01*
X135025873Y-99939376D01*
X135025871Y-99939376D01*
X135001761Y-99954304D01*
X134994161Y-99958310D01*
X134968229Y-99969761D01*
X134968227Y-99969762D01*
X134964463Y-99973527D01*
X134942066Y-99991267D01*
X134937536Y-99994071D01*
X134920445Y-100016702D01*
X134914804Y-100023185D01*
X125494821Y-109443168D01*
X125488341Y-109448807D01*
X125479628Y-109455387D01*
X125449904Y-109487991D01*
X125447930Y-109490058D01*
X125435282Y-109502708D01*
X125435279Y-109502710D01*
X125434055Y-109504498D01*
X125428729Y-109511219D01*
X125409631Y-109532170D01*
X125407705Y-109537142D01*
X125394391Y-109562402D01*
X125391376Y-109566804D01*
X125391374Y-109566808D01*
X125384882Y-109594406D01*
X125382341Y-109602613D01*
X125372100Y-109629050D01*
X125372100Y-109634372D01*
X125368807Y-109662757D01*
X125367588Y-109667937D01*
X125367588Y-109667943D01*
X125371505Y-109696021D01*
X125372100Y-109704597D01*
X125372100Y-130902143D01*
X125352415Y-130969182D01*
X125299611Y-131014937D01*
X125291167Y-131018424D01*
X125206052Y-131049947D01*
X125206051Y-131049948D01*
X125032948Y-131157844D01*
X124885119Y-131298366D01*
X124885118Y-131298368D01*
X124768595Y-131465781D01*
X124688159Y-131653219D01*
X124647100Y-131853014D01*
X124647100Y-132255862D01*
X124152900Y-132255862D01*
X124152900Y-131904139D01*
X124137437Y-131752077D01*
X124137437Y-131752075D01*
X124076379Y-131557469D01*
X124076377Y-131557466D01*
X124076376Y-131557461D01*
X123977389Y-131379121D01*
X123977387Y-131379118D01*
X123844530Y-131224359D01*
X123844529Y-131224358D01*
X123844528Y-131224357D01*
X123683234Y-131099505D01*
X123500109Y-131009678D01*
X123302650Y-130958553D01*
X123302652Y-130958553D01*
X123166844Y-130951665D01*
X123098942Y-130948222D01*
X123098941Y-130948222D01*
X123098939Y-130948222D01*
X122897328Y-130979108D01*
X122897322Y-130979109D01*
X122706058Y-131049945D01*
X122706051Y-131049948D01*
X122532948Y-131157844D01*
X122385119Y-131298366D01*
X122385118Y-131298368D01*
X122268595Y-131465781D01*
X122188159Y-131653219D01*
X122147100Y-131853014D01*
X122147100Y-132255862D01*
X121652900Y-132255862D01*
X121652900Y-131323286D01*
X121637958Y-131228949D01*
X121637957Y-131228947D01*
X121637957Y-131228945D01*
X121580016Y-131115229D01*
X121580014Y-131115227D01*
X121580011Y-131115223D01*
X121489776Y-131024988D01*
X121489772Y-131024985D01*
X121489771Y-131024984D01*
X121376055Y-130967043D01*
X121376053Y-130967042D01*
X121376050Y-130967041D01*
X121281713Y-130952100D01*
X121281708Y-130952100D01*
X121051900Y-130952100D01*
X120984861Y-130932415D01*
X120939106Y-130879611D01*
X120927900Y-130828100D01*
X120927900Y-106592471D01*
X120947585Y-106525432D01*
X120964219Y-106504790D01*
X135079791Y-92389219D01*
X135141114Y-92355734D01*
X135167472Y-92352900D01*
X154627557Y-92352900D01*
X154636133Y-92353495D01*
X154646936Y-92355001D01*
X154646941Y-92355003D01*
X154686392Y-92353179D01*
X154691006Y-92352966D01*
X154693869Y-92352900D01*
X154711745Y-92352900D01*
X154711753Y-92352900D01*
X154713864Y-92352505D01*
X154722389Y-92351514D01*
X154750727Y-92350205D01*
X154755587Y-92348058D01*
X154782903Y-92339599D01*
X154788128Y-92338623D01*
X154812236Y-92323694D01*
X154819828Y-92319692D01*
X154845771Y-92308238D01*
X154849531Y-92304477D01*
X154871939Y-92286728D01*
X154876463Y-92283928D01*
X154893560Y-92261286D01*
X154899189Y-92254818D01*
X164112184Y-83041824D01*
X164118666Y-83036184D01*
X164127369Y-83029612D01*
X164127373Y-83029611D01*
X164157115Y-82996984D01*
X164159022Y-82994986D01*
X164171715Y-82982295D01*
X164172927Y-82980524D01*
X164178271Y-82973777D01*
X164197368Y-82952830D01*
X164199290Y-82947867D01*
X164212616Y-82922585D01*
X164215625Y-82918194D01*
X164222118Y-82890583D01*
X164224654Y-82882395D01*
X164234900Y-82855949D01*
X164234900Y-82850624D01*
X164238194Y-82822234D01*
X164239412Y-82817057D01*
X164235494Y-82788975D01*
X164234900Y-82780402D01*
X164234900Y-81316133D01*
X164254585Y-81249094D01*
X164265187Y-81234930D01*
X164341921Y-81146374D01*
X164396023Y-81027909D01*
X164414557Y-80899000D01*
X164396023Y-80770091D01*
X164341921Y-80651626D01*
X164256636Y-80553201D01*
X164256633Y-80553199D01*
X164256633Y-80553198D01*
X164182367Y-80505472D01*
X164147076Y-80482792D01*
X164063770Y-80458330D01*
X164022118Y-80446100D01*
X164022117Y-80446100D01*
X163891883Y-80446100D01*
X163891882Y-80446100D01*
X163835871Y-80462547D01*
X163766924Y-80482792D01*
X163766920Y-80482794D01*
X163766921Y-80482794D01*
X163657366Y-80553198D01*
X163657366Y-80553199D01*
X163572079Y-80651625D01*
X163572078Y-80651627D01*
X163517976Y-80770091D01*
X163499443Y-80899000D01*
X163517976Y-81027908D01*
X163572078Y-81146372D01*
X163572079Y-81146374D01*
X163597817Y-81176078D01*
X163648813Y-81234930D01*
X163677838Y-81298486D01*
X163679100Y-81316133D01*
X163679100Y-82637528D01*
X163659415Y-82704567D01*
X163642781Y-82725209D01*
X154607209Y-91760781D01*
X154545886Y-91794266D01*
X154519528Y-91797100D01*
X135059443Y-91797100D01*
X135050867Y-91796505D01*
X135040059Y-91794997D01*
X134995994Y-91797034D01*
X134993131Y-91797100D01*
X134975237Y-91797100D01*
X134973118Y-91797496D01*
X134964595Y-91798484D01*
X134936277Y-91799794D01*
X134936272Y-91799795D01*
X134931396Y-91801948D01*
X134904112Y-91810397D01*
X134898872Y-91811376D01*
X134898871Y-91811377D01*
X134874762Y-91826303D01*
X134867164Y-91830308D01*
X134841229Y-91841760D01*
X134837463Y-91845527D01*
X134815066Y-91863267D01*
X134810536Y-91866071D01*
X134793445Y-91888702D01*
X134787804Y-91895185D01*
X120494821Y-106188168D01*
X120488341Y-106193807D01*
X120479628Y-106200387D01*
X120449904Y-106232991D01*
X120447930Y-106235058D01*
X120435282Y-106247708D01*
X120435279Y-106247710D01*
X120434055Y-106249498D01*
X120428729Y-106256219D01*
X120409631Y-106277170D01*
X120407705Y-106282142D01*
X120394391Y-106307402D01*
X120391376Y-106311804D01*
X120391374Y-106311808D01*
X120384882Y-106339406D01*
X120382341Y-106347613D01*
X120372100Y-106374050D01*
X120372100Y-106379372D01*
X120368807Y-106407757D01*
X120367588Y-106412937D01*
X120367588Y-106412943D01*
X120371505Y-106441021D01*
X120372100Y-106449597D01*
X120372100Y-130828100D01*
X120352415Y-130895139D01*
X120299611Y-130940894D01*
X120248100Y-130952100D01*
X120018287Y-130952100D01*
X119923949Y-130967041D01*
X119810227Y-131024985D01*
X119810223Y-131024988D01*
X119719988Y-131115223D01*
X119719985Y-131115227D01*
X119662041Y-131228949D01*
X119647100Y-131323286D01*
X119647100Y-132836713D01*
X106018969Y-132836713D01*
X105979265Y-89276713D01*
X128412100Y-89276713D01*
X128427041Y-89371050D01*
X128427042Y-89371053D01*
X128427043Y-89371055D01*
X128484984Y-89484771D01*
X128484985Y-89484772D01*
X128484988Y-89484776D01*
X128575223Y-89575011D01*
X128575227Y-89575014D01*
X128575229Y-89575016D01*
X128688945Y-89632957D01*
X128688947Y-89632957D01*
X128688949Y-89632958D01*
X128783287Y-89647900D01*
X128783292Y-89647900D01*
X130296713Y-89647900D01*
X130391050Y-89632958D01*
X130391050Y-89632957D01*
X130391055Y-89632957D01*
X130504771Y-89575016D01*
X130595016Y-89484771D01*
X130652957Y-89371055D01*
X130659585Y-89329209D01*
X130667900Y-89276713D01*
X130667900Y-89155999D01*
X148894443Y-89155999D01*
X148912976Y-89284908D01*
X148962331Y-89392977D01*
X148967079Y-89403374D01*
X149052364Y-89501799D01*
X149052366Y-89501800D01*
X149052366Y-89501801D01*
X149084666Y-89522558D01*
X149161924Y-89572208D01*
X149256440Y-89599961D01*
X149286882Y-89608900D01*
X149286883Y-89608900D01*
X149417118Y-89608900D01*
X149443960Y-89601018D01*
X149542076Y-89572208D01*
X149651636Y-89501799D01*
X149736921Y-89403374D01*
X149791023Y-89284909D01*
X149809557Y-89156000D01*
X149791023Y-89027091D01*
X149736921Y-88908626D01*
X149660186Y-88820068D01*
X149631162Y-88756512D01*
X149629900Y-88738866D01*
X149629900Y-70902133D01*
X149649585Y-70835094D01*
X149660187Y-70820930D01*
X149736921Y-70732374D01*
X149791023Y-70613909D01*
X149809557Y-70485000D01*
X149791023Y-70356091D01*
X149736921Y-70237626D01*
X149660186Y-70149068D01*
X149631162Y-70085512D01*
X149629900Y-70067866D01*
X149629900Y-64262000D01*
X152196443Y-64262000D01*
X152214976Y-64390908D01*
X152255479Y-64479595D01*
X152269079Y-64509374D01*
X152354364Y-64607799D01*
X152354366Y-64607800D01*
X152354366Y-64607801D01*
X152398188Y-64635962D01*
X152463924Y-64678208D01*
X152549385Y-64703302D01*
X152588882Y-64714900D01*
X152588883Y-64714900D01*
X152719118Y-64714900D01*
X152738625Y-64709171D01*
X152844076Y-64678208D01*
X152953636Y-64607799D01*
X153038921Y-64509374D01*
X153093023Y-64390909D01*
X153111557Y-64262000D01*
X153093023Y-64133091D01*
X153038921Y-64014626D01*
X152962186Y-63926068D01*
X152933162Y-63862512D01*
X152931900Y-63844866D01*
X152931900Y-60615133D01*
X152951585Y-60548094D01*
X152962187Y-60533930D01*
X153038921Y-60445374D01*
X153093023Y-60326909D01*
X153111557Y-60198000D01*
X153093023Y-60069091D01*
X153038921Y-59950626D01*
X152953636Y-59852201D01*
X152953633Y-59852199D01*
X152953633Y-59852198D01*
X152887900Y-59809955D01*
X152844076Y-59781792D01*
X152760770Y-59757330D01*
X152719118Y-59745100D01*
X152719117Y-59745100D01*
X152588883Y-59745100D01*
X152588882Y-59745100D01*
X152526403Y-59763446D01*
X152463924Y-59781792D01*
X152463920Y-59781794D01*
X152463921Y-59781794D01*
X152354366Y-59852198D01*
X152354366Y-59852199D01*
X152269079Y-59950625D01*
X152269078Y-59950627D01*
X152214976Y-60069091D01*
X152196443Y-60198000D01*
X152214976Y-60326908D01*
X152269078Y-60445372D01*
X152269079Y-60445374D01*
X152345813Y-60533930D01*
X152374838Y-60597486D01*
X152376100Y-60615133D01*
X152376100Y-63844866D01*
X152356415Y-63911905D01*
X152345814Y-63926068D01*
X152269079Y-64014626D01*
X152269078Y-64014627D01*
X152214976Y-64133091D01*
X152196443Y-64262000D01*
X149629900Y-64262000D01*
X149629900Y-58928000D01*
X153466443Y-58928000D01*
X153484976Y-59056908D01*
X153529896Y-59155266D01*
X153539079Y-59175374D01*
X153583874Y-59227071D01*
X153615813Y-59263930D01*
X153644838Y-59327486D01*
X153646100Y-59345133D01*
X153646100Y-64967935D01*
X153643515Y-64986468D01*
X153643552Y-64986472D01*
X153642491Y-64997913D01*
X153645835Y-65033995D01*
X153646100Y-65039718D01*
X153646100Y-65049757D01*
X153647943Y-65059615D01*
X153648735Y-65065289D01*
X153652077Y-65101365D01*
X153655222Y-65112417D01*
X153655186Y-65112426D01*
X153656193Y-65115429D01*
X153656227Y-65115416D01*
X153660378Y-65126131D01*
X153679450Y-65156934D01*
X153682238Y-65161939D01*
X153698387Y-65194371D01*
X153705313Y-65203542D01*
X153705283Y-65203563D01*
X153707302Y-65205994D01*
X153707330Y-65205970D01*
X153715070Y-65214459D01*
X153715072Y-65214463D01*
X153743993Y-65236303D01*
X153748389Y-65239954D01*
X153751038Y-65242369D01*
X153775170Y-65264368D01*
X153775172Y-65264369D01*
X153784940Y-65270417D01*
X153784919Y-65270449D01*
X153787681Y-65271988D01*
X153787699Y-65271954D01*
X153797981Y-65277074D01*
X153797983Y-65277074D01*
X153797984Y-65277075D01*
X153832845Y-65286993D01*
X153838259Y-65288808D01*
X153872051Y-65301900D01*
X153872052Y-65301900D01*
X153883347Y-65304012D01*
X153883340Y-65304048D01*
X153886468Y-65304484D01*
X153886472Y-65304448D01*
X153897913Y-65305508D01*
X153897913Y-65305507D01*
X153897914Y-65305508D01*
X153905255Y-65304827D01*
X153933996Y-65302165D01*
X153939719Y-65301900D01*
X173066900Y-65301900D01*
X173133939Y-65321585D01*
X173160613Y-65344698D01*
X173182362Y-65369798D01*
X173182367Y-65369801D01*
X173291924Y-65440208D01*
X173393765Y-65470112D01*
X173416882Y-65476900D01*
X173416883Y-65476900D01*
X173547118Y-65476900D01*
X173566625Y-65471171D01*
X173672076Y-65440208D01*
X173781636Y-65369799D01*
X173866921Y-65271374D01*
X173921023Y-65152909D01*
X173939557Y-65024000D01*
X173921023Y-64895091D01*
X173866921Y-64776626D01*
X173781636Y-64678201D01*
X173781633Y-64678199D01*
X173781633Y-64678198D01*
X173708358Y-64631109D01*
X173672076Y-64607792D01*
X173588770Y-64583330D01*
X173547118Y-64571100D01*
X173547117Y-64571100D01*
X173416883Y-64571100D01*
X173416882Y-64571100D01*
X173354403Y-64589446D01*
X173291924Y-64607792D01*
X173291920Y-64607794D01*
X173291921Y-64607794D01*
X173182362Y-64678201D01*
X173160613Y-64703302D01*
X173101836Y-64741077D01*
X173066900Y-64746100D01*
X154325900Y-64746100D01*
X154258861Y-64726415D01*
X154213106Y-64673611D01*
X154201900Y-64622100D01*
X154201900Y-59345133D01*
X154221585Y-59278094D01*
X154232187Y-59263930D01*
X154241542Y-59253134D01*
X154308921Y-59175374D01*
X154363023Y-59056909D01*
X154381557Y-58928000D01*
X154363023Y-58799091D01*
X154308921Y-58680626D01*
X154223636Y-58582201D01*
X154223633Y-58582199D01*
X154223633Y-58582198D01*
X154157899Y-58539955D01*
X154114076Y-58511792D01*
X154030770Y-58487330D01*
X153989118Y-58475100D01*
X153989117Y-58475100D01*
X153858883Y-58475100D01*
X153858882Y-58475100D01*
X153796403Y-58493446D01*
X153733924Y-58511792D01*
X153733920Y-58511794D01*
X153733921Y-58511794D01*
X153624366Y-58582198D01*
X153624366Y-58582199D01*
X153539079Y-58680625D01*
X153539078Y-58680627D01*
X153484976Y-58799091D01*
X153466443Y-58928000D01*
X149629900Y-58928000D01*
X149629900Y-56808471D01*
X149649585Y-56741432D01*
X149666219Y-56720790D01*
X150192791Y-56194219D01*
X150254114Y-56160734D01*
X150280472Y-56157900D01*
X151305813Y-56157900D01*
X151372852Y-56177585D01*
X151418607Y-56230389D01*
X151424126Y-56244779D01*
X151473620Y-56402530D01*
X151473623Y-56402536D01*
X151473624Y-56402539D01*
X151560799Y-56559597D01*
X151572612Y-56580880D01*
X151572612Y-56580881D01*
X151705469Y-56735640D01*
X151705472Y-56735643D01*
X151866766Y-56860495D01*
X152049891Y-56950322D01*
X152247350Y-57001447D01*
X152451058Y-57011778D01*
X152652676Y-56980891D01*
X152843949Y-56910052D01*
X153017047Y-56802159D01*
X153164883Y-56661630D01*
X153281404Y-56494219D01*
X153361841Y-56306780D01*
X153402900Y-56106985D01*
X153402900Y-56055862D01*
X153897100Y-56055862D01*
X153912562Y-56207924D01*
X153973620Y-56402530D01*
X153973623Y-56402536D01*
X153973624Y-56402539D01*
X154060799Y-56559597D01*
X154072612Y-56580880D01*
X154072612Y-56580881D01*
X154205469Y-56735640D01*
X154205472Y-56735643D01*
X154366766Y-56860495D01*
X154549891Y-56950322D01*
X154747350Y-57001447D01*
X154951058Y-57011778D01*
X155152676Y-56980891D01*
X155343949Y-56910052D01*
X155517047Y-56802159D01*
X155664883Y-56661630D01*
X155781404Y-56494219D01*
X155861841Y-56306780D01*
X155902900Y-56106985D01*
X155902900Y-56055862D01*
X158897100Y-56055862D01*
X158912562Y-56207924D01*
X158973620Y-56402530D01*
X158973623Y-56402536D01*
X158973624Y-56402539D01*
X159060799Y-56559597D01*
X159072612Y-56580880D01*
X159072612Y-56580881D01*
X159205469Y-56735640D01*
X159205472Y-56735643D01*
X159366766Y-56860495D01*
X159549891Y-56950322D01*
X159747350Y-57001447D01*
X159951058Y-57011778D01*
X160152676Y-56980891D01*
X160343949Y-56910052D01*
X160517047Y-56802159D01*
X160664883Y-56661630D01*
X160682226Y-56636713D01*
X161397100Y-56636713D01*
X161412041Y-56731050D01*
X161412042Y-56731053D01*
X161412043Y-56731055D01*
X161468012Y-56840900D01*
X161469985Y-56844772D01*
X161469988Y-56844776D01*
X161560223Y-56935011D01*
X161560227Y-56935014D01*
X161560229Y-56935016D01*
X161673945Y-56992957D01*
X161673947Y-56992957D01*
X161673949Y-56992958D01*
X161768287Y-57007900D01*
X161768292Y-57007900D01*
X163031713Y-57007900D01*
X163126050Y-56992958D01*
X163126050Y-56992957D01*
X163126055Y-56992957D01*
X163239771Y-56935016D01*
X163330016Y-56844771D01*
X163387957Y-56731055D01*
X163389583Y-56720790D01*
X163402900Y-56636713D01*
X163402900Y-55123286D01*
X163387958Y-55028949D01*
X163387957Y-55028947D01*
X163387957Y-55028945D01*
X163330016Y-54915229D01*
X163330014Y-54915227D01*
X163330011Y-54915223D01*
X163239776Y-54824988D01*
X163239772Y-54824985D01*
X163239771Y-54824984D01*
X163126055Y-54767043D01*
X163126053Y-54767042D01*
X163126050Y-54767041D01*
X163031713Y-54752100D01*
X163031708Y-54752100D01*
X161768292Y-54752100D01*
X161768287Y-54752100D01*
X161673949Y-54767041D01*
X161560227Y-54824985D01*
X161560223Y-54824988D01*
X161469988Y-54915223D01*
X161469985Y-54915227D01*
X161412041Y-55028949D01*
X161397100Y-55123286D01*
X161397100Y-56636713D01*
X160682226Y-56636713D01*
X160781404Y-56494219D01*
X160861841Y-56306780D01*
X160902900Y-56106985D01*
X160902900Y-55704139D01*
X160899538Y-55671072D01*
X160887437Y-55552075D01*
X160826379Y-55357469D01*
X160826377Y-55357466D01*
X160826376Y-55357461D01*
X160727389Y-55179121D01*
X160727387Y-55179118D01*
X160594530Y-55024359D01*
X160594529Y-55024358D01*
X160594528Y-55024357D01*
X160433234Y-54899505D01*
X160250109Y-54809678D01*
X160052650Y-54758553D01*
X160052652Y-54758553D01*
X159916844Y-54751665D01*
X159848942Y-54748222D01*
X159848941Y-54748222D01*
X159848939Y-54748222D01*
X159647328Y-54779108D01*
X159647322Y-54779109D01*
X159456058Y-54849945D01*
X159456051Y-54849948D01*
X159282948Y-54957844D01*
X159135119Y-55098366D01*
X159135118Y-55098368D01*
X159018595Y-55265781D01*
X158938159Y-55453219D01*
X158897100Y-55653014D01*
X158897100Y-56055862D01*
X155902900Y-56055862D01*
X155902900Y-55704139D01*
X155899538Y-55671072D01*
X155887437Y-55552075D01*
X155826379Y-55357469D01*
X155826377Y-55357466D01*
X155826376Y-55357461D01*
X155727389Y-55179121D01*
X155727387Y-55179118D01*
X155594530Y-55024359D01*
X155594529Y-55024358D01*
X155594528Y-55024357D01*
X155433234Y-54899505D01*
X155250109Y-54809678D01*
X155250107Y-54809677D01*
X155247291Y-54808296D01*
X155195772Y-54761099D01*
X155177900Y-54696968D01*
X155177900Y-53038471D01*
X155197585Y-52971432D01*
X155214219Y-52950790D01*
X155526791Y-52638219D01*
X155588114Y-52604734D01*
X155614472Y-52601900D01*
X167219529Y-52601900D01*
X167286568Y-52621585D01*
X167307210Y-52638218D01*
X179263782Y-64594791D01*
X179297266Y-64656112D01*
X179300100Y-64682470D01*
X179300100Y-72988866D01*
X179280415Y-73055905D01*
X179269814Y-73070068D01*
X179193079Y-73158626D01*
X179193078Y-73158627D01*
X179138976Y-73277091D01*
X179120443Y-73406000D01*
X179138976Y-73534908D01*
X179154183Y-73568205D01*
X179193079Y-73653374D01*
X179278364Y-73751799D01*
X179278366Y-73751800D01*
X179278366Y-73751801D01*
X179322187Y-73779962D01*
X179387924Y-73822208D01*
X179489765Y-73852112D01*
X179512882Y-73858900D01*
X179512883Y-73858900D01*
X179643118Y-73858900D01*
X179662625Y-73853171D01*
X179768076Y-73822208D01*
X179877636Y-73751799D01*
X179962921Y-73653374D01*
X180017023Y-73534909D01*
X180035557Y-73406000D01*
X180017023Y-73277091D01*
X179962921Y-73158626D01*
X179886186Y-73070068D01*
X179857162Y-73006512D01*
X179855900Y-72988866D01*
X179855900Y-64574443D01*
X179856495Y-64565867D01*
X179858001Y-64555064D01*
X179858003Y-64555059D01*
X179855966Y-64510993D01*
X179855900Y-64508130D01*
X179855900Y-64490249D01*
X179855900Y-64490247D01*
X179855504Y-64488133D01*
X179854514Y-64479595D01*
X179853205Y-64451273D01*
X179851054Y-64446403D01*
X179842601Y-64419103D01*
X179842368Y-64417860D01*
X179841623Y-64413872D01*
X179841620Y-64413867D01*
X179826696Y-64389763D01*
X179822688Y-64382159D01*
X179811239Y-64356229D01*
X179807475Y-64352465D01*
X179789729Y-64330060D01*
X179786929Y-64325538D01*
X179764301Y-64308450D01*
X179757816Y-64302806D01*
X167623831Y-52168821D01*
X167618187Y-52162335D01*
X167611610Y-52153626D01*
X167579018Y-52123914D01*
X167576946Y-52121936D01*
X167564293Y-52109283D01*
X167562512Y-52108063D01*
X167555777Y-52102727D01*
X167534830Y-52083632D01*
X167529862Y-52081707D01*
X167504588Y-52068385D01*
X167500194Y-52065375D01*
X167500193Y-52065374D01*
X167500192Y-52065374D01*
X167472591Y-52058881D01*
X167464383Y-52056339D01*
X167437950Y-52046100D01*
X167437949Y-52046100D01*
X167432626Y-52046100D01*
X167404236Y-52042806D01*
X167399057Y-52041588D01*
X167370975Y-52045505D01*
X167362402Y-52046100D01*
X155506443Y-52046100D01*
X155497867Y-52045505D01*
X155487059Y-52043997D01*
X155442994Y-52046034D01*
X155440131Y-52046100D01*
X155422237Y-52046100D01*
X155420118Y-52046496D01*
X155411595Y-52047484D01*
X155383277Y-52048794D01*
X155383272Y-52048795D01*
X155378396Y-52050948D01*
X155351110Y-52059397D01*
X155345874Y-52060376D01*
X155345870Y-52060377D01*
X155321768Y-52075300D01*
X155314168Y-52079306D01*
X155288229Y-52090761D01*
X155288227Y-52090762D01*
X155284463Y-52094527D01*
X155262066Y-52112267D01*
X155257536Y-52115071D01*
X155240445Y-52137702D01*
X155234804Y-52144185D01*
X154744821Y-52634168D01*
X154738341Y-52639807D01*
X154729628Y-52646387D01*
X154699904Y-52678991D01*
X154697930Y-52681058D01*
X154685282Y-52693708D01*
X154685279Y-52693710D01*
X154684055Y-52695498D01*
X154678729Y-52702219D01*
X154659631Y-52723170D01*
X154657705Y-52728142D01*
X154644391Y-52753402D01*
X154641376Y-52757804D01*
X154641374Y-52757808D01*
X154634882Y-52785406D01*
X154632341Y-52793613D01*
X154622100Y-52820050D01*
X154622100Y-52825372D01*
X154618807Y-52853757D01*
X154617588Y-52858937D01*
X154617588Y-52858943D01*
X154621505Y-52887021D01*
X154622100Y-52895597D01*
X154622100Y-54702143D01*
X154602415Y-54769182D01*
X154549611Y-54814937D01*
X154541167Y-54818424D01*
X154456052Y-54849947D01*
X154456051Y-54849948D01*
X154282948Y-54957844D01*
X154135119Y-55098366D01*
X154135118Y-55098368D01*
X154018595Y-55265781D01*
X153938159Y-55453219D01*
X153897100Y-55653014D01*
X153897100Y-56055862D01*
X153402900Y-56055862D01*
X153402900Y-55704139D01*
X153399538Y-55671072D01*
X153387437Y-55552075D01*
X153326379Y-55357469D01*
X153326377Y-55357466D01*
X153326376Y-55357461D01*
X153227389Y-55179121D01*
X153227387Y-55179118D01*
X153094530Y-55024359D01*
X153094529Y-55024358D01*
X153094528Y-55024357D01*
X152933234Y-54899505D01*
X152750109Y-54809678D01*
X152552650Y-54758553D01*
X152552652Y-54758553D01*
X152416844Y-54751665D01*
X152348942Y-54748222D01*
X152348941Y-54748222D01*
X152348939Y-54748222D01*
X152147328Y-54779108D01*
X152147322Y-54779109D01*
X151956058Y-54849945D01*
X151956051Y-54849948D01*
X151782948Y-54957844D01*
X151635119Y-55098366D01*
X151635118Y-55098368D01*
X151518596Y-55265779D01*
X151438157Y-55453223D01*
X151427915Y-55503062D01*
X151395138Y-55564766D01*
X151334205Y-55598955D01*
X151306454Y-55602100D01*
X150172446Y-55602100D01*
X150163871Y-55601505D01*
X150153061Y-55599997D01*
X150153059Y-55599997D01*
X150134092Y-55600873D01*
X150108994Y-55602034D01*
X150106131Y-55602100D01*
X150088237Y-55602100D01*
X150086118Y-55602496D01*
X150077595Y-55603484D01*
X150049277Y-55604794D01*
X150049272Y-55604795D01*
X150044396Y-55606948D01*
X150017112Y-55615397D01*
X150011872Y-55616376D01*
X150011871Y-55616377D01*
X149987762Y-55631303D01*
X149980164Y-55635308D01*
X149954229Y-55646760D01*
X149950463Y-55650527D01*
X149928066Y-55668267D01*
X149923536Y-55671071D01*
X149906445Y-55693702D01*
X149900804Y-55700185D01*
X149196821Y-56404168D01*
X149190341Y-56409807D01*
X149181628Y-56416387D01*
X149151904Y-56448991D01*
X149149930Y-56451058D01*
X149137282Y-56463708D01*
X149137279Y-56463710D01*
X149136055Y-56465498D01*
X149130729Y-56472219D01*
X149111631Y-56493170D01*
X149109705Y-56498142D01*
X149096391Y-56523402D01*
X149093376Y-56527804D01*
X149093374Y-56527808D01*
X149086882Y-56555406D01*
X149084341Y-56563613D01*
X149074100Y-56590050D01*
X149074100Y-56595372D01*
X149070807Y-56623757D01*
X149069588Y-56628937D01*
X149069588Y-56628943D01*
X149073505Y-56657021D01*
X149074100Y-56665597D01*
X149074100Y-70067866D01*
X149054415Y-70134905D01*
X149043814Y-70149068D01*
X148967079Y-70237626D01*
X148967078Y-70237627D01*
X148912976Y-70356091D01*
X148894443Y-70485000D01*
X148912976Y-70613908D01*
X148967078Y-70732372D01*
X148967079Y-70732374D01*
X149043813Y-70820930D01*
X149072838Y-70884486D01*
X149074100Y-70902133D01*
X149074100Y-88738866D01*
X149054415Y-88805905D01*
X149043814Y-88820068D01*
X148967079Y-88908626D01*
X148967078Y-88908627D01*
X148912976Y-89027091D01*
X148894443Y-89155999D01*
X130667900Y-89155999D01*
X130667900Y-88013286D01*
X130652958Y-87918949D01*
X130652957Y-87918947D01*
X130652957Y-87918945D01*
X130595016Y-87805229D01*
X130595014Y-87805227D01*
X130595011Y-87805223D01*
X130504776Y-87714988D01*
X130504772Y-87714985D01*
X130504771Y-87714985D01*
X130504771Y-87714984D01*
X130391055Y-87657043D01*
X130391053Y-87657042D01*
X130391050Y-87657041D01*
X130296713Y-87642100D01*
X130296708Y-87642100D01*
X128783292Y-87642100D01*
X128783287Y-87642100D01*
X128688949Y-87657041D01*
X128575227Y-87714985D01*
X128575223Y-87714988D01*
X128484988Y-87805223D01*
X128484985Y-87805227D01*
X128427041Y-87918949D01*
X128412100Y-88013286D01*
X128412100Y-89276713D01*
X105979265Y-89276713D01*
X105975982Y-85674999D01*
X118492005Y-85674999D01*
X118512333Y-85881402D01*
X118572542Y-86079883D01*
X118670305Y-86262785D01*
X118670306Y-86262786D01*
X118670309Y-86262791D01*
X118801885Y-86423115D01*
X118962209Y-86554691D01*
X118962213Y-86554693D01*
X118962214Y-86554694D01*
X119145116Y-86652457D01*
X119145119Y-86652457D01*
X119145123Y-86652460D01*
X119343595Y-86712666D01*
X119498269Y-86727900D01*
X122550230Y-86727900D01*
X122556310Y-86728199D01*
X122569275Y-86729475D01*
X122605000Y-86732994D01*
X122656723Y-86727900D01*
X122656731Y-86727900D01*
X122811405Y-86712666D01*
X123009877Y-86652460D01*
X123192791Y-86554691D01*
X123353115Y-86423115D01*
X123384169Y-86385274D01*
X123388228Y-86380795D01*
X125034805Y-84734219D01*
X125096129Y-84700734D01*
X125122487Y-84697900D01*
X129591728Y-84697900D01*
X129591731Y-84697900D01*
X129746405Y-84682666D01*
X129944877Y-84622460D01*
X129998811Y-84593631D01*
X130020137Y-84584679D01*
X130052391Y-84574559D01*
X130062530Y-84571379D01*
X130062530Y-84571378D01*
X130062539Y-84571376D01*
X130240879Y-84472389D01*
X130395643Y-84339528D01*
X130520495Y-84178234D01*
X130610322Y-83995109D01*
X130661447Y-83797650D01*
X130671778Y-83593942D01*
X130640891Y-83392324D01*
X130570052Y-83201051D01*
X130462159Y-83027953D01*
X130462156Y-83027950D01*
X130462155Y-83027948D01*
X130321633Y-82880119D01*
X130321631Y-82880118D01*
X130286906Y-82855949D01*
X130154219Y-82763596D01*
X130154218Y-82763595D01*
X130154216Y-82763594D01*
X130154215Y-82763593D01*
X130006335Y-82700132D01*
X130001558Y-82697836D01*
X129944881Y-82667542D01*
X129944880Y-82667541D01*
X129944877Y-82667540D01*
X129746405Y-82607334D01*
X129746403Y-82607333D01*
X129746401Y-82607333D01*
X129642422Y-82597092D01*
X129591731Y-82592100D01*
X129591728Y-82592100D01*
X124689781Y-82592100D01*
X124683701Y-82591801D01*
X124635000Y-82587005D01*
X124428597Y-82607332D01*
X124208266Y-82674168D01*
X124208087Y-82674474D01*
X124181645Y-82693451D01*
X124047214Y-82765305D01*
X124047207Y-82765309D01*
X123886885Y-82896883D01*
X123855834Y-82934717D01*
X123851747Y-82939227D01*
X122205194Y-84585781D01*
X122143871Y-84619266D01*
X122117513Y-84622100D01*
X121641988Y-84622100D01*
X121574949Y-84602415D01*
X121529194Y-84549611D01*
X121519250Y-84480453D01*
X121546133Y-84419437D01*
X121574159Y-84385287D01*
X121578238Y-84380785D01*
X123724806Y-82234219D01*
X123786130Y-82200734D01*
X123812488Y-82197900D01*
X129591728Y-82197900D01*
X129591731Y-82197900D01*
X129746405Y-82182666D01*
X129944877Y-82122460D01*
X129998811Y-82093631D01*
X130020137Y-82084679D01*
X130052391Y-82074559D01*
X130062530Y-82071379D01*
X130062530Y-82071378D01*
X130062539Y-82071376D01*
X130240879Y-81972389D01*
X130395643Y-81839528D01*
X130520495Y-81678234D01*
X130610322Y-81495109D01*
X130661447Y-81297650D01*
X130671778Y-81093942D01*
X130640891Y-80892324D01*
X130570052Y-80701051D01*
X130462159Y-80527953D01*
X130462156Y-80527950D01*
X130462155Y-80527948D01*
X130321633Y-80380119D01*
X130321631Y-80380118D01*
X130310845Y-80372611D01*
X130154219Y-80263596D01*
X130154218Y-80263595D01*
X130154216Y-80263594D01*
X130154215Y-80263593D01*
X130006335Y-80200132D01*
X130001558Y-80197836D01*
X129944881Y-80167542D01*
X129944880Y-80167541D01*
X129944877Y-80167540D01*
X129746405Y-80107334D01*
X129746403Y-80107333D01*
X129746401Y-80107333D01*
X129642422Y-80097092D01*
X129591731Y-80092100D01*
X129591728Y-80092100D01*
X123379770Y-80092100D01*
X123373690Y-80091801D01*
X123325000Y-80087006D01*
X123324999Y-80087006D01*
X123275845Y-80091847D01*
X123275834Y-80091848D01*
X123273275Y-80092100D01*
X123273269Y-80092100D01*
X123211185Y-80098214D01*
X123118596Y-80107333D01*
X122920117Y-80167541D01*
X122737214Y-80265305D01*
X122737207Y-80265309D01*
X122617732Y-80363361D01*
X122617725Y-80363367D01*
X122576885Y-80396883D01*
X122545839Y-80434711D01*
X122541752Y-80439220D01*
X120395194Y-82585781D01*
X120333871Y-82619266D01*
X120307513Y-82622100D01*
X119498269Y-82622100D01*
X119452569Y-82626600D01*
X119343598Y-82637333D01*
X119145116Y-82697542D01*
X118962214Y-82795305D01*
X118962213Y-82795306D01*
X118962209Y-82795308D01*
X118962209Y-82795309D01*
X118912334Y-82836241D01*
X118801885Y-82926885D01*
X118670306Y-83087213D01*
X118670305Y-83087214D01*
X118572542Y-83270116D01*
X118512333Y-83468597D01*
X118492005Y-83675000D01*
X118512333Y-83881402D01*
X118512334Y-83881405D01*
X118546826Y-83995111D01*
X118572542Y-84079883D01*
X118670305Y-84262785D01*
X118670306Y-84262786D01*
X118670309Y-84262791D01*
X118801885Y-84423115D01*
X118962209Y-84554691D01*
X118982692Y-84565639D01*
X119032538Y-84614600D01*
X119048000Y-84682737D01*
X119024170Y-84748418D01*
X118982699Y-84784355D01*
X118962215Y-84795304D01*
X118962213Y-84795306D01*
X118801885Y-84926885D01*
X118670306Y-85087213D01*
X118670305Y-85087214D01*
X118572542Y-85270116D01*
X118512333Y-85468597D01*
X118492005Y-85674999D01*
X105975982Y-85674999D01*
X105972623Y-81990054D01*
X118647100Y-81990054D01*
X118655972Y-82034658D01*
X118655973Y-82034661D01*
X118689765Y-82085233D01*
X118689766Y-82085234D01*
X118740342Y-82119028D01*
X118740343Y-82119028D01*
X118740345Y-82119029D01*
X118757580Y-82122457D01*
X118784943Y-82127900D01*
X120315056Y-82127899D01*
X120359658Y-82119028D01*
X120410234Y-82085234D01*
X120444028Y-82034658D01*
X120452900Y-81990057D01*
X120452899Y-80359944D01*
X120444028Y-80315342D01*
X120444026Y-80315340D01*
X120444026Y-80315338D01*
X120410234Y-80264766D01*
X120359659Y-80230973D01*
X120359658Y-80230972D01*
X120359657Y-80230971D01*
X120359656Y-80230971D01*
X120359654Y-80230970D01*
X120315059Y-80222100D01*
X118784945Y-80222100D01*
X118740341Y-80230972D01*
X118740338Y-80230973D01*
X118689766Y-80264765D01*
X118655971Y-80315343D01*
X118655970Y-80315345D01*
X118647100Y-80359940D01*
X118647100Y-81990054D01*
X105972623Y-81990054D01*
X105960820Y-69040485D01*
X116441371Y-69040485D01*
X116445015Y-69110019D01*
X116445100Y-69113264D01*
X116445100Y-69135315D01*
X116446080Y-69144646D01*
X116447404Y-69157247D01*
X116447658Y-69160479D01*
X116451303Y-69230022D01*
X116454948Y-69243623D01*
X116458493Y-69262750D01*
X116459965Y-69276756D01*
X116459965Y-69276757D01*
X116481481Y-69342974D01*
X116482402Y-69346085D01*
X116500426Y-69413349D01*
X116500427Y-69413351D01*
X116506820Y-69425899D01*
X116514263Y-69443867D01*
X116518617Y-69457265D01*
X116518617Y-69457266D01*
X116553431Y-69517565D01*
X116554980Y-69520418D01*
X116586592Y-69582463D01*
X116595456Y-69593409D01*
X116606470Y-69609434D01*
X116613511Y-69621628D01*
X116613513Y-69621631D01*
X116613515Y-69621634D01*
X116660107Y-69673379D01*
X116662216Y-69675848D01*
X116676095Y-69692988D01*
X116691683Y-69708576D01*
X116693918Y-69710931D01*
X116740511Y-69762679D01*
X116740514Y-69762681D01*
X116751907Y-69770958D01*
X116766702Y-69783595D01*
X118684403Y-71701296D01*
X118697038Y-71716089D01*
X118705317Y-71727484D01*
X118705319Y-71727486D01*
X118757067Y-71774080D01*
X118759415Y-71776308D01*
X118775010Y-71791903D01*
X118786848Y-71801489D01*
X118792147Y-71805781D01*
X118794614Y-71807888D01*
X118846360Y-71854481D01*
X118846367Y-71854486D01*
X118858559Y-71861525D01*
X118874591Y-71872542D01*
X118885537Y-71881406D01*
X118913998Y-71895908D01*
X118947591Y-71913025D01*
X118950432Y-71914567D01*
X119010735Y-71949383D01*
X119024127Y-71953734D01*
X119042094Y-71961175D01*
X119054647Y-71967572D01*
X119121904Y-71985593D01*
X119125015Y-71986515D01*
X119149967Y-71994622D01*
X119191243Y-72008034D01*
X119205246Y-72009505D01*
X119224376Y-72013051D01*
X119237977Y-72016696D01*
X119307534Y-72020340D01*
X119310740Y-72020593D01*
X119332685Y-72022900D01*
X119354736Y-72022900D01*
X119357980Y-72022984D01*
X119427514Y-72026629D01*
X119441416Y-72024427D01*
X119460816Y-72022900D01*
X124040916Y-72022900D01*
X124060315Y-72024427D01*
X124074218Y-72026629D01*
X124143751Y-72022984D01*
X124146996Y-72022900D01*
X124169046Y-72022900D01*
X124169047Y-72022900D01*
X124190996Y-72020592D01*
X124194193Y-72020340D01*
X124263755Y-72016696D01*
X124277358Y-72013050D01*
X124296484Y-72009505D01*
X124310489Y-72008034D01*
X124376753Y-71986502D01*
X124379782Y-71985604D01*
X124447085Y-71967572D01*
X124459635Y-71961176D01*
X124477611Y-71953732D01*
X124477617Y-71953730D01*
X124490997Y-71949383D01*
X124551308Y-71914561D01*
X124554112Y-71913037D01*
X124616196Y-71881406D01*
X124627139Y-71872543D01*
X124643180Y-71861520D01*
X124655366Y-71854485D01*
X124707163Y-71807844D01*
X124709552Y-71805805D01*
X124726722Y-71791903D01*
X124742335Y-71776288D01*
X124744664Y-71774080D01*
X124796413Y-71727486D01*
X124804693Y-71716088D01*
X124817322Y-71701301D01*
X125081910Y-71436713D01*
X128412100Y-71436713D01*
X128427041Y-71531050D01*
X128427042Y-71531053D01*
X128427043Y-71531055D01*
X128484984Y-71644771D01*
X128484985Y-71644772D01*
X128484988Y-71644776D01*
X128575223Y-71735011D01*
X128575227Y-71735014D01*
X128575229Y-71735016D01*
X128688945Y-71792957D01*
X128688947Y-71792957D01*
X128688949Y-71792958D01*
X128783287Y-71807900D01*
X128783292Y-71807900D01*
X130296713Y-71807900D01*
X130391050Y-71792958D01*
X130391050Y-71792957D01*
X130391055Y-71792957D01*
X130504771Y-71735016D01*
X130595016Y-71644771D01*
X130652957Y-71531055D01*
X130652958Y-71531050D01*
X130667900Y-71436713D01*
X130667900Y-70173286D01*
X130652958Y-70078949D01*
X130652957Y-70078947D01*
X130652957Y-70078945D01*
X130595016Y-69965229D01*
X130595014Y-69965227D01*
X130595011Y-69965223D01*
X130504776Y-69874988D01*
X130504772Y-69874985D01*
X130504771Y-69874985D01*
X130504771Y-69874984D01*
X130391055Y-69817043D01*
X130391053Y-69817042D01*
X130391050Y-69817041D01*
X130296713Y-69802100D01*
X130296708Y-69802100D01*
X128783292Y-69802100D01*
X128783287Y-69802100D01*
X128688949Y-69817041D01*
X128575227Y-69874985D01*
X128575223Y-69874988D01*
X128484988Y-69965223D01*
X128484985Y-69965227D01*
X128427041Y-70078949D01*
X128412100Y-70173286D01*
X128412100Y-71436713D01*
X125081910Y-71436713D01*
X129678928Y-66839696D01*
X129740249Y-66806213D01*
X129754058Y-66804015D01*
X129837984Y-66795481D01*
X129867924Y-66792437D01*
X130062530Y-66731379D01*
X130062530Y-66731378D01*
X130062539Y-66731376D01*
X130240879Y-66632389D01*
X130395643Y-66499528D01*
X130520495Y-66338234D01*
X130610322Y-66155109D01*
X130661447Y-65957650D01*
X130671778Y-65753942D01*
X130640891Y-65552324D01*
X130570052Y-65361051D01*
X130462159Y-65187953D01*
X130462156Y-65187950D01*
X130462155Y-65187948D01*
X130321633Y-65040119D01*
X130321631Y-65040118D01*
X130321056Y-65039718D01*
X130154219Y-64923596D01*
X130154220Y-64923596D01*
X130154218Y-64923595D01*
X129966780Y-64843159D01*
X129766985Y-64802100D01*
X129364139Y-64802100D01*
X129364138Y-64802100D01*
X129212075Y-64817562D01*
X129017469Y-64878620D01*
X129017459Y-64878625D01*
X128839119Y-64977612D01*
X128839118Y-64977612D01*
X128684359Y-65110469D01*
X128559505Y-65271765D01*
X128469676Y-65454895D01*
X128469675Y-65454897D01*
X128464075Y-65476525D01*
X128431716Y-65533121D01*
X123784058Y-70180781D01*
X123722735Y-70214266D01*
X123696377Y-70217100D01*
X119805355Y-70217100D01*
X119738316Y-70197415D01*
X119717674Y-70180781D01*
X118946947Y-69410054D01*
X120834600Y-69410054D01*
X120843472Y-69454658D01*
X120843473Y-69454661D01*
X120877265Y-69505233D01*
X120877266Y-69505234D01*
X120927842Y-69539028D01*
X120927843Y-69539028D01*
X120927845Y-69539029D01*
X120950142Y-69543464D01*
X120972443Y-69547900D01*
X122602556Y-69547899D01*
X122647158Y-69539028D01*
X122697734Y-69505234D01*
X122731528Y-69454658D01*
X122740400Y-69410057D01*
X122740399Y-67779944D01*
X122731528Y-67735342D01*
X122731526Y-67735340D01*
X122731526Y-67735338D01*
X122697734Y-67684766D01*
X122692662Y-67681377D01*
X122647158Y-67650972D01*
X122647157Y-67650971D01*
X122647156Y-67650971D01*
X122647154Y-67650970D01*
X122602559Y-67642100D01*
X120972445Y-67642100D01*
X120927841Y-67650972D01*
X120927838Y-67650973D01*
X120877266Y-67684765D01*
X120843471Y-67735343D01*
X120843470Y-67735345D01*
X120834600Y-67779940D01*
X120834600Y-69410054D01*
X118946947Y-69410054D01*
X118287219Y-68750326D01*
X118253734Y-68689003D01*
X118250900Y-68662645D01*
X118250900Y-67481354D01*
X118270585Y-67414315D01*
X118287219Y-67393673D01*
X118646674Y-67034219D01*
X118707997Y-67000734D01*
X118734355Y-66997900D01*
X119462926Y-66997900D01*
X119498921Y-67003239D01*
X119600699Y-67034113D01*
X119787500Y-67052511D01*
X119974301Y-67034113D01*
X120153924Y-66979625D01*
X120153928Y-66979623D01*
X120319459Y-66891145D01*
X120319461Y-66891142D01*
X120319465Y-66891141D01*
X120464563Y-66772063D01*
X120583641Y-66626965D01*
X120583642Y-66626961D01*
X120583645Y-66626959D01*
X120672121Y-66461431D01*
X120672125Y-66461424D01*
X120672127Y-66461414D01*
X120672936Y-66459465D01*
X120673639Y-66458592D01*
X120674997Y-66456052D01*
X120675478Y-66456309D01*
X120716774Y-66405059D01*
X120783067Y-66382990D01*
X120850767Y-66400265D01*
X120898381Y-66451400D01*
X120902064Y-66459465D01*
X120902878Y-66461431D01*
X120991354Y-66626959D01*
X120991359Y-66626965D01*
X121110436Y-66772063D01*
X121255534Y-66891140D01*
X121255540Y-66891145D01*
X121421071Y-66979623D01*
X121421073Y-66979623D01*
X121421076Y-66979625D01*
X121600699Y-67034113D01*
X121787500Y-67052511D01*
X121974301Y-67034113D01*
X122153924Y-66979625D01*
X122153928Y-66979623D01*
X122319459Y-66891145D01*
X122319461Y-66891142D01*
X122319465Y-66891141D01*
X122464563Y-66772063D01*
X122583641Y-66626965D01*
X122633780Y-66533160D01*
X122655451Y-66503940D01*
X124915174Y-64244219D01*
X124976498Y-64210734D01*
X125002856Y-64207900D01*
X128950389Y-64207900D01*
X128999288Y-64217948D01*
X129113220Y-64266841D01*
X129313015Y-64307900D01*
X129715862Y-64307900D01*
X129867924Y-64292437D01*
X130062530Y-64231379D01*
X130062530Y-64231378D01*
X130062539Y-64231376D01*
X130240879Y-64132389D01*
X130395643Y-63999528D01*
X130520495Y-63838234D01*
X130610322Y-63655109D01*
X130610322Y-63655107D01*
X130611704Y-63652291D01*
X130658901Y-63600772D01*
X130723032Y-63582900D01*
X141614557Y-63582900D01*
X141623133Y-63583495D01*
X141633936Y-63585001D01*
X141633941Y-63585003D01*
X141673392Y-63583179D01*
X141678006Y-63582966D01*
X141680869Y-63582900D01*
X141698745Y-63582900D01*
X141698753Y-63582900D01*
X141700864Y-63582505D01*
X141709389Y-63581514D01*
X141737727Y-63580205D01*
X141742587Y-63578058D01*
X141769903Y-63569599D01*
X141775128Y-63568623D01*
X141799236Y-63553694D01*
X141806828Y-63549692D01*
X141832771Y-63538238D01*
X141836531Y-63534477D01*
X141858939Y-63516728D01*
X141863463Y-63513928D01*
X141880560Y-63491286D01*
X141886182Y-63484825D01*
X144683790Y-60687219D01*
X144745114Y-60653734D01*
X144771472Y-60650900D01*
X144845118Y-60650900D01*
X144864625Y-60645171D01*
X144970076Y-60614208D01*
X145079636Y-60543799D01*
X145164921Y-60445374D01*
X145219023Y-60326909D01*
X145237557Y-60198000D01*
X145219023Y-60069091D01*
X145164921Y-59950626D01*
X145079636Y-59852201D01*
X145079633Y-59852199D01*
X145079633Y-59852198D01*
X145013899Y-59809955D01*
X144970076Y-59781792D01*
X144886770Y-59757330D01*
X144845118Y-59745100D01*
X144845117Y-59745100D01*
X144714883Y-59745100D01*
X144714882Y-59745100D01*
X144652403Y-59763446D01*
X144589924Y-59781792D01*
X144589920Y-59781794D01*
X144589921Y-59781794D01*
X144480366Y-59852198D01*
X144480366Y-59852199D01*
X144395079Y-59950625D01*
X144395078Y-59950627D01*
X144340976Y-60069091D01*
X144322443Y-60198000D01*
X144322443Y-60206867D01*
X144319732Y-60206867D01*
X144311771Y-60262171D01*
X144286666Y-60298322D01*
X141594209Y-62990781D01*
X141532886Y-63024266D01*
X141506528Y-63027100D01*
X130717856Y-63027100D01*
X130650817Y-63007415D01*
X130605062Y-62954611D01*
X130601575Y-62946166D01*
X130570053Y-62861055D01*
X130570052Y-62861051D01*
X130462159Y-62687953D01*
X130462156Y-62687950D01*
X130462155Y-62687948D01*
X130321633Y-62540119D01*
X130321631Y-62540118D01*
X130154218Y-62423595D01*
X129966780Y-62343159D01*
X129766985Y-62302100D01*
X129364139Y-62302100D01*
X129364138Y-62302100D01*
X129212075Y-62317562D01*
X129017469Y-62378620D01*
X129017454Y-62378627D01*
X129003236Y-62386519D01*
X128943059Y-62402100D01*
X124658316Y-62402100D01*
X124638917Y-62400573D01*
X124625014Y-62398371D01*
X124582997Y-62400573D01*
X124555481Y-62402015D01*
X124552236Y-62402100D01*
X124530185Y-62402100D01*
X124526131Y-62402525D01*
X124508250Y-62404404D01*
X124505019Y-62404658D01*
X124435476Y-62408303D01*
X124421872Y-62411949D01*
X124402751Y-62415493D01*
X124388743Y-62416966D01*
X124388740Y-62416966D01*
X124388738Y-62416967D01*
X124322526Y-62438481D01*
X124319415Y-62439402D01*
X124252151Y-62457426D01*
X124252149Y-62457427D01*
X124239597Y-62463822D01*
X124221636Y-62471262D01*
X124208232Y-62475617D01*
X124208228Y-62475619D01*
X124147926Y-62510434D01*
X124145075Y-62511982D01*
X124083041Y-62543590D01*
X124083041Y-62543591D01*
X124072090Y-62552458D01*
X124056064Y-62563471D01*
X124043871Y-62570511D01*
X124043867Y-62570513D01*
X123992125Y-62617101D01*
X123989659Y-62619207D01*
X123972525Y-62633082D01*
X123972502Y-62633103D01*
X123956898Y-62648705D01*
X123954548Y-62650935D01*
X123902818Y-62697513D01*
X123894541Y-62708906D01*
X123881907Y-62723697D01*
X121378561Y-65227044D01*
X121349335Y-65248720D01*
X121255533Y-65298859D01*
X121110436Y-65417936D01*
X120991359Y-65563034D01*
X120991354Y-65563040D01*
X120902877Y-65728570D01*
X120902062Y-65730539D01*
X120901358Y-65731411D01*
X120900003Y-65733948D01*
X120899522Y-65733690D01*
X120858221Y-65784943D01*
X120791928Y-65807009D01*
X120724228Y-65789731D01*
X120676617Y-65738594D01*
X120672938Y-65730539D01*
X120672126Y-65728580D01*
X120672125Y-65728576D01*
X120672122Y-65728570D01*
X120583645Y-65563040D01*
X120583640Y-65563034D01*
X120464563Y-65417936D01*
X120319465Y-65298859D01*
X120319459Y-65298854D01*
X120153925Y-65210375D01*
X120153404Y-65210217D01*
X120153163Y-65210059D01*
X120148300Y-65208045D01*
X120148682Y-65207122D01*
X120094965Y-65171919D01*
X120066509Y-65108107D01*
X120065400Y-65091557D01*
X120065400Y-64252221D01*
X120085085Y-64185182D01*
X120101719Y-64164540D01*
X124516041Y-59750219D01*
X124577364Y-59716734D01*
X124603722Y-59713900D01*
X126433557Y-59713900D01*
X126442133Y-59714495D01*
X126452936Y-59716001D01*
X126452941Y-59716003D01*
X126492392Y-59714179D01*
X126497006Y-59713966D01*
X126499869Y-59713900D01*
X126517745Y-59713900D01*
X126517753Y-59713900D01*
X126519864Y-59713505D01*
X126528389Y-59712514D01*
X126556727Y-59711205D01*
X126561587Y-59709058D01*
X126588903Y-59700599D01*
X126594128Y-59699623D01*
X126618236Y-59684694D01*
X126625828Y-59680692D01*
X126651771Y-59669238D01*
X126655531Y-59665477D01*
X126677939Y-59647728D01*
X126682463Y-59644928D01*
X126699560Y-59622286D01*
X126705182Y-59615825D01*
X129443790Y-56877219D01*
X129505114Y-56843734D01*
X129531472Y-56840900D01*
X129605118Y-56840900D01*
X129624625Y-56835171D01*
X129730076Y-56804208D01*
X129839636Y-56733799D01*
X129924921Y-56635374D01*
X129979023Y-56516909D01*
X129997557Y-56388000D01*
X129979023Y-56259091D01*
X129924921Y-56140626D01*
X129839636Y-56042201D01*
X129839633Y-56042199D01*
X129839633Y-56042198D01*
X129773899Y-55999955D01*
X129730076Y-55971792D01*
X129646770Y-55947330D01*
X129605118Y-55935100D01*
X129605117Y-55935100D01*
X129474883Y-55935100D01*
X129474882Y-55935100D01*
X129412403Y-55953446D01*
X129349924Y-55971792D01*
X129349920Y-55971794D01*
X129349921Y-55971794D01*
X129240366Y-56042198D01*
X129240366Y-56042199D01*
X129155079Y-56140625D01*
X129155078Y-56140627D01*
X129100976Y-56259091D01*
X129082443Y-56388000D01*
X129082443Y-56396867D01*
X129079732Y-56396867D01*
X129071771Y-56452171D01*
X129046666Y-56488322D01*
X126413209Y-59121781D01*
X126351886Y-59155266D01*
X126325528Y-59158100D01*
X124495697Y-59158100D01*
X124487122Y-59157505D01*
X124476312Y-59155997D01*
X124476310Y-59155997D01*
X124457469Y-59156867D01*
X124432244Y-59158034D01*
X124429381Y-59158100D01*
X124411487Y-59158100D01*
X124409368Y-59158496D01*
X124400845Y-59159484D01*
X124372527Y-59160794D01*
X124372522Y-59160795D01*
X124367646Y-59162948D01*
X124340362Y-59171397D01*
X124335122Y-59172376D01*
X124335121Y-59172377D01*
X124311012Y-59187303D01*
X124303414Y-59191308D01*
X124277479Y-59202760D01*
X124273713Y-59206527D01*
X124251316Y-59224267D01*
X124246786Y-59227071D01*
X124229695Y-59249702D01*
X124224054Y-59256185D01*
X119632321Y-63847918D01*
X119625841Y-63853557D01*
X119617128Y-63860137D01*
X119587404Y-63892741D01*
X119585430Y-63894808D01*
X119572782Y-63907458D01*
X119572779Y-63907460D01*
X119571555Y-63909248D01*
X119566229Y-63915969D01*
X119547131Y-63936920D01*
X119545205Y-63941892D01*
X119531891Y-63967152D01*
X119528876Y-63971554D01*
X119528874Y-63971558D01*
X119522382Y-63999156D01*
X119519841Y-64007363D01*
X119509600Y-64033800D01*
X119509600Y-64039122D01*
X119506307Y-64067507D01*
X119505088Y-64072687D01*
X119505088Y-64072693D01*
X119509005Y-64100771D01*
X119509600Y-64109347D01*
X119509600Y-65068100D01*
X119489915Y-65135139D01*
X119437111Y-65180894D01*
X119385600Y-65192100D01*
X118389816Y-65192100D01*
X118370416Y-65190573D01*
X118356515Y-65188371D01*
X118356514Y-65188371D01*
X118286986Y-65192015D01*
X118283743Y-65192100D01*
X118261685Y-65192100D01*
X118244599Y-65193895D01*
X118239745Y-65194405D01*
X118236514Y-65194659D01*
X118166980Y-65198304D01*
X118166975Y-65198305D01*
X118153369Y-65201950D01*
X118134256Y-65205492D01*
X118120244Y-65206965D01*
X118120238Y-65206966D01*
X118054018Y-65228483D01*
X118050907Y-65229404D01*
X117983648Y-65247427D01*
X117971094Y-65253823D01*
X117953132Y-65261263D01*
X117939737Y-65265616D01*
X117879432Y-65300431D01*
X117876581Y-65301979D01*
X117814540Y-65333591D01*
X117814539Y-65333591D01*
X117803588Y-65342459D01*
X117787560Y-65353474D01*
X117775367Y-65360513D01*
X117723623Y-65407104D01*
X117721157Y-65409210D01*
X117704003Y-65423102D01*
X117688409Y-65438696D01*
X117686057Y-65440927D01*
X117634316Y-65487516D01*
X117626039Y-65498909D01*
X117613405Y-65513700D01*
X116766700Y-66360405D01*
X116751909Y-66373039D01*
X116740516Y-66381316D01*
X116693927Y-66433057D01*
X116691696Y-66435409D01*
X116676102Y-66451003D01*
X116662210Y-66468157D01*
X116660104Y-66470623D01*
X116613513Y-66522367D01*
X116606474Y-66534560D01*
X116595459Y-66550588D01*
X116586591Y-66561539D01*
X116586591Y-66561540D01*
X116554979Y-66623581D01*
X116553431Y-66626432D01*
X116518616Y-66686737D01*
X116514263Y-66700132D01*
X116506823Y-66718094D01*
X116500427Y-66730648D01*
X116482401Y-66797918D01*
X116481480Y-66801029D01*
X116459967Y-66867238D01*
X116459966Y-66867240D01*
X116459966Y-66867243D01*
X116458493Y-66881251D01*
X116454949Y-66900372D01*
X116451303Y-66913976D01*
X116447658Y-66983519D01*
X116447404Y-66986750D01*
X116445100Y-67008687D01*
X116445100Y-67030735D01*
X116445015Y-67033980D01*
X116441371Y-67103513D01*
X116443573Y-67117414D01*
X116445100Y-67136815D01*
X116445100Y-69007184D01*
X116443573Y-69026583D01*
X116441371Y-69040485D01*
X105960820Y-69040485D01*
X105943527Y-50067763D01*
X108145787Y-50067763D01*
X108175413Y-50337013D01*
X108175415Y-50337024D01*
X108241632Y-50590307D01*
X108243928Y-50599088D01*
X108349870Y-50848390D01*
X108421998Y-50966575D01*
X108490979Y-51079605D01*
X108490986Y-51079615D01*
X108664253Y-51287819D01*
X108664259Y-51287824D01*
X108865998Y-51468582D01*
X109091910Y-51618044D01*
X109337176Y-51733020D01*
X109337183Y-51733022D01*
X109337185Y-51733023D01*
X109596557Y-51811057D01*
X109596564Y-51811058D01*
X109596569Y-51811060D01*
X109864561Y-51850500D01*
X109864566Y-51850500D01*
X110067636Y-51850500D01*
X110119133Y-51846730D01*
X110270156Y-51835677D01*
X110382758Y-51810593D01*
X110534546Y-51776782D01*
X110534548Y-51776781D01*
X110534553Y-51776780D01*
X110787558Y-51680014D01*
X111023777Y-51547441D01*
X111238177Y-51381888D01*
X111426186Y-51186881D01*
X111583799Y-50966579D01*
X111657787Y-50822669D01*
X111707649Y-50725690D01*
X111707651Y-50725684D01*
X111707656Y-50725675D01*
X111795118Y-50469305D01*
X111844319Y-50202933D01*
X111854212Y-49932235D01*
X111824586Y-49662982D01*
X111765331Y-49436330D01*
X155745710Y-49436330D01*
X155775925Y-49659387D01*
X155775926Y-49659390D01*
X155845483Y-49873465D01*
X155952146Y-50071678D01*
X155952148Y-50071681D01*
X156092489Y-50247663D01*
X156092491Y-50247664D01*
X156092492Y-50247666D01*
X156262004Y-50395765D01*
X156455236Y-50511215D01*
X156665976Y-50590307D01*
X156887450Y-50630500D01*
X156887453Y-50630500D01*
X157856148Y-50630500D01*
X157856155Y-50630500D01*
X158024188Y-50615377D01*
X158024192Y-50615376D01*
X158241160Y-50555496D01*
X158241162Y-50555495D01*
X158241170Y-50555493D01*
X158443973Y-50457829D01*
X158626078Y-50325522D01*
X158781632Y-50162825D01*
X158844382Y-50067763D01*
X198145787Y-50067763D01*
X198175413Y-50337013D01*
X198175415Y-50337024D01*
X198241632Y-50590307D01*
X198243928Y-50599088D01*
X198349870Y-50848390D01*
X198421998Y-50966575D01*
X198490979Y-51079605D01*
X198490986Y-51079615D01*
X198664253Y-51287819D01*
X198664259Y-51287824D01*
X198865998Y-51468582D01*
X199091910Y-51618044D01*
X199337176Y-51733020D01*
X199337183Y-51733022D01*
X199337185Y-51733023D01*
X199596557Y-51811057D01*
X199596564Y-51811058D01*
X199596569Y-51811060D01*
X199864561Y-51850500D01*
X199864566Y-51850500D01*
X200067636Y-51850500D01*
X200119133Y-51846730D01*
X200270156Y-51835677D01*
X200382758Y-51810593D01*
X200534546Y-51776782D01*
X200534548Y-51776781D01*
X200534553Y-51776780D01*
X200787558Y-51680014D01*
X201023777Y-51547441D01*
X201238177Y-51381888D01*
X201426186Y-51186881D01*
X201583799Y-50966579D01*
X201657787Y-50822669D01*
X201707649Y-50725690D01*
X201707651Y-50725684D01*
X201707656Y-50725675D01*
X201795118Y-50469305D01*
X201844319Y-50202933D01*
X201854212Y-49932235D01*
X201824586Y-49662982D01*
X201756072Y-49400912D01*
X201650130Y-49151610D01*
X201509018Y-48920390D01*
X201419747Y-48813119D01*
X201335746Y-48712180D01*
X201335740Y-48712175D01*
X201134002Y-48531418D01*
X200908092Y-48381957D01*
X200887447Y-48372279D01*
X200662824Y-48266980D01*
X200662819Y-48266978D01*
X200662814Y-48266976D01*
X200403442Y-48188942D01*
X200403428Y-48188939D01*
X200272642Y-48169692D01*
X200135439Y-48149500D01*
X199932369Y-48149500D01*
X199932364Y-48149500D01*
X199729844Y-48164323D01*
X199729831Y-48164325D01*
X199465453Y-48223217D01*
X199465446Y-48223220D01*
X199212439Y-48319987D01*
X198976226Y-48452557D01*
X198761822Y-48618112D01*
X198573822Y-48813109D01*
X198573816Y-48813116D01*
X198416202Y-49033419D01*
X198416199Y-49033424D01*
X198292350Y-49274309D01*
X198292343Y-49274327D01*
X198204884Y-49530685D01*
X198204881Y-49530699D01*
X198155681Y-49797068D01*
X198155680Y-49797075D01*
X198145787Y-50067763D01*
X158844382Y-50067763D01*
X158905635Y-49974968D01*
X158994103Y-49767988D01*
X159044191Y-49548537D01*
X159054290Y-49323670D01*
X159024075Y-49100613D01*
X158954517Y-48886536D01*
X158847852Y-48688319D01*
X158707508Y-48512334D01*
X158537996Y-48364235D01*
X158344764Y-48248785D01*
X158226775Y-48204503D01*
X158134023Y-48169692D01*
X157912550Y-48129500D01*
X157912547Y-48129500D01*
X156943845Y-48129500D01*
X156905399Y-48132960D01*
X156775813Y-48144622D01*
X156775807Y-48144623D01*
X156558839Y-48204503D01*
X156558826Y-48204508D01*
X156356033Y-48302167D01*
X156356025Y-48302171D01*
X156173927Y-48434473D01*
X156173925Y-48434474D01*
X156018366Y-48597176D01*
X155894363Y-48785033D01*
X155805899Y-48992004D01*
X155805895Y-48992017D01*
X155755810Y-49211457D01*
X155755808Y-49211468D01*
X155747300Y-49400917D01*
X155745710Y-49436330D01*
X111765331Y-49436330D01*
X111756072Y-49400912D01*
X111650130Y-49151610D01*
X111509018Y-48920390D01*
X111419747Y-48813119D01*
X111335746Y-48712180D01*
X111335740Y-48712175D01*
X111134002Y-48531418D01*
X110908092Y-48381957D01*
X110887447Y-48372279D01*
X110662824Y-48266980D01*
X110662819Y-48266978D01*
X110662814Y-48266976D01*
X110403442Y-48188942D01*
X110403428Y-48188939D01*
X110272642Y-48169692D01*
X110135439Y-48149500D01*
X109932369Y-48149500D01*
X109932364Y-48149500D01*
X109729844Y-48164323D01*
X109729831Y-48164325D01*
X109465453Y-48223217D01*
X109465446Y-48223220D01*
X109212439Y-48319987D01*
X108976226Y-48452557D01*
X108761822Y-48618112D01*
X108573822Y-48813109D01*
X108573816Y-48813116D01*
X108416202Y-49033419D01*
X108416199Y-49033424D01*
X108292350Y-49274309D01*
X108292343Y-49274327D01*
X108204884Y-49530685D01*
X108204881Y-49530699D01*
X108155681Y-49797068D01*
X108155680Y-49797075D01*
X108145787Y-50067763D01*
X105943527Y-50067763D01*
X105943501Y-50039451D01*
X105943567Y-50036546D01*
X105960596Y-49668235D01*
X105961122Y-49662545D01*
X106011868Y-49298755D01*
X106012917Y-49293144D01*
X106097013Y-48935588D01*
X106098573Y-48930107D01*
X106215306Y-48581825D01*
X106217357Y-48576530D01*
X106365735Y-48240485D01*
X106368266Y-48235402D01*
X106547004Y-47914505D01*
X106550016Y-47909642D01*
X106676905Y-47724406D01*
X106757596Y-47606611D01*
X106761023Y-47602072D01*
X106995692Y-47319471D01*
X106999528Y-47315263D01*
X107259263Y-47055528D01*
X107263471Y-47051692D01*
X107546072Y-46817023D01*
X107550611Y-46813596D01*
X107853642Y-46606015D01*
X107858505Y-46603004D01*
X108179402Y-46424266D01*
X108184485Y-46421735D01*
X108520530Y-46273357D01*
X108525825Y-46271306D01*
X108874107Y-46154573D01*
X108879588Y-46153013D01*
X109237144Y-46068917D01*
X109242755Y-46067868D01*
X109606545Y-46017122D01*
X109612235Y-46016596D01*
X109789390Y-46008404D01*
X109980567Y-45999565D01*
X109983417Y-45999500D01*
X199971603Y-46025491D01*
G37*
%TD.AperFunction*%
%TD*%
M02*
