M48
; DRILL file {KiCad 7.0.7} date Sun Feb 18 11:13:55 2024
; FORMAT={-:-/ absolute / metric / decimal}
; #@! TF.CreationDate,2024-02-18T11:13:55+09:00
; #@! TF.GenerationSoftware,Kicad,Pcbnew,7.0.7
; #@! TF.FileFunction,MixedPlating,1,2
FMAT,2
METRIC
; #@! TA.AperFunction,Plated,PTH,ViaDrill
T1C0.300
; #@! TA.AperFunction,Plated,PTH,ComponentDrill
T2C0.950
; #@! TA.AperFunction,Plated,PTH,ComponentDrill
T3C2.300
; #@! TA.AperFunction,NonPlated,NPTH,ComponentDrill
T4C2.000
; #@! TA.AperFunction,NonPlated,NPTH,ComponentDrill
T5C3.200
%
G90
G05
T1
X129.54Y-56.388
X144.78Y-60.198
X149.352Y-70.485
X149.352Y-89.156
X152.654Y-60.198
X152.654Y-64.262
X153.924Y-58.928
X163.068Y-74.93
X163.195Y-70.485
X163.957Y-80.899
X164.846Y-87.561
X166.814Y-101.282
X166.878Y-89.662
X167.513Y-77.343
X167.513Y-80.264
X167.64Y-73.66
X167.64Y-75.819
X168.377Y-73.152
X168.91Y-90.043
X169.377Y-68.58
X169.799Y-84.963
X169.926Y-80.264
X170.434Y-74.93
X170.434Y-85.725
X170.942Y-69.088
X171.069Y-84.963
X171.196Y-73.406
X171.704Y-68.522
X172.466Y-69.088
X173.482Y-65.024
X175.26Y-73.406
X175.768Y-77.978
X177.165Y-67.945
X178.562Y-80.899
X178.816Y-77.47
X179.578Y-73.406
T2
X119.55Y-81.175
X119.55Y-83.675
X119.55Y-85.675
X119.55Y-88.175
X119.787Y-66.095
X119.787Y-68.595
X120.65Y-132.08
X121.787Y-66.095
X121.787Y-68.595
X123.15Y-132.08
X125.65Y-132.08
X128.15Y-132.08
X129.54Y-63.305
X129.54Y-65.805
X129.54Y-68.305
X129.54Y-70.805
X129.54Y-81.145
X129.54Y-83.645
X129.54Y-86.145
X129.54Y-88.645
X138.43Y-132.08
X140.93Y-132.08
X143.43Y-132.08
X145.93Y-132.08
X152.4Y-55.88
X154.9Y-55.88
X156.21Y-132.08
X157.4Y-55.88
X158.71Y-132.08
X159.9Y-55.88
X161.21Y-132.08
X162.4Y-55.88
X163.71Y-132.08
X173.99Y-132.08
X176.49Y-132.08
X178.99Y-132.08
X181.49Y-132.08
X191.77Y-76.2
X191.77Y-78.7
X191.77Y-81.2
X191.77Y-83.7
X191.77Y-90.75
X191.77Y-93.25
X191.77Y-95.75
X191.77Y-98.25
X191.77Y-105.3
X191.77Y-107.8
X191.77Y-110.3
X191.77Y-112.8
X191.77Y-119.85
X191.77Y-122.35
X191.77Y-124.85
X191.77Y-127.35
T3
X116.84Y-78.105
X116.84Y-91.245
X116.927Y-61.345
X116.927Y-73.345
T5
X110.0Y-50.0
X110.0Y-140.0
X200.0Y-50.0
X200.0Y-140.0
T4
G00X124.0Y-138.58
M15
G01X124.8Y-138.58
M16
G05
G00X141.78Y-138.58
M15
G01X142.58Y-138.58
M16
G05
G00X157.8Y-49.38
M15
G01X157.0Y-49.38
M16
G05
G00X159.56Y-138.58
M15
G01X160.36Y-138.58
M16
G05
G00X177.34Y-138.58
M15
G01X178.14Y-138.58
M16
G05
G00X198.27Y-80.35
M15
G01X198.27Y-79.55
M16
G05
G00X198.27Y-94.9
M15
G01X198.27Y-94.1
M16
G05
G00X198.27Y-109.45
M15
G01X198.27Y-108.65
M16
G05
G00X198.27Y-124.0
M15
G01X198.27Y-123.2
M16
G05
T0
M30
